<svg width="180" height="45" viewBox="0 0 180 45" fill="none" xmlns="http://www.w3.org/2000/svg">
<g clip-path="url(#clip0)">
<path d="M35.7441 40.0117C35.7444 38.8333 36.2125 37.7033 37.0459 36.8701C37.8793 36.0369 39.01 35.5693 40.1885 35.5693C40.7722 35.5689 41.3502 35.6832 41.8896 35.9062C42.4291 36.1293 42.9191 36.4565 43.332 36.8691C43.745 37.2817 44.0723 37.7713 44.2959 38.3105C44.5195 38.8498 44.6346 39.428 44.6348 40.0117C44.6346 40.5955 44.5195 41.1736 44.2959 41.7129C44.0723 42.2522 43.745 42.7426 43.332 43.1553C42.9191 43.568 42.4291 43.895 41.8896 44.1182C41.3502 44.3414 40.7723 44.4563 40.1885 44.4561C39.0099 44.4558 37.8793 43.9877 37.0459 43.1543C36.2125 42.3209 35.7444 41.1903 35.7441 40.0117ZM13.4238 39.7568L4.00293 30.3359C2.89201 29.2252 2.01042 27.9064 1.40918 26.4551C0.807942 25.0038 0.499023 23.4489 0.499023 21.8779C0.499023 20.307 0.807942 18.7511 1.40918 17.2998C2.01042 15.8485 2.89201 14.5297 4.00293 13.4189L13.4238 4.00586C14.5341 2.89482 15.8527 2.01344 17.3037 1.41211C18.7547 0.810777 20.3102 0.500977 21.8809 0.500977C23.4515 0.500977 25.006 0.810777 26.457 1.41211C27.908 2.01344 29.2267 2.89482 30.3369 4.00586L39.7539 13.4189C40.8649 14.5296 41.7463 15.8485 42.3477 17.2998C42.949 18.7511 43.2588 20.307 43.2588 21.8779C43.2588 23.4489 42.949 25.0037 42.3477 26.4551C41.7463 27.9064 40.8649 29.2253 39.7539 30.3359L30.3369 39.7568C29.2272 40.8687 27.9085 41.7509 26.457 42.3516C25.0055 42.9522 23.4498 43.2595 21.8789 43.2568C20.3084 43.2603 18.7529 42.9532 17.3018 42.3525C15.8506 41.7518 14.5324 40.8693 13.4238 39.7568ZM13.0361 13.0352C11.8704 14.194 10.9463 15.5722 10.3174 17.0908C9.68843 18.6095 9.36709 20.2381 9.37207 21.8818C9.36756 23.5249 9.68942 25.153 10.3184 26.6709C10.9473 28.1888 11.8709 29.5662 13.0361 30.7246C14.1948 31.8892 15.5729 32.8132 17.0908 33.4414C18.6087 34.0697 20.2361 34.3899 21.8789 34.3848C23.5217 34.3898 25.1491 34.0687 26.667 33.4404C28.1849 32.8122 29.563 31.8891 30.7217 30.7246C33.0635 28.3775 34.3789 25.1975 34.3789 21.8818C34.3789 18.5662 33.0635 15.3862 30.7217 13.0391C29.5627 11.8732 28.1846 10.9489 26.666 10.3193C25.1474 9.68973 23.5189 9.3673 21.875 9.37109C20.2327 9.36794 18.606 9.69046 17.0889 10.3193C15.5718 10.9482 14.1945 11.871 13.0361 13.0352ZM17.5674 26.2012C16.9979 25.6366 16.5459 24.9642 16.2383 24.2236C15.9307 23.4831 15.7735 22.6886 15.7754 21.8867C15.773 21.084 15.9297 20.2893 16.2373 19.5479C16.5449 18.8064 16.9974 18.1336 17.5674 17.5684C18.1319 16.9988 18.8041 16.5472 19.5449 16.2402C20.2858 15.9332 21.0799 15.7769 21.8818 15.7803C22.6842 15.7772 23.4794 15.9333 24.2207 16.2402C24.962 16.5472 25.6349 16.999 26.2002 17.5684C26.7698 18.1337 27.2214 18.8064 27.5283 19.5479C27.8353 20.2893 27.9916 21.0842 27.9883 21.8867C27.9911 22.6884 27.8343 23.483 27.5273 24.2236C27.2204 24.9642 26.7693 25.6365 26.2002 26.2012C25.6347 26.7706 24.9619 27.2217 24.2207 27.5293C23.4795 27.8369 22.6843 27.9948 21.8818 27.9932C21.0791 27.9957 20.2844 27.8389 19.543 27.5312C18.8015 27.2236 18.1286 26.7713 17.5635 26.2012H17.5674Z" fill="url(#paint0_linear)"/>
<path d="M76.872 13.2V26.832H83.28V30H73.56V13.2H76.872ZM92.8204 24.48V18H95.9164V30H92.8204V28.656C92.0844 29.776 90.8924 30.336 89.2444 30.336C87.9324 30.336 86.8444 29.896 85.9804 29.016C85.1324 28.12 84.7084 26.904 84.7084 25.368V18H87.8044V24.984C87.8044 25.768 88.0124 26.376 88.4284 26.808C88.8604 27.24 89.4444 27.456 90.1804 27.456C90.9964 27.456 91.6364 27.208 92.1004 26.712C92.5804 26.2 92.8204 25.456 92.8204 24.48ZM112.024 17.664C113.4 17.664 114.496 18.112 115.312 19.008C116.144 19.904 116.56 21.104 116.56 22.608V30H113.464V22.824C113.464 22.104 113.288 21.544 112.936 21.144C112.584 20.744 112.088 20.544 111.448 20.544C110.744 20.544 110.192 20.776 109.792 21.24C109.408 21.704 109.216 22.376 109.216 23.256V30H106.12V22.824C106.12 22.104 105.944 21.544 105.592 21.144C105.24 20.744 104.744 20.544 104.104 20.544C103.416 20.544 102.864 20.784 102.448 21.264C102.048 21.728 101.848 22.392 101.848 23.256V30H98.7519V18H101.848V19.272C102.568 18.2 103.68 17.664 105.184 17.664C106.672 17.664 107.76 18.24 108.448 19.392C109.232 18.24 110.424 17.664 112.024 17.664ZM120.725 16.56C120.213 16.56 119.765 16.376 119.381 16.008C119.013 15.624 118.829 15.176 118.829 14.664C118.829 14.152 119.013 13.704 119.381 13.32C119.765 12.936 120.213 12.744 120.725 12.744C121.253 12.744 121.701 12.936 122.069 13.32C122.453 13.704 122.645 14.152 122.645 14.664C122.645 15.176 122.453 15.624 122.069 16.008C121.701 16.376 121.253 16.56 120.725 16.56ZM122.285 30H119.189V18H122.285V30ZM128.959 28.272C128.959 28.832 128.759 29.312 128.359 29.712C127.959 30.112 127.479 30.312 126.919 30.312C126.359 30.312 125.879 30.112 125.479 29.712C125.079 29.312 124.879 28.832 124.879 28.272C124.879 27.712 125.079 27.232 125.479 26.832C125.879 26.432 126.359 26.232 126.919 26.232C127.479 26.232 127.959 26.432 128.359 26.832C128.759 27.232 128.959 27.712 128.959 28.272ZM133.077 16.56C132.565 16.56 132.117 16.376 131.733 16.008C131.365 15.624 131.181 15.176 131.181 14.664C131.181 14.152 131.365 13.704 131.733 13.32C132.117 12.936 132.565 12.744 133.077 12.744C133.605 12.744 134.053 12.936 134.421 13.32C134.805 13.704 134.997 14.152 134.997 14.664C134.997 15.176 134.805 15.624 134.421 16.008C134.053 16.376 133.605 16.56 133.077 16.56ZM134.637 30H131.541V18H134.637V30ZM147.695 28.512C146.479 29.728 144.975 30.336 143.183 30.336C141.391 30.336 139.887 29.728 138.671 28.512C137.455 27.296 136.847 25.792 136.847 24C136.847 22.224 137.455 20.728 138.671 19.512C139.903 18.28 141.407 17.664 143.183 17.664C144.959 17.664 146.463 18.28 147.695 19.512C148.927 20.744 149.543 22.24 149.543 24C149.543 25.776 148.927 27.28 147.695 28.512ZM140.855 26.376C141.479 27 142.255 27.312 143.183 27.312C144.111 27.312 144.887 27 145.511 26.376C146.135 25.752 146.447 24.96 146.447 24C146.447 23.04 146.135 22.248 145.511 21.624C144.887 21 144.111 20.688 143.183 20.688C142.255 20.688 141.479 21 140.855 21.624C140.247 22.264 139.943 23.056 139.943 24C139.943 24.944 140.247 25.736 140.855 26.376Z" fill="url(#paint1_linear)"/>
</g>
<defs>
<linearGradient id="paint0_linear" x1="179.195" y1="22.4785" x2="0.499023" y2="22.4785" gradientUnits="userSpaceOnUse">
<stop stop-color="#3D3BEE"/>
<stop offset="1" stop-color="#3B6DEE"/>
</linearGradient>
<linearGradient id="paint1_linear" x1="72" y1="11.5" x2="151" y2="38" gradientUnits="userSpaceOnUse">
<stop stop-color="#788CFA"/>
<stop offset="1" stop-color="#3D67FD"/>
</linearGradient>
<clipPath id="clip0">
<rect width="179.695" height="44.955" fill="white"/>
</clipPath>
</defs>
</svg>
