<svg viewBox="0 0 500 500" xmlns="http://www.w3.org/2000/svg" xmlns:xlink="http://www.w3.org/1999/xlink"><clipPath id="a"><path d="m86.28 404.22v22.52a4.84 4.84 0 0 0 2.62 4.26l36.2 18.69a4.81 4.81 0 0 0 4.19.12l53.33-20.33a4.84 4.84 0 0 0 2.86-4.41v-27.22l-61 18.43z"/></clipPath><clipPath id="b"><path d="m142 366.2-58.5 18.8a2.26 2.26 0 0 0 -1.57 2.16v16.68a2.27 2.27 0 0 0 1.29 2l40.78 19.41a2.27 2.27 0 0 0 1.77.08l61.23-22.91a2.27 2.27 0 0 0 1.48-2.12l.11-15.65a2.29 2.29 0 0 0 -1.79-2.22l-43.64-16.29a2.36 2.36 0 0 0 -1.16.06z"/></clipPath><clipPath id="c"><path d="m97.34 290.27s-2.34 13.73-.67 20.45a28.62 28.62 0 0 0 4.69 10.39s-8.38 12.4-6.7 22.78 6 11.73 6 11.73-3.68 19.11 3 25.81 21.45 14.07 37.87 11.06 27.48-3.69 30.83-9.39 1.34-30.83 1.34-30.83-.67-27.81-1.34-44.91-3-30.83-11.06-37.53-43.57 3.69-54.29 10.72-9.67 9.72-9.67 9.72z"/></clipPath><clipPath id="d"><path d="m167.38 273.85s-6.36-9.72-15.08-15.08-31.16-9.38-40.21-11.06-18.77-1-21.45 9-2.35 26.81.33 34.18 13.74 11.73 22.46 6.71 32.84-24.47 41.22-25.47 12.06 5.41 12.73 1.72z"/></clipPath><clipPath id="e"><path d="m153.31 273.85c7.37-2.68 16.76-1 20.11 8.38s6.36 36.86 6.36 36.86 8.38 1 11.73 4.7 5 13.07 4.36 17.76-12.4 13.4-25.8 13.74-23.13-6-27.82-23.13-2.83-43.16-2.83-43.16 1.7-7.67 4.26-9.38"/></clipPath><path d="m44.31 258.15s2.35 73 63.27 121.6 145.32 52.12 213.65 56.74 120.77-34.06 128.77-92.49-44.3-75.63-72.63-142.2-25.81-88.44-85.75-129.38-153.76-15.85-202.92 54.29-44.39 131.44-44.39 131.44z" fill="#92e3a9"/><path d="m44.31 258.15s2.35 73 63.27 121.6 145.32 52.12 213.65 56.74 120.77-34.06 128.77-92.49-44.3-75.63-72.63-142.2-25.81-88.44-85.75-129.38-153.76-15.85-202.92 54.29-44.39 131.44-44.39 131.44z" fill="#fff" opacity=".7"/><ellipse cx="341.49" cy="385.79" fill="#263238" rx="72.2" ry="21.42" stroke="#263238" stroke-linecap="round" stroke-linejoin="round" stroke-width="1.193003"/><path d="m341.49 374.22c34.15 0 62.75 7 70.26 16.49a8 8 0 0 0 1.94-4.92c0-11.84-32.33-21.43-72.2-21.43s-72.21 9.59-72.21 21.43a8 8 0 0 0 1.94 4.92c7.51-9.45 36.11-16.49 70.27-16.49z" fill="#fff" stroke="#263238" stroke-linecap="round" stroke-linejoin="round" stroke-width="1.193003"/><path d="m331.63 404.52c-24.12-1.09-42.32-6-42.32-12a3.33 3.33 0 0 1 .59-1.83" fill="none" stroke="#fff" stroke-linecap="round" stroke-linejoin="round" stroke-width="1.193003"/><path d="m387.6 386.68c4.13 1.75 6.49 3.75 6.49 5.88 0 6.73-23.46 12.18-52.39 12.18h-1.25" fill="none" stroke="#fff" stroke-linecap="round" stroke-linejoin="round" stroke-width="1.193003"/><path d="m296.36 386.45c9.07-3.63 26-6.08 45.34-6.08a184.43 184.43 0 0 1 32.84 2.69" fill="none" stroke="#fff" stroke-linecap="round" stroke-linejoin="round" stroke-width="1.193003"/><path d="m330.94 396.74c-6.11-.85-10.2-2.4-10.2-4.18 0-2.69 9.39-4.87 21-4.87s20.95 2.18 20.95 4.87c0 2.31-6.9 4.24-16.16 4.74" fill="none" stroke="#fff" stroke-linecap="round" stroke-linejoin="round" stroke-width="1.193003"/><path d="m51.52 299.68c31.49-8.95 97.75-26.61 134.32-27.94 49.16-1.74 132.16 33.94 183.98 40.19s86.64 4.47 86.64 4.47" fill="none" stroke="#263238" stroke-linecap="round" stroke-linejoin="round" stroke-width="1.193003"/><path d="m34 304.79s2.72-.83 7.49-2.22" fill="none" stroke="#263238" stroke-linecap="round" stroke-linejoin="round" stroke-width="1.193003"/><path d="m442.47 249.12a228.34 228.34 0 0 0 -55.3-5.23c-38.42 1.29-80 6.37-131.41 13s-124.62-30-174.4-16.41-46 17.68-46 17.68" fill="none" stroke="#263238" stroke-linecap="round" stroke-linejoin="round" stroke-width="1.193003"/><path d="m456.63 252.8s-1.94-.64-5.45-1.57" fill="none" stroke="#263238" stroke-linecap="round" stroke-linejoin="round" stroke-width="1.193003"/><path d="m364.45 158.35a10.35 10.35 0 0 0 -20.1 0z" fill="none" stroke="#263238" stroke-linecap="round" stroke-linejoin="round" stroke-width="1.193003"/><path d="m466 158.35a12.81 12.81 0 0 0 -11-9.77 30 30 0 0 0 -29.58-35.58 30.08 30.08 0 0 0 -29.61 24.79 19.22 19.22 0 0 0 -31.06 15.16 19.41 19.41 0 0 0 .79 5.42z" fill="none" stroke="#263238" stroke-linecap="round" stroke-linejoin="round" stroke-width="1.193003"/><path d="m185.57 182.49a5.25 5.25 0 0 0 -10.21 0z" fill="none" stroke="#263238" stroke-linecap="round" stroke-linejoin="round" stroke-width="1.193003"/><path d="m237.12 182.49a6.52 6.52 0 0 0 -5.59-5 15.27 15.27 0 1 0 -30-5.48 9.76 9.76 0 0 0 -15.77 7.69 10.06 10.06 0 0 0 .4 2.76z" fill="none" stroke="#263238" stroke-linecap="round" stroke-linejoin="round" stroke-width="1.193003"/><path d="m231.93 198.63a3.31 3.31 0 0 0 -6.44 0z" fill="none" stroke="#263238" stroke-linecap="round" stroke-linejoin="round" stroke-width="1.193003"/><path d="m264.47 198.63a4.1 4.1 0 0 0 -3.53-3.13 9.48 9.48 0 0 0 .16-1.77 9.64 9.64 0 0 0 -19.1-1.73 6.16 6.16 0 0 0 -9.95 4.86 6.25 6.25 0 0 0 .25 1.74z" fill="none" stroke="#263238" stroke-linecap="round" stroke-linejoin="round" stroke-width="1.193003"/><path d="m162.65 313.83a1.89 1.89 0 0 1 -1-.27 2 2 0 0 1 -.7-2.67c.49-.86 124.13-135.69 180.7-185.13a1 1 0 0 1 1.36.1 1 1 0 0 1 -.1 1.38c-56.29 49.23-178.1 184.76-178.59 185.61a1.92 1.92 0 0 1 -1.67.98z" fill="#263238"/><path d="m169.48 287s6.13-6.54 9.81-6.54 10.63 6.13 10.22 9.4-6.54.41-6.54.41-5.73 7.77-11.45 6.54-2.04-9.81-2.04-9.81z" fill="#92e3a9" stroke="#263238" stroke-linecap="round" stroke-linejoin="round" stroke-width="1.193003"/><path d="m183 290.25s3.75 2.6 4.08 4.43-4.16 7-9.15 8.16-7.66-1.67-6.16-4.33 7.45-8.02 11.23-8.26z" fill="#92e3a9" stroke="#263238" stroke-linecap="round" stroke-linejoin="round" stroke-width="1.193003"/><path d="m337 266.56v-135.29s-2.73 9.79-2.73 10.5" fill="none" stroke="#263238" stroke-linecap="round" stroke-linejoin="round" stroke-width="1.193003"/><path d="m289.68 273.69h103.74v83.12h-103.74z" fill="#92e3a9" stroke="#263238" stroke-linecap="round" stroke-linejoin="round" stroke-width="1.193003"/><path d="m338.48 273.34v-4.76a1.19 1.19 0 0 0 -2.38 0v4.76z" fill="#263238"/><path d="m348 261.76v.24a1.15 1.15 0 0 0 -1-.61 1.2 1.2 0 0 0 -1.2 1.2v12.71a3.67 3.67 0 0 1 -3.66 3.67 3.57 3.57 0 0 1 -1.46-.31 2 2 0 0 0 .3 2.58 6.34 6.34 0 0 0 1.16.11 6.05 6.05 0 0 0 6.05-6.05v-5.89h2.74z" fill="#263238"/><path d="m337.1 130s2.12-7.53.24-6.83-.24 6.83-.24 6.83z" fill="none" stroke="#263238" stroke-linecap="round" stroke-linejoin="round" stroke-width="1.193003"/><path d="m337.1 130s-8-2.83-7.29-.24 7.29.24 7.29.24z" fill="none" stroke="#263238" stroke-linecap="round" stroke-linejoin="round" stroke-width="1.193003"/><path d="m164.59 195.63s-9.87-5.53-29.23-2.76-23.05 18.73-19.89 35.32 21.47 30.64 24.24 29.46-.79-38.32 5.53-45.43 26.86-5.92 28-11.45-8.65-5.14-8.65-5.14z" fill="#263238" stroke="#263238" stroke-linecap="round" stroke-linejoin="round" stroke-width="1.193003"/><path d="m130.18 205.48 2 13.07s-12.4 33.85-10.39 38.55 20.77 6.36 20.77 6.36 30.5 3.69 39.55 0 4.36-14.41 3.35-17.42-6.7-27.15-6.7-27.15 2-5.7 2-8.71-.34-11.4-1.68-13.41-24.8-4.36-35.19-2.68-15.05 4.36-13.71 11.39z" fill="#757575" stroke="#263238" stroke-linecap="round" stroke-linejoin="round" stroke-width="1.193003"/><path d="m135.55 220.57s-.34 29.15 1.34 34.85 8.38 12.4 22.45 10.72 15.42-15.08 15.42-15.08l-1-31.16z" fill="#fff" stroke="#263238" stroke-linecap="round" stroke-linejoin="round" stroke-width="1.193003"/><path d="m159.68 241.51a2.52 2.52 0 1 1 -2.52-2.51 2.51 2.51 0 0 1 2.52 2.51z" fill="none" stroke="#263238" stroke-miterlimit="10" stroke-width="1.193003"/><path d="m159.34 252.07a1.68 1.68 0 1 1 -1.67-1.68 1.67 1.67 0 0 1 1.67 1.68z" fill="#263238"/><path d="m149.22 230.76c1.07 1.16 1.44 2.55.84 3.12s-2 .09-3.05-1.06-1.45-2.54-.84-3.11 1.98-.1 3.05 1.05z" fill="#263238"/><path d="m162.83 230.76c-1.07 1.16-1.45 2.55-.84 3.12s2 .09 3-1.06 1.45-2.54.84-3.11-1.93-.1-3 1.05z" fill="#263238"/><path d="m142.06 226.81a6.4 6.4 0 0 1 7-2.58" fill="none" stroke="#263238" stroke-linecap="round" stroke-linejoin="round" stroke-width="1.193003"/><path d="m162.3 224.6s4.78-1.47 6.26 2.58" fill="none" stroke="#263238" stroke-linecap="round" stroke-linejoin="round" stroke-width="1.193003"/><path d="m178.44 411.62s5.27-3.16 8.19-4.4a8 8 0 0 1 .84-.33c2.58-.86 9.89-.43 16.76-4.73s3.44-9.46-1.72-10.75-10.74-3-10.74-3l-1.29-20.21s-15.48 4.3-20.64 6.45-2.15 32.67-1.72 35.25.43 4.3 10.32 1.72z" fill="#263238" stroke="#263238" stroke-linecap="round" stroke-linejoin="round" stroke-width="1.193003"/><path d="m195.64 402.16c-9 1.72-9 3.44-18.92 5.16a38.38 38.38 0 0 1 -8.83.72c.1.92.18 1.57.23 1.86.43 2.58.43 4.3 10.32 1.72 0 0 5.27-3.16 8.19-4.4a8 8 0 0 1 .84-.33c2.58-.86 9.89-.43 16.76-4.73 2.21-1.37 3.34-2.84 3.71-4.24a51.56 51.56 0 0 1 -12.3 4.24z" fill="#fff" stroke="#263238" stroke-linecap="round" stroke-linejoin="round" stroke-width="1.193003"/><path d="m199.22 391.15s-.33 23.46-1 28.48.33 11.4 8 11.4 22.79-5 28.15-6 14.08-3.36 17.76-11.73-18.76-7.38-18.76-7.38l1.34-17.09s-23.09 4.66-35.49 2.32z" fill="#263238" stroke="#263238" stroke-linecap="round" stroke-linejoin="round" stroke-width="1.193003"/><path d="m252.17 413.27a3.74 3.74 0 0 0 .28-2.63 21 21 0 0 1 -9 7c-8 3.35-23.13 7-34.52 8.72-5.21.76-8.51-.09-10.58-1.23.74 3.25 2.91 5.92 7.9 5.92 7.71 0 22.79-5 28.15-6s14.09-3.41 17.77-11.78z" fill="#fff" stroke="#263238" stroke-linecap="round" stroke-linejoin="round" stroke-width="1.193003"/><path d="m233.41 405.89s1.67 5.7-3 9.39" fill="none" stroke="#fff" stroke-linecap="round" stroke-linejoin="round" stroke-width="1.193003"/><path d="m196.88 378.75s-.52 10.19.05 12.23c2.14 7.74 2.82 5.93 18.91 5.59s22.59-6.76 24.27-10.78 0-12.74-.67-15.76-6-4-8.05-3.68-33.51 9.05-34.51 12.4z" fill="#757575" stroke="#263238" stroke-linecap="round" stroke-linejoin="round" stroke-width="1.193003"/><path d="m86.28 404.22v22.52a4.84 4.84 0 0 0 2.62 4.26l36.2 18.69a4.81 4.81 0 0 0 4.19.12l53.33-20.33a4.84 4.84 0 0 0 2.86-4.41v-27.22l-61 18.43z" fill="#92e3a9"/><g clip-path="url(#a)"><path d="m127.17 415.47-2.68.81-38.21-12.06v22.52a4.84 4.84 0 0 0 2.62 4.26l36.2 18.69a4.76 4.76 0 0 0 2.07.54z" opacity=".18"/></g><path d="m86.28 404.22v22.52a4.84 4.84 0 0 0 2.62 4.26l36.2 18.69a4.81 4.81 0 0 0 4.19.12l53.33-20.33a4.84 4.84 0 0 0 2.86-4.41v-27.22l-61 18.43z" fill="none" stroke="#263238" stroke-linecap="round" stroke-linejoin="round" stroke-width="1.193003"/><path d="m142 366.2-58.5 18.8a2.26 2.26 0 0 0 -1.57 2.16v16.68a2.27 2.27 0 0 0 1.29 2l40.78 19.41a2.27 2.27 0 0 0 1.77.08l61.23-22.91a2.27 2.27 0 0 0 1.48-2.12l.11-15.65a2.29 2.29 0 0 0 -1.79-2.22l-43.64-16.29a2.36 2.36 0 0 0 -1.16.06z" fill="#fff"/><g clip-path="url(#b)"><path d="m123.93 425.24a2.27 2.27 0 0 0 1.77.08l61.3-22.9a2.27 2.27 0 0 0 1.48-2.12l.11-15.65a2.2 2.2 0 0 0 -.54-1.45l-63.25 23.36z" fill="#92e3a9"/><path d="m123.93 425.24a2.27 2.27 0 0 0 1.77.08l61.3-22.9a2.27 2.27 0 0 0 1.48-2.12l.11-15.65a2.2 2.2 0 0 0 -.54-1.45l-63.25 23.36z" fill="#fff" opacity=".5"/><path d="m81.93 387.11v16.68a2.27 2.27 0 0 0 1.29 2l40.78 19.46a2.24 2.24 0 0 0 .87.22v-18.91l-42.87-19.84a1.67 1.67 0 0 0 -.07.39z" fill="#92e3a9"/></g><path d="m142 366.2-58.5 18.8a2.26 2.26 0 0 0 -1.57 2.16v16.68a2.27 2.27 0 0 0 1.29 2l40.78 19.41a2.27 2.27 0 0 0 1.77.08l61.23-22.91a2.27 2.27 0 0 0 1.48-2.12l.11-15.65a2.29 2.29 0 0 0 -1.79-2.22l-43.64-16.29a2.36 2.36 0 0 0 -1.16.06z" fill="none" stroke="#263238" stroke-linecap="round" stroke-linejoin="round" stroke-width="1.193003"/><path d="m222.35 335.52s7.7 3.68 11.73 11.06 1 21.44-1.35 25.8-18.09 6.37-23.45 6.37-6.37-.67-6.37-.67-17.09 3.35-27.82 5.36-8-23.12-4.69-34.52 22.12-17.09 29.83-17.09 22.12 3.69 22.12 3.69z" fill="#263238" stroke="#263238" stroke-linecap="round" stroke-linejoin="round" stroke-width="1.193003"/><path d="m202.91 378.08s14.41-5 20.44-17.76" fill="none" stroke="#fff" stroke-linecap="round" stroke-linejoin="round" stroke-width="1.193003"/><path d="m216.65 370.7a38.27 38.27 0 0 0 12.4-8.37" fill="none" stroke="#fff" stroke-linecap="round" stroke-linejoin="round" stroke-width="1.193003"/><path d="m182.8 346.58s4 21.11 2 29.82-13.74 10.06-16.42 9.05-1.34-21.78-1.34-32.17 10.4-9.72 15.76-6.7z" fill="#757575" stroke="#263238" stroke-linecap="round" stroke-linejoin="round" stroke-width="1.193003"/><path d="m97.34 290.27s-2.34 13.73-.67 20.45a28.62 28.62 0 0 0 4.69 10.39s-8.38 12.4-6.7 22.78 6 11.73 6 11.73-3.68 19.11 3 25.81 21.45 14.07 37.87 11.06 27.48-3.69 30.83-9.39 1.34-30.83 1.34-30.83-.67-27.81-1.34-44.91-3-30.83-11.06-37.53-43.57 3.69-54.29 10.72-9.67 9.72-9.67 9.72z" fill="#92e3a9"/><g clip-path="url(#c)"><path d="m99.73 290.27s-2.35 13.74-.67 20.45a28.43 28.43 0 0 0 4.69 10.39s-8.38 12.4-6.7 22.78 6 11.73 6 11.73-3.69 19.11 3 25.81 21.49 14.07 37.95 11.06 27.49-3.69 30.84-9.39 1.34-30.83 1.34-30.83-.67-27.81-1.34-44.91-3-30.83-11.06-37.53-43.57 3.69-54.29 10.72-9.76 9.72-9.76 9.72z" opacity=".3"/></g><path d="m97.34 290.27s-2.34 13.73-.67 20.45a28.62 28.62 0 0 0 4.69 10.39s-8.38 12.4-6.7 22.78 6 11.73 6 11.73-3.68 19.11 3 25.81 21.45 14.07 37.87 11.06 27.48-3.69 30.83-9.39 1.34-30.83 1.34-30.83-.67-27.81-1.34-44.91-3-30.83-11.06-37.53-43.57 3.69-54.29 10.72-9.67 9.72-9.67 9.72z" fill="none" stroke="#263238" stroke-linecap="round" stroke-linejoin="round" stroke-width="1.193003"/><path d="m101.36 321.11a40.77 40.77 0 0 0 35.86 5" fill="none" stroke="#263238" stroke-linecap="round" stroke-linejoin="round" stroke-width="1.193003"/><path d="m100.69 355.62s17.09 16.76 45.25.67" fill="none" stroke="#263238" stroke-linecap="round" stroke-linejoin="round" stroke-width="1.193003"/><path d="m167.38 273.85s-6.36-9.72-15.08-15.08-31.16-9.38-40.21-11.06-18.77-1-21.45 9-2.35 26.81.33 34.18 13.74 11.73 22.46 6.71 32.84-24.47 41.22-25.47 12.06 5.41 12.73 1.72z" fill="#757575"/><g clip-path="url(#d)"><path d="m148.79 272c5.11-2.13-7.67 1.7-8.52.42s8.94-7.66 11.07-8.51-12.35 2.13-11.92 0 14.05-2.56 4.68-4.69-40-7.67-46-9.8a4.94 4.94 0 0 1 -1.29-.64 11.92 11.92 0 0 0 -6.17 8c-2.68 10.05-2.35 26.81.33 34.18 2.34 6.42 11 10.55 19 8.2 3.69-3 7.1-6.94 12.87-10.57 11.47-7.26 20.84-14.5 25.95-16.59z" opacity=".3"/></g><path d="m167.38 273.85s-6.36-9.72-15.08-15.08-31.16-9.38-40.21-11.06-18.77-1-21.45 9-2.35 26.81.33 34.18 13.74 11.73 22.46 6.71 32.84-24.47 41.22-25.47 12.06 5.41 12.73 1.72z" fill="none" stroke="#263238" stroke-linecap="round" stroke-linejoin="round" stroke-width="1.193003"/><path d="m203.58 319.43s7.71 1 12.73 3 8.38 14.41 6.37 16.08-6-.33-6-.33a49.07 49.07 0 0 1 -9.72 2.34c-4.05.36-8.41-18.74-3.38-21.09z" fill="#92e3a9" stroke="#263238" stroke-linecap="round" stroke-linejoin="round" stroke-width="1.193003"/><path d="m178.11 318.42s1.34 0 8.71-3.35 13.41-3.35 18.1 4 6.7 16.43 4 21.79-12.73 9.05-18.1 9.05-6-7-6-7-.67-11.06-4-15.08-4.05-8.4-2.71-9.41z" fill="#757575" stroke="#263238" stroke-linecap="round" stroke-linejoin="round" stroke-width="1.193003"/><path d="m153.31 273.85c7.37-2.68 16.76-1 20.11 8.38s6.36 36.86 6.36 36.86 8.38 1 11.73 4.7 5 13.07 4.36 17.76-12.4 13.4-25.8 13.74-23.13-6-27.82-23.13-2.83-43.16-2.83-43.16 1.7-7.67 4.26-9.38" fill="#92e3a9"/><g clip-path="url(#e)"><path d="m195.87 341.55c.67-4.69-1-14.08-4.36-17.76-.13-.15-.29-.29-.43-.43a85.25 85.25 0 0 1 .72 9.08c.67 19.67-26.82 16.38-32.36 2.13-3-7.67-3.84-41.32-12.78-43.87-5.16-1.47-6.92 2.57-7.48 6.26-.18 9.65.14 24.52 3.07 35.2 4.69 17.1 14.41 23.46 27.82 23.13s25.13-9.05 25.8-13.74z" opacity=".3"/></g><path d="m153.31 273.85c7.37-2.68 16.76-1 20.11 8.38s6.36 36.86 6.36 36.86 8.38 1 11.73 4.7 5 13.07 4.36 17.76-12.4 13.4-25.8 13.74-23.13-6-27.82-23.13-2.83-43.16-2.83-43.16 1.7-7.67 4.26-9.38" fill="none" stroke="#263238" stroke-linecap="round" stroke-linejoin="round" stroke-width="1.193003"/><path d="m179.78 319.09s2.62 12.21-10.84 18.91" fill="none" stroke="#263238" stroke-linecap="round" stroke-linejoin="round" stroke-width="1.193003"/><g fill="#263238"><path d="m113.1 106.25c0-2.78 1.28-4.83 4.17-4.83s4.23 2 4.23 4.83v9.75c0 2.78-1.29 4.83-4.23 4.83s-4.17-2-4.17-4.83zm1.25 9.84c0 2.08.82 3.6 2.92 3.6s3-1.52 3-3.6v-9.92c0-2.07-.84-3.6-3-3.6s-2.92 1.53-2.92 3.6z"/><path d="m123.49 106.25c0-2.78 1.28-4.83 4.17-4.83s4.23 2 4.23 4.83v9.75c0 2.78-1.28 4.83-4.23 4.83s-4.17-2-4.17-4.83zm1.25 9.84c0 2.08.82 3.6 2.92 3.6s3-1.52 3-3.6v-9.92c0-2.07-.84-3.6-3-3.6s-2.92 1.53-2.92 3.6z"/><path d="m137.92 101.59c2.94 0 4.09 1.85 4.09 4.63v2.08c0 3-1.4 4.52-4.42 4.52h-2.37v7.86h-1.22v-19.09zm-.33 10.09c2.21 0 3.16-1 3.16-3.3v-2.24c0-2.07-.71-3.41-2.83-3.41h-2.7v9z"/><path d="m151.93 106.2v.4h-1.2v-.49c0-2-.76-3.54-2.83-3.54s-2.84 1.5-2.84 3.52c0 4.63 6.9 4.71 6.9 10 0 2.75-1.2 4.77-4.12 4.77s-4.11-2-4.11-4.77v-1h1.2v1.06c0 2 .79 3.52 2.89 3.52s2.89-1.48 2.89-3.52c0-4.58-6.9-4.66-6.9-10 0-2.86 1.25-4.72 4.06-4.75s4.06 2.04 4.06 4.8z"/><path d="m155.07 118.28v2.4h-1.22v-2.4z"/><path d="m158.48 118.28v2.4h-1.22v-2.4z"/><path d="m161.89 118.28v2.4h-1.23v-2.4z"/><path d="m117.13 129.36c3 0 4.09 1.85 4.09 4.64v2.07c0 3-1.39 4.53-4.41 4.53h-2.38v7.85h-1.25v-19.09zm-.32 10.09c2.2 0 3.16-1 3.16-3.3v-2.24c0-2.07-.71-3.4-2.84-3.4h-2.7v8.94z"/><path d="m124.58 144.22-1 4.23h-1.15l4.17-19.12h1.83l4.25 19.12h-1.25l-1-4.23zm.19-1.09h5.56l-2.81-12.35z"/><path d="m142.77 134v1.42h-1.2v-1.5c0-2-.79-3.6-2.89-3.6s-2.89 1.56-2.89 3.6v9.93c0 2 .79 3.57 2.89 3.57s2.89-1.53 2.89-3.57v-4.12h-2.57v-1.14h3.73v5.18c0 2.75-1.2 4.82-4.12 4.82s-4.11-2.07-4.11-4.82v-9.77c0-2.75 1.2-4.82 4.11-4.82s4.16 2.09 4.16 4.82z"/><path d="m151.34 138.2v1.14h-5.21v8h6.27v1.15h-7.53v-19.13h7.53v1.15h-6.27v7.69z"/><path d="m159.82 148.45h-1.15v-19.09h1.64l5.69 16.12v-16.12h1.14v19.09h-1.39l-6-17z"/><path d="m169.26 134c0-2.78 1.28-4.82 4.17-4.82s4.23 2 4.23 4.82v9.77c0 2.78-1.29 4.82-4.23 4.82s-4.17-2-4.17-4.82zm1.25 9.85c0 2.07.82 3.6 2.92 3.6s3-1.53 3-3.6v-9.93c0-2.07-.84-3.6-3-3.6s-2.92 1.53-2.92 3.6z"/><path d="m183 148.45v-17.94h-3.87v-1.15h9v1.15h-3.9v17.94z"/><path d="m200.08 138.66v1.14h-4.94v8.65h-1.25v-19.09h7.25v1.15h-6v8.15z"/><path d="m203 134c0-2.78 1.28-4.82 4.17-4.82s4.23 2 4.23 4.82v9.77c0 2.78-1.28 4.82-4.23 4.82s-4.17-2-4.17-4.82zm1.25 9.85c0 2.07.82 3.6 2.92 3.6s3-1.53 3-3.6v-9.93c0-2.07-.84-3.6-3-3.6s-2.92 1.53-2.92 3.6z"/><path d="m214.64 143.84c0 2 .77 3.63 2.87 3.63s2.86-1.58 2.86-3.63v-14.48h1.17v14.43c0 2.72-1.14 4.82-4.06 4.82s-4.09-2.1-4.09-4.82v-14.43h1.25z"/><path d="m224.84 148.45h-1.14v-19.09h1.63l5.73 16.12v-16.12h1.15v19.09h-1.4l-6-17z"/><path d="m238.56 129.36c2.95 0 4.23 1.94 4.23 4.75v9.59c0 2.81-1.28 4.75-4.23 4.75h-4.2v-19.09zm0 17.94c2.13 0 3-1.44 3-3.54v-9.71c0-2.1-.9-3.54-3-3.54h-2.91v16.79z"/><path d="m302 325.13 13.61-32.13h8.15v32.13h3.53v6.79h-3.53v8.63h-7.34v-8.63h-14.42zm14.4 0v-17.86l-7.54 17.86z"/><path d="m330.08 304.41c0-7.6 4-12 11.34-12s11.34 4.35 11.34 12v24.72c0 7.61-4 12-11.34 12s-11.34-4.35-11.34-12zm7.47 25.2c0 3.4 1.49 4.69 3.87 4.69s3.87-1.29 3.87-4.69v-25.67c0-3.4-1.5-4.69-3.87-4.69s-3.87 1.29-3.87 4.69z"/><path d="m355.82 325.13 13.58-32.13h8.15v32.13h3.53v6.79h-3.53v8.63h-7.34v-8.63h-14.39zm14.39 0v-17.86l-7.53 17.86z"/></g></svg>