<svg width="80" height="80" viewBox="0 0 80 80" fill="none" xmlns="http://www.w3.org/2000/svg">
<path d="M80 40C80 62.06 62.056 80 40 80C17.944 80 0 62.06 0 40C0 17.944 17.944 0 40 0C62.056 0 80 17.944 80 40Z" fill="#F2F2F2"/>
<path d="M36.4825 50.5942C35.7094 50.5981 34.9362 50.3196 34.3402 49.747L26.6729 42.3729C25.489 41.2276 25.4769 39.3684 26.6487 38.2152C27.8206 37.0581 29.7334 37.0464 30.9213 38.1878L36.4382 43.4908L49.9084 30.2097C51.0842 29.0526 52.997 29.0409 54.181 30.1823C55.3689 31.3276 55.381 33.1907 54.2091 34.34L38.6128 49.7195C38.0248 50.3 37.2557 50.5903 36.4825 50.5942" fill="#66AD2B"/>
</svg>
