<svg width="245" height="232" viewBox="0 0 245 232" fill="none" xmlns="http://www.w3.org/2000/svg">
<path d="M227.628 129.245C224.794 114.295 215.636 103.375 203.715 94.5939C195.206 88.3214 188.297 80.1184 182.369 71.3824C174.088 59.1689 167.217 43.8874 153.827 36.3344C134.782 25.5964 116.472 40.2019 101.034 50.5044C92.9353 55.9124 84.2968 61.5544 74.4948 63.1144C60.5198 65.3504 46.3303 59.2144 32.4723 62.9064C29.7811 63.0282 27.1351 63.6429 24.6658 64.7199C24.6658 64.7199 7.11581 70.5699 1.91581 100.47C-3.28419 130.37 1.26581 175.22 25.9658 201.22C50.6658 227.22 70.1658 230.47 83.1658 231.12C83.5233 231.12 83.8743 231.12 84.2253 231.12C92.8508 232.42 103.075 231.77 114.775 228.52C152.397 218.068 150.304 194.031 183.747 188.805C217.189 183.579 233.374 159.548 227.628 129.245Z" fill="#F2F2F2"/>
<path opacity="0.7" d="M227.628 129.245C224.794 114.295 215.636 103.375 203.715 94.5939C195.206 88.3214 188.297 80.1184 182.369 71.3824C174.088 59.1689 167.217 43.8874 153.827 36.3344C134.782 25.5964 116.472 40.2019 101.034 50.5044C92.9353 55.9124 84.2968 61.5544 74.4948 63.1144C60.5198 65.3504 46.3303 59.2144 32.4723 62.9064C29.7811 63.0282 27.1351 63.6429 24.6658 64.7199C24.6658 64.7199 7.11581 70.5699 1.91581 100.47C-3.28419 130.37 1.26581 175.22 25.9658 201.22C50.6658 227.22 70.1658 230.47 83.1658 231.12C83.5233 231.12 83.8743 231.12 84.2253 231.12C92.8508 232.42 103.075 231.77 114.775 228.52C152.397 218.068 150.304 194.031 183.747 188.805C217.189 183.579 233.374 159.548 227.628 129.245Z" fill="white"/>
<path d="M105.995 12.4857C105.995 12.4857 108.972 10.1327 109.739 8.62467C110.389 7.32467 110.857 5.51767 110.187 4.15268C110.043 3.82348 109.83 3.5285 109.564 3.28702C109.298 3.04554 108.983 2.863 108.641 2.75134C108.3 2.63967 107.938 2.6014 107.581 2.63903C107.223 2.67665 106.878 2.78932 106.567 2.96968C104.727 4.11368 104.532 8.00068 105 9.87268C105.039 10.0547 105.962 12.5117 105.995 12.4857Z" fill="url(#paint0_linear)"/>
<path d="M78.4538 32.0834C78.5773 32.2004 80.7028 33.7409 80.7093 33.7019C80.7158 33.6629 81.8988 30.0944 81.7038 28.4174C81.5348 26.9874 80.9238 25.2064 79.6108 24.4394C79.3084 24.2464 78.9686 24.1193 78.6136 24.0667C78.2587 24.014 77.8966 24.0369 77.5512 24.1338C77.2057 24.2308 76.8846 24.3996 76.6089 24.6293C76.3332 24.8589 76.1091 25.1442 75.9513 25.4664C75.0478 27.4294 77.0303 30.7834 78.4538 32.0834Z" fill="url(#paint1_linear)"/>
<path d="M140.873 16.0479C140.873 16.0479 129.966 27.3059 130.025 41.1314C130.083 54.9568 141.075 66.1238 141.075 66.1238C141.075 66.1238 151.982 54.8658 151.923 41.0404C151.865 27.2149 140.873 16.0479 140.873 16.0479Z" fill="url(#paint2_linear)"/>
<path d="M125.325 49.419C125.466 49.2609 125.597 49.0937 125.715 48.9185C126.508 47.716 127.184 45.9675 126.677 44.531C126.57 44.1885 126.391 43.8725 126.153 43.6036C125.915 43.3348 125.623 43.1192 125.296 42.9707C124.97 42.8223 124.615 42.7445 124.256 42.7423C123.897 42.7401 123.542 42.8136 123.213 42.958C121.731 43.66 121.009 46.0325 120.853 47.976C120.262 47.8395 119.729 47.7355 119.267 47.6575C119.072 47.222 118.877 46.7735 118.676 46.3575C118.474 45.9415 118.312 45.4345 118.123 44.9665C117.863 44.2775 117.629 43.5495 117.389 42.828C118.253 42.438 120.769 41.268 121.705 40.228C122.641 39.188 123.603 37.5305 123.317 36.0355C123.262 35.6807 123.134 35.3414 122.939 35.0397C122.745 34.738 122.489 34.4806 122.189 34.2844C121.888 34.0881 121.55 33.9574 121.195 33.9007C120.841 33.8441 120.479 33.8627 120.132 33.9555C118.058 34.6055 116.843 38.2715 116.797 40.202C116.797 40.267 116.797 40.6765 116.875 41.1575C116.667 40.4425 116.453 39.734 116.271 39.006C115.738 36.9325 115.257 34.807 114.769 32.6815C114.672 32.233 114.561 31.7975 114.457 31.3815C115.185 31.063 117.915 29.815 118.897 28.7295C119.878 27.644 120.801 26.032 120.515 24.537C120.46 24.182 120.331 23.8426 120.136 23.5408C119.941 23.2391 119.684 22.9818 119.383 22.7856C119.082 22.5895 118.743 22.4588 118.389 22.4022C118.034 22.3456 117.671 22.3642 117.324 22.457C115.257 23.107 114.041 26.773 113.996 28.7035C113.996 28.7685 114.035 29.256 114.087 29.802C113.801 28.6515 113.508 27.5075 113.183 26.3765C112.631 24.4391 111.95 22.5411 111.142 20.6955C111.402 20.585 114.633 19.1875 115.725 17.9785C116.693 16.9125 117.623 15.281 117.337 13.786C117.282 13.4312 117.154 13.0919 116.959 12.7902C116.765 12.4885 116.509 12.2311 116.209 12.0349C115.908 11.8386 115.57 11.7079 115.215 11.6513C114.861 11.5946 114.499 11.6132 114.152 11.706C112.085 12.356 110.863 16.022 110.824 17.9525C110.824 18.089 110.98 19.8505 111.058 20.481V20.416C110.224 18.6203 109.23 16.9038 108.087 15.2875C107.086 13.8364 106.001 12.4452 104.837 11.121C103.765 9.88596 102.705 8.81346 101.763 7.87096C101.243 7.37046 100.762 6.91546 100.313 6.49946H100.359C100.398 6.49946 99.3449 4.08796 99.2604 3.94496C98.2984 2.27446 95.4449 -0.377541 93.3324 0.0449594C92.9841 0.131733 92.658 0.29073 92.3752 0.511641C92.0923 0.732552 91.8591 1.01044 91.6905 1.3273C91.522 1.64415 91.4219 1.99288 91.3969 2.35089C91.3718 2.7089 91.4222 3.06819 91.5449 3.40546C92.0194 4.85496 93.6184 5.82996 94.9834 6.29796C96.3484 6.76596 99.4229 6.55146 100.183 6.47996C100.645 6.92196 101.132 7.40296 101.659 7.93596C102.582 8.89146 103.609 9.98346 104.662 11.238C104.935 11.5695 105.221 11.9465 105.507 12.2975C104.902 11.797 104.07 11.1275 103.979 11.069C102.354 10.0355 98.5974 8.99546 96.9399 10.3735C96.6691 10.6093 96.4512 10.8996 96.3005 11.2255C96.1498 11.5514 96.0697 11.9055 96.0654 12.2645C96.0611 12.6235 96.1327 12.9794 96.2756 13.3088C96.4184 13.6383 96.6293 13.9337 96.8944 14.176C97.9799 15.2485 99.8584 15.372 101.282 15.164C102.705 14.956 105.422 13.2855 106.001 12.915C106.618 13.708 107.236 14.54 107.827 15.4435C108.914 17.0669 109.856 18.783 110.642 20.572C110.687 20.676 110.72 20.7865 110.765 20.8905C110.512 20.5915 108.991 19.064 108.874 18.9405C107.372 17.7315 103.758 16.282 101.951 17.4715C101.657 17.6768 101.409 17.942 101.224 18.2496C101.039 18.5572 100.921 18.9003 100.877 19.2567C100.834 19.613 100.866 19.9745 100.971 20.3176C101.077 20.6607 101.254 20.9777 101.49 21.248C102.458 22.431 104.304 22.7625 105.741 22.7105C107.405 22.652 110.668 21.001 110.791 20.9425C111.528 22.7458 112.145 24.5958 112.637 26.4805C113.008 27.8715 113.333 29.3015 113.638 30.7315C113.3 30.3545 111.89 28.931 111.773 28.84C110.271 27.631 106.657 26.1815 104.85 27.371C104.556 27.5764 104.308 27.8415 104.123 28.1491C103.938 28.4567 103.82 28.7998 103.776 29.1562C103.733 29.5125 103.765 29.874 103.87 30.2171C103.976 30.5602 104.153 30.8772 104.389 31.1475C105.357 32.3305 107.203 32.662 108.64 32.61C110.265 32.5515 113.398 30.985 113.664 30.855C113.807 31.505 113.944 32.155 114.08 32.805C114.522 34.937 114.958 37.082 115.445 39.1815C115.614 39.9095 115.809 40.618 116.004 41.333C115.471 40.7805 114.49 39.7925 114.399 39.7145C112.897 38.512 109.277 37.0625 107.476 38.2455C107.182 38.4509 106.934 38.716 106.749 39.0236C106.564 39.3312 106.446 39.6743 106.402 40.0306C106.359 40.387 106.391 40.7485 106.496 41.0916C106.602 41.4347 106.779 41.7517 107.015 42.022C107.977 43.205 109.829 43.543 111.266 43.4845C112.702 43.426 115.38 42.1845 116.128 41.8075C116.453 42.9905 116.778 44.1605 117.207 45.2915C117.389 45.779 117.545 46.286 117.746 46.741L118.052 47.4625L117.636 47.4235C117.636 47.4235 117.636 48.0735 117.668 49.198C116.082 48.067 113.768 47.092 112.306 47.781C111.984 47.9395 111.7 48.164 111.471 48.4398C111.242 48.7156 111.073 49.0365 110.976 49.3817C110.88 49.7269 110.856 50.0886 110.908 50.4433C110.961 50.798 111.087 51.1377 111.279 51.4405C111.376 51.6035 111.487 51.7579 111.61 51.902C111.898 53.5682 112.605 55.1338 113.664 56.452C113.742 56.5495 114.821 57.544 115.387 58.038C114.841 57.7455 114.301 57.453 113.742 57.141C112.93 56.686 112.091 56.1855 111.272 55.7045L110.011 54.905C109.582 54.6385 109.199 54.3395 108.783 54.0535C108.185 53.618 107.587 53.1435 106.995 52.669C107.502 51.876 108.945 49.51 109.16 48.119C109.374 46.728 109.251 44.817 108.191 43.725C107.951 43.4578 107.658 43.2442 107.329 43.098C107.001 42.9517 106.646 42.8761 106.287 42.8761C105.928 42.8761 105.572 42.9517 105.244 43.098C104.916 43.2442 104.623 43.4578 104.382 43.725C102.998 45.3825 104.025 49.1395 105.032 50.771C105.032 50.823 105.318 51.148 105.624 51.525C105.058 51.044 104.486 50.5695 103.927 50.0625C102.341 48.6325 100.768 47.118 99.1889 45.6165L98.1944 44.6805C98.6234 44.0305 100.216 41.4305 100.437 40.02C100.658 38.6095 100.534 36.718 99.4684 35.626C99.2283 35.3599 98.935 35.1472 98.6075 35.0016C98.28 34.856 97.9255 34.7808 97.5671 34.7808C97.2087 34.7808 96.8543 34.856 96.5268 35.0016C96.1993 35.1472 95.906 35.3599 95.6659 35.626C94.2814 37.2835 95.3019 41.0405 96.3159 42.672C96.3549 42.7305 96.6604 43.114 96.9984 43.543C96.1339 42.737 95.2499 41.944 94.3594 41.1835C92.8294 39.8728 91.2138 38.6655 89.5234 37.5695C89.6794 37.3355 91.6034 34.3845 91.8439 32.779C92.0649 31.349 91.9414 29.477 90.8819 28.385C90.6385 28.1231 90.3438 27.9143 90.0161 27.7715C89.6884 27.6287 89.3348 27.555 88.9774 27.555C88.6199 27.555 88.2663 27.6287 87.9386 27.7715C87.6109 27.9143 87.3162 28.1231 87.0729 28.385C85.6884 30.0425 86.7154 33.7995 87.7229 35.431C87.7944 35.548 88.8994 36.926 89.3154 37.381L89.2569 37.342C87.5701 36.3076 85.7952 35.4245 83.9529 34.703C82.3097 34.0508 80.6298 33.4952 78.9219 33.039C77.3424 32.597 75.8669 32.2915 74.5604 32.0315C73.8584 31.895 73.2084 31.7845 72.6104 31.687H72.6494C72.6494 31.687 70.4784 30.231 70.3289 30.1595C68.5999 29.3015 64.7584 28.658 63.2504 30.205C63.0074 30.4691 62.8227 30.7813 62.7081 31.1215C62.5936 31.4616 62.5518 31.822 62.5855 32.1793C62.6192 32.5366 62.7277 32.8828 62.9038 33.1955C63.0799 33.5082 63.3198 33.7804 63.6079 33.9945C64.8039 34.9435 66.6759 34.872 68.0734 34.5145C69.4709 34.157 71.9149 32.2655 72.5129 31.7975C73.1629 31.908 73.8129 32.038 74.5474 32.194C75.8474 32.48 77.3034 32.844 78.8699 33.2925C79.2859 33.416 79.7279 33.572 80.1699 33.7085C79.3899 33.624 78.3239 33.5265 78.2199 33.5265C76.2699 33.5265 72.5844 34.7615 71.9604 36.8285C71.8654 37.1746 71.8445 37.5369 71.899 37.8917C71.9535 38.2465 72.0822 38.5858 72.2766 38.8875C72.471 39.1893 72.7268 39.4466 73.0273 39.6429C73.3279 39.8391 73.6664 39.9698 74.0209 40.0265C75.5159 40.319 77.1539 39.3765 78.2264 38.4275C79.2989 37.4785 80.6444 34.5795 80.9239 33.949C81.8729 34.274 82.8739 34.599 83.8359 35.054C85.6457 35.8049 87.3858 36.7141 89.0359 37.771C89.1269 37.836 89.2179 37.914 89.3154 37.9725C88.9384 37.8685 86.8259 37.4265 86.6764 37.4135C84.7264 37.2315 80.9369 38.018 80.0919 40.0135C79.9604 40.3472 79.9005 40.7049 79.9161 41.0633C79.9316 41.4217 80.0223 41.7728 80.1823 42.0939C80.3422 42.415 80.5678 42.699 80.8445 42.9273C81.1212 43.1557 81.4428 43.3233 81.7884 43.4195C83.2444 43.8745 84.9734 43.127 86.1434 42.295C87.4954 41.3265 89.3089 38.148 89.3934 38.031C90.9991 39.1311 92.532 40.3339 93.9824 41.632C95.0679 42.5875 96.1209 43.582 97.1674 44.6285C96.6734 44.4985 94.7104 44.089 94.5674 44.076C92.6174 43.9005 88.8344 44.687 87.9829 46.676C87.8514 47.0097 87.7915 47.3674 87.8071 47.7258C87.8226 48.0842 87.9133 48.4353 88.0733 48.7564C88.2332 49.0775 88.4588 49.3615 88.7355 49.5898C89.0122 49.8182 89.3338 49.9858 89.6794 50.082C91.1354 50.537 92.8644 49.796 94.0344 48.9575C95.3344 48.015 97.1089 44.973 97.2844 44.7195L98.7144 46.117C100.261 47.6575 101.802 49.2045 103.368 50.667C103.914 51.1805 104.467 51.668 105.019 52.1555C104.278 51.9865 102.913 51.7005 102.79 51.694C100.872 51.512 97.0569 52.2985 96.2054 54.294C96.074 54.6282 96.0143 54.9863 96.0303 55.345C96.0463 55.7038 96.1376 56.0551 96.2982 56.3763C96.4588 56.6975 96.6851 56.9813 96.9625 57.2094C97.2399 57.4374 97.5622 57.6045 97.9084 57.7C99.3644 58.1485 101.087 57.4075 102.257 56.5755C103.427 55.7435 104.967 53.2085 105.39 52.4935C106.313 53.2995 107.249 54.0795 108.211 54.801C108.633 55.1065 109.043 55.451 109.459 55.711L110.7 56.5365C111.565 57.076 112.371 57.5765 113.19 58.0575L114.399 58.753C113.671 58.467 112.507 58.038 112.397 58.012C110.525 57.544 106.638 57.739 105.494 59.5785C105.314 59.8885 105.201 60.2328 105.163 60.5892C105.124 60.9456 105.161 61.3061 105.271 61.6474C105.38 61.9886 105.561 62.3031 105.799 62.5703C106.038 62.8376 106.331 63.0518 106.657 63.199C108.029 63.849 109.849 63.394 111.129 62.744C112.546 62.029 114.678 59.39 114.938 59.065C115.933 59.6305 116.888 60.17 117.818 60.6575C120.268 61.9575 122.368 63.017 124.058 63.7905C129.446 68.451 137.058 68.9905 137.058 68.9905C137.058 68.9905 137.461 59.8905 132.111 53.9365C130.211 51.9479 127.893 50.4051 125.325 49.419ZM115.705 58.272C115.874 57.895 117.161 55.022 117.252 53.384C117.551 53.332 117.857 53.267 118.149 53.202C118.695 56.0703 119.833 58.7933 121.49 61.197C120.509 60.729 119.449 60.2155 118.325 59.6435C117.486 59.2145 116.609 58.753 115.705 58.272Z" fill="url(#paint3_linear)"/>
<path d="M165.066 47.6768C165.066 47.6768 155.966 47.9563 150.422 53.7348C144.877 59.5133 144.916 68.6198 144.916 68.6198C144.916 68.6198 154.016 68.3403 159.561 62.5618C165.105 56.7833 165.066 47.6768 165.066 47.6768Z" fill="url(#paint4_linear)"/>
<g opacity="0.5">
<path opacity="0.5" d="M105.995 12.4857C105.995 12.4857 108.972 10.1327 109.739 8.62467C110.389 7.32467 110.857 5.51767 110.187 4.15268C110.043 3.82348 109.83 3.5285 109.564 3.28702C109.298 3.04554 108.983 2.863 108.641 2.75134C108.3 2.63967 107.938 2.6014 107.581 2.63903C107.223 2.67665 106.878 2.78932 106.567 2.96968C104.727 4.11368 104.532 8.00068 105 9.87268C105.039 10.0547 105.962 12.5117 105.995 12.4857Z" fill="white"/>
<path opacity="0.5" d="M78.4538 32.0834C78.5773 32.2004 80.7028 33.7409 80.7093 33.7019C80.7158 33.6629 81.8988 30.0944 81.7038 28.4174C81.5348 26.9874 80.9238 25.2064 79.6108 24.4394C79.3084 24.2464 78.9686 24.1193 78.6136 24.0667C78.2587 24.014 77.8966 24.0369 77.5512 24.1338C77.2057 24.2308 76.8846 24.3996 76.6089 24.6293C76.3332 24.8589 76.1091 25.1442 75.9513 25.4664C75.0478 27.4294 77.0303 30.7834 78.4538 32.0834Z" fill="white"/>
<path opacity="0.5" d="M140.873 16.0479C140.873 16.0479 129.966 27.3059 130.025 41.1314C130.083 54.9568 141.075 66.1238 141.075 66.1238C141.075 66.1238 151.982 54.8658 151.923 41.0404C151.865 27.2149 140.873 16.0479 140.873 16.0479Z" fill="white"/>
<path opacity="0.5" d="M125.325 49.419C125.466 49.2609 125.597 49.0937 125.715 48.9185C126.508 47.716 127.184 45.9675 126.677 44.531C126.57 44.1885 126.391 43.8725 126.153 43.6036C125.915 43.3348 125.623 43.1192 125.296 42.9707C124.97 42.8223 124.615 42.7445 124.256 42.7423C123.897 42.7401 123.542 42.8136 123.213 42.958C121.731 43.66 121.009 46.0325 120.853 47.976C120.262 47.8395 119.729 47.7355 119.267 47.6575C119.072 47.222 118.877 46.7735 118.676 46.3575C118.474 45.9415 118.312 45.4345 118.123 44.9665C117.863 44.2775 117.629 43.5495 117.389 42.828C118.253 42.438 120.769 41.268 121.705 40.228C122.641 39.188 123.603 37.5305 123.317 36.0355C123.262 35.6807 123.134 35.3414 122.939 35.0397C122.745 34.738 122.489 34.4806 122.189 34.2844C121.888 34.0881 121.55 33.9574 121.195 33.9007C120.841 33.8441 120.479 33.8627 120.132 33.9555C118.058 34.6055 116.843 38.2715 116.797 40.202C116.797 40.267 116.797 40.6765 116.875 41.1575C116.667 40.4425 116.453 39.734 116.271 39.006C115.738 36.9325 115.257 34.807 114.769 32.6815C114.672 32.233 114.561 31.7975 114.457 31.3815C115.185 31.063 117.915 29.815 118.897 28.7295C119.878 27.644 120.801 26.032 120.515 24.537C120.46 24.182 120.331 23.8426 120.136 23.5408C119.941 23.2391 119.684 22.9818 119.383 22.7856C119.082 22.5895 118.743 22.4588 118.389 22.4022C118.034 22.3456 117.671 22.3642 117.324 22.457C115.257 23.107 114.041 26.773 113.996 28.7035C113.996 28.7685 114.035 29.256 114.087 29.802C113.801 28.6515 113.508 27.5075 113.183 26.3765C112.631 24.4391 111.95 22.5411 111.142 20.6955C111.402 20.585 114.633 19.1875 115.725 17.9785C116.693 16.9125 117.623 15.281 117.337 13.786C117.282 13.4312 117.154 13.0919 116.959 12.7902C116.765 12.4885 116.509 12.2311 116.209 12.0349C115.908 11.8386 115.57 11.7079 115.215 11.6513C114.861 11.5946 114.499 11.6132 114.152 11.706C112.085 12.356 110.863 16.022 110.824 17.9525C110.824 18.089 110.98 19.8505 111.058 20.481V20.416C110.224 18.6203 109.23 16.9038 108.087 15.2875C107.086 13.8364 106.001 12.4452 104.837 11.121C103.765 9.88596 102.705 8.81346 101.763 7.87096C101.243 7.37046 100.762 6.91546 100.313 6.49946H100.359C100.398 6.49946 99.3449 4.08796 99.2604 3.94496C98.2984 2.27446 95.4449 -0.377541 93.3324 0.0449594C92.9841 0.131733 92.658 0.29073 92.3752 0.511641C92.0923 0.732552 91.8591 1.01044 91.6905 1.3273C91.522 1.64415 91.4219 1.99288 91.3969 2.35089C91.3718 2.7089 91.4222 3.06819 91.5449 3.40546C92.0194 4.85496 93.6184 5.82996 94.9834 6.29796C96.3484 6.76596 99.4229 6.55146 100.183 6.47996C100.645 6.92196 101.132 7.40296 101.659 7.93596C102.582 8.89146 103.609 9.98346 104.662 11.238C104.935 11.5695 105.221 11.9465 105.507 12.2975C104.902 11.797 104.07 11.1275 103.979 11.069C102.354 10.0355 98.5974 8.99546 96.9399 10.3735C96.6691 10.6093 96.4512 10.8996 96.3005 11.2255C96.1498 11.5514 96.0697 11.9055 96.0654 12.2645C96.0611 12.6235 96.1327 12.9794 96.2756 13.3088C96.4184 13.6383 96.6293 13.9337 96.8944 14.176C97.9799 15.2485 99.8584 15.372 101.282 15.164C102.705 14.956 105.422 13.2855 106.001 12.915C106.618 13.708 107.236 14.54 107.827 15.4435C108.914 17.0669 109.856 18.783 110.642 20.572C110.687 20.676 110.72 20.7865 110.765 20.8905C110.512 20.5915 108.991 19.064 108.874 18.9405C107.372 17.7315 103.758 16.282 101.951 17.4715C101.657 17.6768 101.409 17.942 101.224 18.2496C101.039 18.5572 100.921 18.9003 100.877 19.2567C100.834 19.613 100.866 19.9745 100.971 20.3176C101.077 20.6607 101.254 20.9777 101.49 21.248C102.458 22.431 104.304 22.7625 105.741 22.7105C107.405 22.652 110.668 21.001 110.791 20.9425C111.528 22.7458 112.145 24.5958 112.637 26.4805C113.008 27.8715 113.333 29.3015 113.638 30.7315C113.3 30.3545 111.89 28.931 111.773 28.84C110.271 27.631 106.657 26.1815 104.85 27.371C104.556 27.5764 104.308 27.8415 104.123 28.1491C103.938 28.4567 103.82 28.7998 103.776 29.1562C103.733 29.5125 103.765 29.874 103.87 30.2171C103.976 30.5602 104.153 30.8772 104.389 31.1475C105.357 32.3305 107.203 32.662 108.64 32.61C110.265 32.5515 113.398 30.985 113.664 30.855C113.807 31.505 113.944 32.155 114.08 32.805C114.522 34.937 114.958 37.082 115.445 39.1815C115.614 39.9095 115.809 40.618 116.004 41.333C115.471 40.7805 114.49 39.7925 114.399 39.7145C112.897 38.512 109.277 37.0625 107.476 38.2455C107.182 38.4509 106.934 38.716 106.749 39.0236C106.564 39.3312 106.446 39.6743 106.402 40.0306C106.359 40.387 106.391 40.7485 106.496 41.0916C106.602 41.4347 106.779 41.7517 107.015 42.022C107.977 43.205 109.829 43.543 111.266 43.4845C112.702 43.426 115.38 42.1845 116.128 41.8075C116.453 42.9905 116.778 44.1605 117.207 45.2915C117.389 45.779 117.545 46.286 117.746 46.741L118.052 47.4625L117.636 47.4235C117.636 47.4235 117.636 48.0735 117.668 49.198C116.082 48.067 113.768 47.092 112.306 47.781C111.984 47.9395 111.7 48.164 111.471 48.4398C111.242 48.7156 111.073 49.0365 110.976 49.3817C110.88 49.7269 110.856 50.0886 110.908 50.4433C110.961 50.798 111.087 51.1377 111.279 51.4405C111.376 51.6035 111.487 51.7579 111.61 51.902C111.898 53.5682 112.605 55.1338 113.664 56.452C113.742 56.5495 114.821 57.544 115.387 58.038C114.841 57.7455 114.301 57.453 113.742 57.141C112.93 56.686 112.091 56.1855 111.272 55.7045L110.011 54.905C109.582 54.6385 109.199 54.3395 108.783 54.0535C108.185 53.618 107.587 53.1435 106.995 52.669C107.502 51.876 108.945 49.51 109.16 48.119C109.374 46.728 109.251 44.817 108.191 43.725C107.951 43.4578 107.658 43.2442 107.329 43.098C107.001 42.9517 106.646 42.8761 106.287 42.8761C105.928 42.8761 105.572 42.9517 105.244 43.098C104.916 43.2442 104.623 43.4578 104.382 43.725C102.998 45.3825 104.025 49.1395 105.032 50.771C105.032 50.823 105.318 51.148 105.624 51.525C105.058 51.044 104.486 50.5695 103.927 50.0625C102.341 48.6325 100.768 47.118 99.1889 45.6165L98.1944 44.6805C98.6234 44.0305 100.216 41.4305 100.437 40.02C100.658 38.6095 100.534 36.718 99.4684 35.626C99.2283 35.3599 98.935 35.1472 98.6075 35.0016C98.28 34.856 97.9255 34.7808 97.5671 34.7808C97.2087 34.7808 96.8543 34.856 96.5268 35.0016C96.1993 35.1472 95.906 35.3599 95.6659 35.626C94.2814 37.2835 95.3019 41.0405 96.3159 42.672C96.3549 42.7305 96.6604 43.114 96.9984 43.543C96.1339 42.737 95.2499 41.944 94.3594 41.1835C92.8294 39.8728 91.2138 38.6655 89.5234 37.5695C89.6794 37.3355 91.6034 34.3845 91.8439 32.779C92.0649 31.349 91.9414 29.477 90.8819 28.385C90.6385 28.1231 90.3438 27.9143 90.0161 27.7715C89.6884 27.6287 89.3348 27.555 88.9774 27.555C88.6199 27.555 88.2663 27.6287 87.9386 27.7715C87.6109 27.9143 87.3162 28.1231 87.0729 28.385C85.6884 30.0425 86.7154 33.7995 87.7229 35.431C87.7944 35.548 88.8994 36.926 89.3154 37.381L89.2569 37.342C87.5701 36.3076 85.7952 35.4245 83.9529 34.703C82.3097 34.0508 80.6298 33.4952 78.9219 33.039C77.3424 32.597 75.8669 32.2915 74.5604 32.0315C73.8584 31.895 73.2084 31.7845 72.6104 31.687H72.6494C72.6494 31.687 70.4784 30.231 70.3289 30.1595C68.5999 29.3015 64.7584 28.658 63.2504 30.205C63.0074 30.4691 62.8227 30.7813 62.7081 31.1215C62.5936 31.4616 62.5518 31.822 62.5855 32.1793C62.6192 32.5366 62.7277 32.8828 62.9038 33.1955C63.0799 33.5082 63.3198 33.7804 63.6079 33.9945C64.8039 34.9435 66.6759 34.872 68.0734 34.5145C69.4709 34.157 71.9149 32.2655 72.5129 31.7975C73.1629 31.908 73.8129 32.038 74.5474 32.194C75.8474 32.48 77.3034 32.844 78.8699 33.2925C79.2859 33.416 79.7279 33.572 80.1699 33.7085C79.3899 33.624 78.3239 33.5265 78.2199 33.5265C76.2699 33.5265 72.5844 34.7615 71.9604 36.8285C71.8654 37.1746 71.8445 37.5369 71.899 37.8917C71.9535 38.2465 72.0822 38.5858 72.2766 38.8875C72.471 39.1893 72.7268 39.4466 73.0273 39.6429C73.3279 39.8391 73.6664 39.9698 74.0209 40.0265C75.5159 40.319 77.1539 39.3765 78.2264 38.4275C79.2989 37.4785 80.6444 34.5795 80.9239 33.949C81.8729 34.274 82.8739 34.599 83.8359 35.054C85.6457 35.8049 87.3858 36.7141 89.0359 37.771C89.1269 37.836 89.2179 37.914 89.3154 37.9725C88.9384 37.8685 86.8259 37.4265 86.6764 37.4135C84.7264 37.2315 80.9369 38.018 80.0919 40.0135C79.9604 40.3472 79.9005 40.7049 79.9161 41.0633C79.9316 41.4217 80.0223 41.7728 80.1823 42.0939C80.3422 42.415 80.5678 42.699 80.8445 42.9273C81.1212 43.1557 81.4428 43.3233 81.7884 43.4195C83.2444 43.8745 84.9734 43.127 86.1434 42.295C87.4954 41.3265 89.3089 38.148 89.3934 38.031C90.9991 39.1311 92.532 40.3339 93.9824 41.632C95.0679 42.5875 96.1209 43.582 97.1674 44.6285C96.6734 44.4985 94.7104 44.089 94.5674 44.076C92.6174 43.9005 88.8344 44.687 87.9829 46.676C87.8514 47.0097 87.7915 47.3674 87.8071 47.7258C87.8226 48.0842 87.9133 48.4353 88.0733 48.7564C88.2332 49.0775 88.4588 49.3615 88.7355 49.5898C89.0122 49.8182 89.3338 49.9858 89.6794 50.082C91.1354 50.537 92.8644 49.796 94.0344 48.9575C95.3344 48.015 97.1089 44.973 97.2844 44.7195L98.7144 46.117C100.261 47.6575 101.802 49.2045 103.368 50.667C103.914 51.1805 104.467 51.668 105.019 52.1555C104.278 51.9865 102.913 51.7005 102.79 51.694C100.872 51.512 97.0569 52.2985 96.2054 54.294C96.074 54.6282 96.0143 54.9863 96.0303 55.345C96.0463 55.7038 96.1376 56.0551 96.2982 56.3763C96.4588 56.6975 96.6851 56.9813 96.9625 57.2094C97.2399 57.4374 97.5622 57.6045 97.9084 57.7C99.3644 58.1485 101.087 57.4075 102.257 56.5755C103.427 55.7435 104.967 53.2085 105.39 52.4935C106.313 53.2995 107.249 54.0795 108.211 54.801C108.633 55.1065 109.043 55.451 109.459 55.711L110.7 56.5365C111.565 57.076 112.371 57.5765 113.19 58.0575L114.399 58.753C113.671 58.467 112.507 58.038 112.397 58.012C110.525 57.544 106.638 57.739 105.494 59.5785C105.314 59.8885 105.201 60.2328 105.163 60.5892C105.124 60.9456 105.161 61.3061 105.271 61.6474C105.38 61.9886 105.561 62.3031 105.799 62.5703C106.038 62.8376 106.331 63.0518 106.657 63.199C108.029 63.849 109.849 63.394 111.129 62.744C112.546 62.029 114.678 59.39 114.938 59.065C115.933 59.6305 116.888 60.17 117.818 60.6575C120.268 61.9575 122.368 63.017 124.058 63.7905C129.446 68.451 137.058 68.9905 137.058 68.9905C137.058 68.9905 137.461 59.8905 132.111 53.9365C130.211 51.9479 127.893 50.4051 125.325 49.419ZM115.705 58.272C115.874 57.895 117.161 55.022 117.252 53.384C117.551 53.332 117.857 53.267 118.149 53.202C118.695 56.0703 119.833 58.7933 121.49 61.197C120.509 60.729 119.449 60.2155 118.325 59.6435C117.486 59.2145 116.609 58.753 115.705 58.272Z" fill="white"/>
<path opacity="0.5" d="M165.066 47.6768C165.066 47.6768 155.966 47.9563 150.422 53.7348C144.877 59.5133 144.916 68.6198 144.916 68.6198C144.916 68.6198 154.016 68.3403 159.561 62.5618C165.105 56.7833 165.066 47.6768 165.066 47.6768Z" fill="white"/>
</g>
<path d="M141.322 53.5333L150.24 45.5123L149.863 45.0833L141.315 52.7663L141.27 42.2558L141.315 42.2883L148.862 31.2513L148.394 30.9263L141.263 41.3458L141.159 16.0479L140.587 16.0543L140.659 33.2208L134.978 28.3069L134.607 28.7358L140.665 33.9813L140.717 46.2533L132.105 38.6419L131.728 39.0643L140.717 47.0203L140.769 58.2003L134.295 53.1238L133.944 53.5723L140.769 58.9283L140.802 66.1238H141.374L141.315 53.5268L141.322 53.5333Z" fill="white"/>
<path d="M133.099 56.6276L132.534 56.5626L131.812 62.9131L127.984 58.6361H127.99L127.015 50.9465L126.45 51.0181L127.321 57.8951L117.798 47.248L117.369 47.6316L123.83 54.8531L119.742 54.905L119.748 55.4771L124.337 55.4186L128.868 60.4821L122.472 60.4886V61.0606L129.381 61.0541L133.496 65.6561L128.985 65.9291L129.024 66.5011L133.983 66.2021L136.726 69.2701L137.155 68.8866L132.326 63.4851L133.099 56.6276Z" fill="white"/>
<path d="M154.66 58.8899L162.252 57.3494L162.142 56.7904L155.349 58.1684L165.255 47.8789L164.839 47.4824L158.118 54.4634L157.767 50.3879L157.195 50.4399L157.592 55.0094L152.879 59.9039L152.398 53.5274L151.826 53.5729L152.346 60.4564L148.063 64.9089L147.458 60.4304L146.893 60.5084L147.556 65.4354L144.702 68.3994L145.118 68.7959L150.143 63.5764L157.039 63.8429L157.065 63.2709L150.676 63.0239L154.66 58.8834V58.8899Z" fill="white"/>
<path d="M90.3433 148.001C91.8473 150.129 97.8735 148.583 97.8735 148.583L100.981 144.363C109.197 158.212 116.028 169.462 117.006 170.273C119.651 172.457 128.283 164.162 127.144 159.072C126.688 157.013 119.199 145.081 110.448 131.597L121.331 116.91C121.331 116.91 121.043 114.542 116.878 117.353C115.424 118.339 111.573 122.099 107.244 126.675C95.1045 108.094 81.9118 88.5153 81.9118 88.5153C81.9118 88.5153 51.6679 121.767 54.0096 120.73C56.3512 119.692 48.701 121.005 45.4348 117.418C42.1686 113.832 71.2547 88.4832 71.2547 88.4832C71.2547 88.4832 79.9984 81.7659 79.9958 86.8002C79.9958 86.8002 83.9413 115.505 97.1541 137.89C92.8623 142.983 89.7702 147.189 90.3433 148.001Z" fill="#263238"/>
<path d="M188.18 131.995C188.113 129.349 187.85 126.712 187.394 124.104C186.489 118.888 184.827 113.831 182.46 109.096C181.304 106.749 179.981 104.487 178.502 102.329C177.054 100.18 175.469 98.1256 173.757 96.1803C172.074 94.2397 170.274 92.4033 168.368 90.6813C164.604 87.2881 160.53 84.2545 156.2 81.6203C139.001 71.1748 119.15 66.3843 99.4942 66.6703C94.5788 66.8066 89.6819 67.3326 84.8497 68.2433C80.0118 69.1325 75.2816 70.5313 70.7382 72.4163C66.2217 74.3109 61.9577 76.7584 58.0437 79.7028C54.1736 82.5998 50.6415 85.9227 47.5137 89.6088V89.6088C47.458 89.6689 47.427 89.7478 47.427 89.8298C47.427 89.9117 47.458 89.9907 47.5137 90.0508C47.5439 90.0812 47.5799 90.1054 47.6195 90.1219C47.6591 90.1384 47.7016 90.1469 47.7445 90.1469C47.7874 90.1469 47.8298 90.1384 47.8694 90.1219C47.909 90.1054 47.945 90.0812 47.9752 90.0508C51.2513 86.6184 54.9035 83.5658 58.8627 80.9508C62.7898 78.2899 67.0293 76.1221 71.4857 74.4963C80.4102 71.2463 89.9717 70.0178 99.4357 70.1088C108.941 70.2512 118.385 71.6634 127.516 74.3078C136.658 76.9036 145.377 80.8047 153.405 85.8908C161.355 91.0193 168.524 97.5063 173.724 105.391C175.032 107.356 176.196 109.413 177.208 111.546C179.261 115.796 180.682 120.322 181.427 124.982C181.8 127.31 182.002 129.663 182.031 132.021C182.055 134.378 181.929 136.733 181.654 139.074C181.479 140.237 181.316 141.401 181.089 142.558L180.692 144.274L180.497 145.132L180.244 145.977C178.923 150.501 176.931 154.802 174.335 158.736C169.135 166.601 161.745 172.9 153.568 177.586C145.31 182.249 136.345 185.53 127.028 187.297C117.71 189.104 108.191 189.651 98.7272 188.922C97.5377 188.87 96.3612 188.708 95.1847 188.604C94.5932 188.539 94.0017 188.487 93.4167 188.415L91.6617 188.149C90.4917 187.954 89.3152 187.824 88.1582 187.577L84.7132 186.92C84.1321 186.804 83.5571 186.659 82.9907 186.485L81.2812 186.01C80.1372 185.692 78.9932 185.393 77.8817 184.983L74.5212 183.833L71.2257 182.5C70.6797 182.273 70.1272 182.058 69.5877 181.818L67.9822 181.07C66.9162 180.55 65.8307 180.076 64.7842 179.523C62.7107 178.373 60.5982 177.294 58.6222 175.981L57.1207 175.038L56.3667 174.564L55.6452 174.05L52.7527 171.97C51.7842 171.281 50.8937 170.495 49.9642 169.76L48.5862 168.642C48.1182 168.278 47.7022 167.849 47.2862 167.459L44.6862 165.054L42.2162 162.474C41.8132 162.038 41.3907 161.629 41.0072 161.174L39.8697 159.809L38.7322 158.444C38.3617 157.982 37.9587 157.547 37.6337 157.053L35.5667 154.167L35.0467 153.445L34.5852 152.685L33.6362 151.17C32.4117 149.146 31.2901 147.061 30.2757 144.924C28.2913 140.628 26.9111 136.078 26.1742 131.404C25.4862 126.721 25.5103 121.961 26.2457 117.286C26.9876 112.601 28.3585 108.038 30.3212 103.72C32.2998 99.4098 34.7384 95.3257 37.5947 91.5393C43.3655 83.9756 50.3528 77.4232 58.2712 72.1498C58.3413 72.1044 58.3908 72.0334 58.409 71.952C58.4272 71.8705 58.4128 71.7852 58.3687 71.7143C58.3242 71.6416 58.253 71.5893 58.1703 71.5686C58.0876 71.5479 58.0002 71.5606 57.9267 71.6038V71.6038C53.7811 74.0658 49.8325 76.8453 46.1162 79.9173C42.3836 83.0379 38.9438 86.4929 35.8397 90.2393C32.6801 94.0339 29.9649 98.1775 27.7472 102.589C25.4875 107.077 23.8455 111.85 22.8657 116.779C21.9101 121.794 21.726 126.925 22.3197 131.995C22.9624 137.078 24.3054 142.048 26.3107 146.763C28.3366 151.414 30.8534 155.835 33.8182 159.952C34.1627 160.485 34.5787 160.959 34.9622 161.46L36.1452 162.948L37.3217 164.43C37.7247 164.918 38.1667 165.373 38.5827 165.841L41.1437 168.636L43.8672 171.236C44.3287 171.665 44.7642 172.126 45.2452 172.536L46.6882 173.758C47.6567 174.557 48.5862 175.415 49.5937 176.169L52.6162 178.47L53.3767 179.036L54.1567 179.556L55.7362 180.596C57.8032 182.045 60.0392 183.196 62.2362 184.496C63.3412 185.094 64.4852 185.62 65.6097 186.192L67.3062 187.024C67.8782 187.291 68.4632 187.525 69.0417 187.772L72.5257 189.241L76.0942 190.541C77.2772 190.996 78.4927 191.334 79.7082 191.691L81.5282 192.224C82.1327 192.406 82.7437 192.582 83.3677 192.712L87.0727 193.563C88.3142 193.849 89.5817 194.012 90.8362 194.213L92.7212 194.525C93.3712 194.616 93.9627 194.675 94.5802 194.753C95.8217 194.883 97.0632 195.071 98.3112 195.149C103.301 195.608 108.317 195.699 113.32 195.422C118.338 195.166 123.333 194.569 128.27 193.635C138.287 191.793 147.934 188.316 156.824 183.345C165.697 178.217 173.802 171.242 179.652 162.35C182.574 157.866 184.807 152.969 186.276 147.823L186.555 146.861L186.783 145.879L187.218 143.929C187.472 142.629 187.654 141.277 187.868 139.958C188.161 137.314 188.266 134.653 188.18 131.995V131.995Z" fill="#263238"/>
<path opacity="0.3" d="M240.467 225.27L197.703 206.589C192.503 202.162 186.348 197.053 185.353 196.8C183.546 196.345 184.45 194.089 187.615 188.662C190.781 183.234 168.485 172.841 162.785 173.393C158.235 173.842 152.814 172.925 150.858 172.548C152.489 167.706 154.172 162.902 154.172 162.902L132.014 153.204L114.366 126.281L108.854 128.036C108.854 128.036 116.576 145.664 125.631 165.847C122.29 164.781 115.497 163.331 114.821 168.765C113.918 175.993 119.339 181.421 124.76 181.421C127.75 181.421 130.61 181.284 132.56 181.161C142.446 202.916 152.06 223.313 153.698 224.353C157.319 226.615 169.948 229.774 170.422 226.615C170.897 223.456 157.767 200.401 157.767 200.401C157.767 200.401 227.369 227.967 234.617 227.967C241.864 227.967 240.467 225.27 240.467 225.27ZM174.492 186.387C174.492 186.387 172.477 192.178 172.769 195.682L160.9 190.482L174.492 186.387ZM142.401 162.434L140.815 166.672L137.188 161.134L142.401 162.434Z" fill="black"/>
<path d="M213.426 85.2276C213.426 85.2276 214.836 82.2246 213.952 79.9236C213.068 77.6226 196.805 73.9111 196.805 73.9111C196.805 73.9111 193.087 73.9111 193.263 76.0301C193.438 78.1491 206.88 86.2871 207.94 86.9956C208.999 87.7041 213.068 89.2966 213.426 85.2276Z" fill="white" stroke="#263238" stroke-linecap="round" stroke-linejoin="round"/>
<path d="M201.4 83.4597C201.903 82.5689 202.588 81.7938 203.41 81.1846C204.232 80.5755 205.173 80.1459 206.171 79.9237C209.532 79.2152 213.971 81.5162 214.485 85.2277C214.998 88.9392 212.184 90.7072 210.416 90.7072C208.648 90.7072 207.055 88.2307 207.055 88.2307C207.055 88.2307 201.4 86.1117 201.4 83.4597Z" fill="white" stroke="#263238" stroke-linecap="round" stroke-linejoin="round"/>
<path d="M197.046 100.912C197.725 102.537 198.76 103.989 200.074 105.162C201.387 106.335 202.947 107.2 204.638 107.692C210.605 109.59 221.72 106.879 228.226 107.692L233.101 112.846L225.516 117.721C219.912 115.869 214.209 114.33 208.434 113.113C199.425 111.26 193.796 102.81 193.796 102.81L197.046 100.912Z" fill="#263238"/>
<path d="M112.461 125.527L108.86 128.036L110.583 129.284L113.404 128.348L112.461 125.527Z" fill="#263238" stroke="#263238" stroke-linecap="round" stroke-linejoin="round"/>
<path d="M194.271 65.1943C194.271 65.1943 192.724 64.6288 191.32 63.9268C189.916 63.2248 191.456 66.4553 192.022 66.5983C192.587 66.7413 193.972 67.0208 193.972 67.0208L194.271 65.1943Z" fill="white" stroke="#263238" stroke-linecap="round" stroke-linejoin="round"/>
<path d="M118.825 115.785L111.844 125.06C111.603 125.379 111.455 125.76 111.418 126.158C111.381 126.557 111.457 126.958 111.636 127.316V127.316C111.843 127.73 112.178 128.066 112.592 128.274C113.005 128.483 113.475 128.552 113.931 128.473L124.058 126.711L233.602 63.7326C234.855 63.0028 235.949 62.029 236.819 60.8687C237.689 59.7084 238.317 58.3854 238.666 56.9779C239.015 55.5704 239.078 54.1072 238.852 52.6749C238.625 51.2426 238.113 49.8704 237.346 48.6396C236.585 47.42 235.588 46.3643 234.414 45.5341C233.239 44.7039 231.912 44.1158 230.508 43.8042C229.104 43.4926 227.653 43.4637 226.238 43.7191C224.822 43.9746 223.472 44.5093 222.266 45.2921L118.825 115.785Z" fill="url(#paint5_linear)" stroke="#263238" stroke-linecap="round" stroke-linejoin="round"/>
<path d="M222.266 45.2918L193.068 65.4418C193.341 70.4988 195.512 77.1938 204.359 80.1513L233.609 63.7128C234.893 63.005 236.019 62.0441 236.921 60.888C237.822 59.732 238.479 58.405 238.853 56.9874C239.226 55.5699 239.308 54.0913 239.093 52.6412C238.878 51.1911 238.371 49.7998 237.602 48.5516C236.833 47.3033 235.819 46.2241 234.621 45.3794C233.423 44.5346 232.066 43.9418 230.632 43.637C229.198 43.3323 227.718 43.3218 226.28 43.6062C224.842 43.8906 223.476 44.4641 222.266 45.2918Z" fill="#263238" stroke="#263238" stroke-linecap="round" stroke-linejoin="round"/>
<path d="M111.636 127.315C111.843 127.729 112.178 128.065 112.592 128.274C113.005 128.482 113.475 128.552 113.931 128.472L124.058 126.711C115.868 123.526 118.858 115.784 118.858 115.784L111.877 125.06C111.63 125.376 111.476 125.754 111.434 126.153C111.391 126.552 111.462 126.954 111.636 127.315V127.315Z" fill="url(#paint6_linear)" stroke="#263238" stroke-linecap="round" stroke-linejoin="round"/>
<path d="M185.287 68.4248C185.287 68.4248 183.714 68.4248 183.714 69.1398C183.714 69.8548 183.304 72.3898 184.214 72.3183C185.124 72.2468 185.04 70.6478 185.118 70.0888C185.196 69.5298 185.287 68.4248 185.287 68.4248Z" fill="white" stroke="#263238" stroke-linecap="round" stroke-linejoin="round"/>
<path d="M187.01 65.832C187.01 65.832 185.6 65.403 185.281 66.2675C184.963 67.132 184.631 71.2335 185.6 71.1295C186.568 71.0255 186.789 67.3205 187.01 65.832Z" fill="white" stroke="#263238" stroke-linecap="round" stroke-linejoin="round"/>
<path d="M189.168 66.0524C189.168 66.0524 187.549 64.6484 187.01 65.8314C186.47 67.0144 186.36 70.3814 187.01 70.3814C187.66 70.3814 188.628 68.9774 188.843 68.2234C189.004 67.5088 189.113 66.7832 189.168 66.0524V66.0524Z" fill="white" stroke="#263238" stroke-linecap="round" stroke-linejoin="round"/>
<path d="M191.436 66.6703C191.436 66.6703 189.382 64.9413 189.057 65.2663C188.732 65.5913 187.439 68.9193 188.407 69.5888C189.376 70.2583 190.611 67.2748 190.611 67.2748L191.436 66.6703Z" fill="white" stroke="#263238" stroke-linecap="round" stroke-linejoin="round"/>
<path d="M165.657 82.6994C165.657 82.6994 165.885 86.1704 166.808 86.9764C167.365 87.4624 167.87 88.0048 168.316 88.5949C168.44 89.4763 168.516 90.3637 168.543 91.2534C168.543 92.2934 169.239 92.1829 169.843 92.1829C170.448 92.1829 171.462 94.1329 172.04 95.0689C172.671 95.9237 173.516 96.5965 174.491 97.0189C175.531 97.5909 177.26 95.4004 177.26 95.4004L179.548 99.2029L187.757 93.8859L183.714 86.0274C183.476 83.301 182.646 80.6593 181.283 78.2859C178.976 74.1259 175.849 71.7859 170.649 73.3134C165.449 74.8409 165.657 82.6994 165.657 82.6994Z" fill="white" stroke="#263238" stroke-linecap="round" stroke-linejoin="round"/>
<path d="M178.716 96.9218L175.199 93.3857" stroke="#263238" stroke-linecap="round" stroke-linejoin="round"/>
<path d="M172.645 86.7549C172.304 86.9792 171.906 87.0987 171.498 87.0987C171.09 87.0987 170.691 86.9792 170.351 86.7549C169.689 86.3087 169.154 85.6989 168.797 84.9848C168.441 84.2707 168.275 83.4765 168.316 82.6794C168.316 80.8919 166.022 81.6589 166.022 81.6589C166.022 81.6589 163.467 84.4604 161.686 83.4399C159.905 82.4194 158.878 80.3849 163.98 74.0084C169.083 67.6319 173.926 67.8919 178.001 70.4399C182.077 72.9879 183.689 86.0399 183.689 86.0399C183.689 86.0399 183.611 88.5294 180.296 89.2899C176.981 90.0504 172.645 89.3029 172.645 86.7549Z" fill="#263238" stroke="#263238" stroke-linecap="round" stroke-linejoin="round"/>
<path d="M172.014 88.9461C172.014 88.9461 170.857 84.5521 172.703 85.1306C174.549 85.7091 175.596 89.6351 175.479 90.0966C175.362 90.5581 174.439 90.7921 173.977 90.6751" fill="white"/>
<path d="M172.014 88.9461C172.014 88.9461 170.857 84.5521 172.703 85.1306C174.549 85.7091 175.596 89.6351 175.479 90.0966C175.362 90.5581 174.439 90.7921 173.977 90.6751" stroke="#263238" stroke-linecap="round" stroke-linejoin="round"/>
<path d="M185.372 90.5382C183.215 91.7467 181.155 93.1202 179.21 94.6461C177.26 96.3816 175.512 101.582 175.512 101.582C175.512 101.582 187.42 93.4891 189.5 92.3321C191.58 91.1751 192.041 90.6032 192.041 90.6032C192.041 90.6032 187.686 89.9597 185.372 90.5382Z" fill="white" stroke="#263238" stroke-linecap="round" stroke-linejoin="round"/>
<path d="M156.037 121.609C156.037 121.609 152.67 120.049 148.783 117.975C144.896 115.902 140.749 113.575 140.749 113.575C139.631 113.437 138.5 113.437 137.382 113.575C135.423 114.063 133.431 114.409 131.422 114.608C130.122 114.608 129.348 115.908 130.122 116.422C130.895 116.935 135.049 116.422 135.049 116.422L128.549 119.535C128.549 119.535 127.775 121.089 129.589 121.089C131.402 121.089 132.189 120.829 134.249 121.089C136.31 121.349 140.47 118.755 140.47 118.755C140.47 118.755 151.442 131.398 153.99 131.554C156.538 131.71 161.744 125.756 156.037 121.609Z" fill="white" stroke="#263238" stroke-linecap="round" stroke-linejoin="round"/>
<path d="M159.496 119.177C159.496 119.177 153.834 120.769 152.775 123.246C151.715 125.722 151.891 129.434 154.01 131.553C156.129 133.672 157.019 134.205 159.314 133.321C161.608 132.437 162.148 131.026 162.323 129.609C162.499 128.192 163.766 123.421 159.496 119.177Z" fill="white" stroke="#263238" stroke-linecap="round" stroke-linejoin="round"/>
<path d="M235.208 218.692C234.752 219.435 234.34 220.203 233.973 220.993C233.797 221.526 229.904 222.053 230.437 223.821C230.97 225.589 235.032 227.006 236.982 227.181C238.932 227.357 242.832 224.705 243.521 223.996C243.937 223.58 244.561 220.837 244.23 218.692C244.012 217.694 243.521 216.776 242.813 216.04C242.813 216.04 239.452 210.912 235.208 218.692Z" fill="white" stroke="#263238" stroke-linecap="round" stroke-linejoin="round"/>
<path d="M244.229 218.693C244.047 217.797 243.632 216.965 243.027 216.281C242.294 216.286 241.571 216.439 240.9 216.733C240.23 217.027 239.626 217.455 239.127 217.991C237.359 220.11 238.243 224.881 236.117 225.589C234.538 226.116 231.775 224.185 230.475 223.171C230.403 223.382 230.403 223.611 230.475 223.821C231.008 225.589 235.071 227.006 237.021 227.182C238.971 227.357 242.871 224.705 243.56 223.997C243.937 223.581 244.561 220.838 244.229 218.693Z" fill="white" stroke="#263238" stroke-linecap="round" stroke-linejoin="round"/>
<path d="M239.633 219.934C238.925 223.113 239.809 225.238 236.981 227.182C238.931 227.357 242.831 224.705 243.52 223.997C243.936 223.581 244.56 220.838 244.229 218.693C244.153 218.251 244.006 217.826 243.793 217.432H243.52C243.52 217.432 240.335 216.749 239.633 219.934Z" fill="#263238" stroke="#263238" stroke-linecap="round" stroke-linejoin="round"/>
<path d="M228.928 195.176C226.276 189.872 215.544 175.585 215.544 175.585C215.544 175.585 210.598 144.651 210.416 142.519C210.078 138.437 207.458 132.275 207.458 132.275C207.458 132.275 198.924 130.494 182.654 140.043L182.83 145.347L194.172 159.335C194.718 158.886 195.037 158.613 195.037 158.613C195.037 158.613 202.284 176.813 203.877 180.362C205.469 183.911 213.328 196.476 217.228 199.076C219.399 200.525 235.207 218.693 235.207 218.693C235.207 218.693 238.216 216.041 240.16 216.041H242.812C242.812 216.041 231.58 200.48 228.928 195.176Z" fill="#263238" stroke="#263238" stroke-linecap="round" stroke-linejoin="round"/>
<g opacity="0.35">
<path opacity="0.35" d="M231.859 211.224C234.017 213.947 235.441 215.982 235.441 215.982" stroke="white" stroke-linecap="round" stroke-linejoin="round"/>
<path opacity="0.35" d="M199.567 160.498C199.567 160.498 202.369 167.785 206.015 176.189C209.662 184.594 214.14 194.688 220.868 199.732C223.708 201.858 226.718 205.088 229.318 208.104" stroke="white" stroke-linecap="round" stroke-linejoin="round"/>
<path opacity="0.35" d="M207.238 153.127L195.037 158.606L207.979 157.976" stroke="white" stroke-linecap="round" stroke-linejoin="round"/>
</g>
<path d="M205.113 82.2251C202.11 82.5761 194.329 87.8801 193.796 88.4131C193.263 88.9461 191.144 90.1811 190.26 90.8896C190.26 90.8896 172.06 102.206 170.455 103.24C168.849 104.273 165.684 106.418 165.859 107.14C166.035 107.861 156.486 123.39 156.486 123.39C156.486 123.39 153.659 127.101 156.311 130.462C158.963 133.822 161.439 131.521 162.674 130.819C163.909 130.117 173.64 120.913 173.64 120.913L182.616 142.363C182.616 142.363 195.044 134.03 208.304 134.563L199.464 99.9051C199.464 99.9051 211.665 90.7076 212.016 87.5551C212.367 84.4026 208.122 81.8676 205.113 82.2251Z" fill="white"/>
<path d="M205.112 82.2251C203.91 82.3616 201.94 83.2976 199.977 84.4091C200.425 84.3231 200.888 84.3709 201.309 84.5467C201.73 84.7224 202.09 85.0182 202.343 85.3971C203.806 87.2756 200.673 93.3206 200.673 93.3206C200.673 93.3206 199.373 84.9616 199.425 87.4706C199.477 89.9796 198.775 97.6886 198.775 97.6886C198.775 97.6886 194.602 92.6836 194.81 93.9381C195.018 95.1926 197.728 106.867 199.399 111.248C201.069 115.629 198.144 127.933 196.48 131.482C194.816 135.031 195.83 116.467 193.978 121.05C192.125 125.632 185.866 138.379 184.403 139.633C182.941 140.888 184.871 122.623 185.391 120.244C184.741 122.233 180.445 134.83 180.445 134.83L174.595 119.815C174.595 119.815 164.585 111.677 165.625 113.139C166.665 114.602 169.174 119.191 169.174 119.191C169.174 119.191 163.122 117.936 164.169 118.352C165.215 118.768 169.798 121.063 169.798 121.063C169.798 121.063 160.418 127.771 157.708 128.577C156.979 128.791 156.229 128.929 155.472 128.986C155.667 129.531 155.95 130.04 156.31 130.494C158.962 133.855 161.439 131.554 162.674 130.852C163.909 130.15 173.639 120.946 173.639 120.946L182.616 142.363C182.616 142.363 195.044 134.03 208.304 134.563L199.464 99.9051C199.464 99.9051 211.664 90.7076 212.015 87.5551C212.366 84.4026 208.122 81.8676 205.112 82.2251Z" fill="url(#paint7_linear)"/>
<path opacity="0.5" d="M205.112 82.2251C203.91 82.3616 201.94 83.2976 199.977 84.4091C200.425 84.3231 200.888 84.3709 201.309 84.5467C201.73 84.7224 202.09 85.0182 202.343 85.3971C203.806 87.2756 200.673 93.3206 200.673 93.3206C200.673 93.3206 199.373 84.9616 199.425 87.4706C199.477 89.9796 198.775 97.6886 198.775 97.6886C198.775 97.6886 194.602 92.6836 194.81 93.9381C195.018 95.1926 197.728 106.867 199.399 111.248C201.069 115.629 198.144 127.933 196.48 131.482C194.816 135.031 195.83 116.467 193.978 121.05C192.125 125.632 185.866 138.379 184.403 139.633C182.941 140.888 184.871 122.623 185.391 120.244C184.741 122.233 180.445 134.83 180.445 134.83L174.595 119.815C174.595 119.815 164.585 111.677 165.625 113.139C166.665 114.602 169.174 119.191 169.174 119.191C169.174 119.191 163.122 117.936 164.169 118.352C165.215 118.768 169.798 121.063 169.798 121.063C169.798 121.063 160.418 127.771 157.708 128.577C156.979 128.791 156.229 128.929 155.472 128.986C155.667 129.531 155.95 130.04 156.31 130.494C158.962 133.855 161.439 131.554 162.674 130.852C163.909 130.15 173.639 120.946 173.639 120.946L182.616 142.363C182.616 142.363 195.044 134.03 208.304 134.563L199.464 99.9051C199.464 99.9051 211.664 90.7076 212.015 87.5551C212.366 84.4026 208.122 81.8676 205.112 82.2251Z" fill="white"/>
<path d="M205.113 82.2251C202.11 82.5761 194.329 87.8801 193.796 88.4131C193.263 88.9461 191.144 90.1811 190.26 90.8896C190.26 90.8896 172.06 102.206 170.455 103.24C168.849 104.273 165.684 106.418 165.859 107.14C166.035 107.861 156.486 123.39 156.486 123.39C156.486 123.39 153.659 127.101 156.311 130.462C158.963 133.822 161.439 131.521 162.674 130.819C163.909 130.117 173.64 120.913 173.64 120.913L182.616 142.363C182.616 142.363 195.044 134.03 208.304 134.563L199.464 99.9051C199.464 99.9051 211.665 90.7076 212.016 87.5551C212.367 84.4026 208.122 81.8676 205.113 82.2251Z" stroke="#263238" stroke-linecap="round" stroke-linejoin="round"/>
<path d="M182.616 142.363C182.093 137.49 182.344 132.565 183.357 127.771Z" fill="white"/>
<path d="M182.616 142.363C182.093 137.49 182.344 132.565 183.357 127.771" stroke="#263238" stroke-linecap="round" stroke-linejoin="round"/>
<path d="M180.933 131.527C180.933 131.527 180.933 128.537 184.293 119.177Z" fill="white"/>
<path d="M180.933 131.527C180.933 131.527 180.933 128.537 184.293 119.177" stroke="#263238" stroke-linecap="round" stroke-linejoin="round"/>
<path d="M166.743 113.165L173.639 120.946L166.567 115.817" fill="white"/>
<path d="M166.743 113.165L173.639 120.946L166.567 115.817" stroke="#263238" stroke-linecap="round" stroke-linejoin="round"/>
<path d="M199.457 90.0049V99.9044L201.752 87.1709" fill="white"/>
<path d="M199.457 90.0049V99.9044L201.752 87.1709" stroke="#263238" stroke-linecap="round" stroke-linejoin="round"/>
<path d="M185.45 120.022C185.423 120.094 185.404 120.168 185.392 120.243C185.47 120.003 185.496 119.912 185.45 120.022Z" fill="#263238"/>
<path d="M189.493 77.6357C189.005 77.6393 188.53 77.4862 188.136 77.199C187.742 76.9118 187.451 76.5056 187.305 76.0403C187.159 75.5751 187.167 75.0753 187.327 74.6148C187.487 74.1542 187.79 73.7572 188.193 73.4822L214.407 55.5032C214.654 55.3325 214.931 55.212 215.224 55.1485C215.517 55.085 215.819 55.0798 216.114 55.1332C216.409 55.1866 216.69 55.2976 216.942 55.4598C217.194 55.622 217.412 55.8322 217.583 56.0785C217.753 56.3247 217.874 56.6022 217.937 56.8951C218.001 57.1879 218.006 57.4904 217.953 57.7852C217.899 58.0801 217.788 58.3615 217.626 58.6135C217.464 58.8655 217.254 59.083 217.007 59.2537L190.793 77.2392C190.41 77.5008 189.957 77.6391 189.493 77.6357Z" fill="#263238"/>
<path d="M196.299 73.8395L216.683 59.8125" stroke="white" stroke-linecap="round" stroke-linejoin="round"/>
<path d="M193.997 69.5625L214.381 55.542" stroke="white" stroke-linecap="round" stroke-linejoin="round"/>
<path d="M182.83 145.32C182.83 145.32 163.194 168.155 162.765 173.355C162.336 178.555 166.229 183.755 170.994 185.055C175.758 186.355 222.207 187.388 222.207 187.388L221.772 178.724L180.529 172.49L194.179 159.308" fill="#263238"/>
<path d="M182.83 145.32C182.83 145.32 163.194 168.155 162.765 173.355C162.336 178.555 166.229 183.755 170.994 185.055C175.758 186.355 222.207 187.388 222.207 187.388L221.772 178.724L180.529 172.49L194.179 159.308" stroke="#263238" stroke-linecap="round" stroke-linejoin="round"/>
<g opacity="0.35">
<path opacity="0.35" d="M213.522 182.559L216.662 182.916" stroke="white" stroke-linecap="round" stroke-linejoin="round"/>
<path opacity="0.35" d="M169.362 171.69L168.465 172.828C168.465 172.828 174.068 172.548 172.95 173.666C172.207 174.545 171.721 175.611 171.546 176.747L174.906 175.909C174.906 175.909 172.956 179.809 174.347 179.555C175.412 179.293 176.445 178.916 177.428 178.431L209.928 182.142" stroke="white" stroke-linecap="round" stroke-linejoin="round"/>
<path opacity="0.35" d="M188.082 141.42C188.082 141.42 182.752 145.066 185.28 145.625C187.809 146.184 190.883 145.346 190.038 146.464C188.812 147.836 187.51 149.138 186.138 150.364L173.626 166.25" stroke="white" stroke-linecap="round" stroke-linejoin="round"/>
<path opacity="0.35" d="M185.28 145.645C185.28 145.645 188.361 141.16 195.368 140.881" stroke="white" stroke-linecap="round" stroke-linejoin="round"/>
</g>
<path d="M220.875 178.646C220.875 178.646 225.757 177.534 226.647 179.088C227.538 180.641 227.98 184.411 227.98 186.186C227.98 187.96 229.28 190.846 229.085 193.511C228.89 196.176 224.873 199.056 223.54 199.056C222.208 199.056 222.24 191.067 220.875 187.96C219.51 184.853 219.328 180.42 220.875 178.646Z" fill="white" stroke="#263238" stroke-linecap="round" stroke-linejoin="round"/>
<path d="M223.955 198.985C225.554 198.543 228.882 195.936 229.084 193.512C229.311 190.847 227.979 187.961 227.979 186.186C227.979 184.412 227.53 180.642 226.646 179.088C226.25 178.393 225.054 178.23 223.851 178.263C223.529 178.592 223.288 178.992 223.145 179.431C223.003 179.87 222.965 180.335 223.032 180.791C223.344 183.333 225.886 193.655 224.937 196.515C224.658 197.356 224.33 198.181 223.955 198.985V198.985Z" fill="white" stroke="#263238" stroke-linecap="round" stroke-linejoin="round"/>
<path d="M226.647 179.121C226.406 178.78 226.042 178.547 225.633 178.471C224.794 179.618 224.388 181.025 224.489 182.442C224.768 186.674 225.62 190.067 225.899 193.733C226.102 195.344 225.853 196.981 225.178 198.458C226.842 197.464 228.928 195.455 229.078 193.551C229.305 190.886 227.973 188 227.973 186.225C227.973 184.451 227.531 180.642 226.647 179.121Z" fill="#263238" stroke="#263238" stroke-linecap="round" stroke-linejoin="round"/>
<rect x="106.818" y="75.9199" width="26" height="5.85437" rx="2.92718" transform="rotate(48 106.818 75.9199)" fill="#263238"/>
<rect x="124.054" y="83.5088" width="26" height="6.18501" rx="3.0925" transform="rotate(137.9 124.054 83.5088)" fill="#263238"/>
<defs>
<linearGradient id="paint0_linear" x1="104.899" y1="2.625" x2="110.638" y2="2.69819" gradientUnits="userSpaceOnUse">
<stop stop-color="#82C132"/>
<stop offset="1" stop-color="#42A132"/>
</linearGradient>
<linearGradient id="paint1_linear" x1="75.8437" y1="24.0391" x2="81.8561" y2="24.121" gradientUnits="userSpaceOnUse">
<stop stop-color="#82C132"/>
<stop offset="1" stop-color="#42A132"/>
</linearGradient>
<linearGradient id="paint2_linear" x1="130.462" y1="16.0478" x2="152.402" y2="16.2584" gradientUnits="userSpaceOnUse">
<stop stop-color="#82C132"/>
<stop offset="1" stop-color="#42A132"/>
</linearGradient>
<linearGradient id="paint3_linear" x1="64.064" y1="-1.73479e-05" x2="138.658" y2="1.76786" gradientUnits="userSpaceOnUse">
<stop stop-color="#82C132"/>
<stop offset="1" stop-color="#42A132"/>
</linearGradient>
<linearGradient id="paint4_linear" x1="145.319" y1="47.6768" x2="165.499" y2="48.1029" gradientUnits="userSpaceOnUse">
<stop stop-color="#82C132"/>
<stop offset="1" stop-color="#42A132"/>
</linearGradient>
<linearGradient id="paint5_linear" x1="113.961" y1="43.5469" x2="241.647" y2="47.7555" gradientUnits="userSpaceOnUse">
<stop stop-color="#82C132"/>
<stop offset="1" stop-color="#42A132"/>
</linearGradient>
<linearGradient id="paint6_linear" x1="111.675" y1="115.784" x2="124.329" y2="116.06" gradientUnits="userSpaceOnUse">
<stop stop-color="#82C132"/>
<stop offset="1" stop-color="#42A132"/>
</linearGradient>
<linearGradient id="paint7_linear" x1="156.603" y1="82.1914" x2="213.253" y2="83.3603" gradientUnits="userSpaceOnUse">
<stop stop-color="#82C132"/>
<stop offset="1" stop-color="#42A132"/>
</linearGradient>
</defs>
</svg>
