<svg width="207" height="31" viewBox="0 0 207 31" fill="none" xmlns="http://www.w3.org/2000/svg">
<path d="M14.1878 31.0002C13.6908 30.9365 13.191 30.8889 12.6968 30.8061C9.77786 30.3175 7.21673 29.0603 5.01343 27.0345C2.46912 24.686 0.892953 21.7738 0.240524 18.3328C0.0453701 17.2943 -0.0314497 16.2361 0.0116081 15.1794C0.0519812 14.0505 0.946245 12.91 2.07508 12.5284C2.51068 12.3783 2.97383 12.3316 3.42963 12.3916C3.88542 12.4517 4.32198 12.617 4.70639 12.8751C5.0908 13.1332 5.41304 13.4774 5.64883 13.8817C5.88461 14.286 6.02779 14.7399 6.06757 15.2092C6.135 15.9818 6.12975 16.7598 6.30981 17.5221C6.94125 20.2319 8.44959 22.2638 10.8106 23.6232C12.1768 24.4095 13.6585 24.7534 15.2242 24.7514C19.2042 24.7458 23.1842 24.7458 27.1641 24.7514C28.9672 24.7514 30.329 26.2155 30.2555 28.0579C30.203 29.373 29.2486 30.5694 27.9845 30.9055C27.8699 30.9357 27.7552 30.9684 27.6405 30.9998L14.1878 31.0002Z" fill="white"/>
<path d="M206.998 22.0241C206.848 22.5149 206.675 22.9887 206.241 23.3069C205.9 23.5552 205.53 23.6992 205.112 23.6997C201.742 23.6997 198.373 23.7071 195.003 23.6947C194.222 23.6918 193.631 23.3016 193.29 22.5773C192.941 21.8358 193.051 21.1252 193.532 20.4821C194.467 19.2356 195.414 17.9991 196.357 16.7576C197.751 14.9213 199.146 13.0854 200.541 11.2499C200.585 11.1932 200.664 11.1365 200.63 11.0608C200.581 10.9503 200.466 10.9954 200.379 10.995C198.926 10.9921 197.476 10.995 196.025 10.9921C195.379 10.9921 194.785 10.8208 194.359 10.2857C193.839 9.63185 193.76 8.88654 194.085 8.12964C194.439 7.30487 195.137 6.98746 195.975 6.98208C197.81 6.97049 199.645 6.97794 201.48 6.97794C202.528 6.97794 203.575 6.97215 204.622 6.98001C205.591 6.98705 206.358 7.5151 206.617 8.36304C206.813 9.00117 206.725 9.61074 206.334 10.1487C205.695 11.0248 205.042 11.8901 204.389 12.7559C202.717 14.9768 201.044 17.1977 199.371 19.4186C199.315 19.4918 199.206 19.5646 199.242 19.6582C199.29 19.7823 199.425 19.7236 199.521 19.7236C201.253 19.7273 202.984 19.7467 204.715 19.7186C205.746 19.7016 206.722 20.091 206.999 21.4567L206.998 22.0241Z" fill="white"/>
<path d="M156.838 15.3034C156.761 15.4743 156.787 15.6034 156.787 15.728C156.785 17.6623 156.787 19.5961 156.785 21.5303C156.785 22.2301 156.64 22.8765 156.121 23.3893C155.508 23.9935 154.566 24.1756 153.751 23.8312C152.979 23.5039 152.479 22.735 152.478 21.8494C152.476 17.5136 152.476 13.1778 152.478 8.84225C152.478 7.91941 152.958 7.14802 153.794 6.83268C154.63 6.51734 155.442 6.62577 156.099 7.29286C156.881 8.08659 157.519 9.01027 158.213 9.8818C159.637 11.6667 161.047 13.4627 162.463 15.2538C162.498 15.2923 162.535 15.3288 162.574 15.363C162.654 15.2389 162.621 15.1201 162.621 15.0088C162.624 12.981 162.621 10.9495 162.625 8.92005C162.627 7.87885 163.206 7.05988 164.122 6.77144C165.567 6.31622 166.93 7.35328 166.933 8.92585C166.94 12.2199 166.941 15.5142 166.935 18.8086V21.7099C166.933 22.7503 166.419 23.5478 165.545 23.8751C164.671 24.2025 163.679 23.9277 163.053 23.1401C161.037 20.6034 159.026 18.062 157.021 15.5161C156.97 15.4516 156.915 15.392 156.839 15.3034" fill="white"/>
<path d="M141.309 23.9994C138.499 23.9323 136.114 22.9114 134.328 20.6304C133.228 19.2233 132.641 17.5986 132.568 15.7885C132.447 12.8412 133.513 10.4344 135.748 8.59736C137.242 7.37118 138.978 6.76409 140.891 6.68422C143.002 6.59607 144.946 7.12371 146.659 8.4041C148.646 9.88852 149.808 11.8886 150.087 14.4047C150.596 19.0284 147.439 23.1109 142.86 23.8694C142.348 23.9522 141.834 24.0143 141.309 24.0002L141.309 23.9994ZM145.723 15.3403C145.708 15.0399 145.723 14.7424 145.669 14.4473C145.277 12.3181 143.916 10.981 141.797 10.7543C140.368 10.6011 139.066 10.9926 138.074 12.1149C136.803 13.5522 136.598 16.0563 137.505 17.7646C138.704 20.0216 141.65 20.4669 143.57 19.3694C145.095 18.4971 145.706 17.076 145.723 15.3403Z" fill="white"/>
<path d="M48.3993 15.3599C48.3993 13.3735 48.3993 11.3861 48.3993 9.39778C48.3993 7.9022 49.2807 6.98928 50.741 6.97977C51.9021 6.97232 53.064 6.95535 54.2244 6.98308C56.3323 7.03356 58.3174 7.52685 60.0195 8.87305C61.9078 10.3666 62.8517 12.3712 62.9833 14.7987C63.0851 16.6825 62.685 18.4313 61.6393 19.9952C60.332 21.951 58.4696 23.0315 56.241 23.507C55.5705 23.6473 54.8873 23.7137 54.203 23.7052C53.0108 23.6957 51.8181 23.7052 50.6259 23.7023C49.2972 23.7023 48.4054 22.7894 48.4009 21.4175C48.3953 19.3984 48.4009 17.3789 48.4009 15.3599H48.3993ZM52.7132 15.3632V19.3802C52.7132 19.5843 52.7334 19.7357 52.991 19.7262C53.6636 19.7018 54.3386 19.773 55.0096 19.6559C56.5034 19.3956 57.6339 18.6283 58.2492 17.1791C58.6145 16.3212 58.6816 15.4145 58.5415 14.4912C58.3065 12.9381 57.4881 11.8704 56.0383 11.3225C55.09 10.9641 54.1033 11.013 53.119 11.0006C52.8117 10.9964 52.7039 11.0788 52.7084 11.4094C52.7257 12.7271 52.7156 14.0451 52.7156 15.3632" fill="white"/>
<path d="M21.171 12.3738C23.1897 12.3738 25.2112 12.3667 27.2315 12.3762C28.9324 12.3841 30.2732 13.7932 30.2594 15.5354C30.2449 17.2077 28.9029 18.6197 27.2565 18.6263C23.1995 18.6429 19.1422 18.6429 15.0844 18.6263C13.5119 18.6206 12.1545 17.2959 12.0822 15.7564C12.0015 14.0084 13.1138 12.603 14.7545 12.3891C14.9243 12.3728 15.0949 12.3676 15.2653 12.3733C17.2341 12.3733 19.2033 12.3733 21.1727 12.3733" fill="white"/>
<path d="M21.1766 0.000275316C23.1968 0.000275316 25.217 0.000275316 27.237 0.000275316C28.8487 0.000275316 30.1907 1.31047 30.2569 2.94635C30.3259 4.6352 29.1196 6.06623 27.5067 6.21976C27.2511 6.24376 26.9968 6.25245 26.7396 6.25245C22.9381 6.25245 19.1365 6.25245 15.335 6.25245C14.8541 6.25245 14.3846 6.18417 13.9361 5.99381C12.6885 5.46327 11.9174 4.09639 12.0906 2.71501C12.2614 1.34937 13.3422 0.211744 14.6555 0.0188978C14.7995 0.00274102 14.9444 -0.00306683 15.0891 0.00151684C17.118 0.00151684 19.1466 0.00151684 21.175 0.00151684" fill="white"/>
<path d="M177.31 15.3019C177.31 13.1446 177.306 10.9877 177.312 8.83076C177.315 7.76391 178.025 6.89982 179.03 6.70905C180.083 6.50958 181.074 7.05004 181.458 8.03662C181.57 8.33462 181.626 8.65195 181.622 8.97147C181.622 10.1937 181.622 11.4156 181.622 12.6372C181.622 13.0717 181.628 13.0287 182.058 13.0825C182.857 13.1822 183.406 12.9244 183.925 12.2453C185.184 10.6003 186.546 9.03809 187.863 7.43863C188.581 6.56586 189.77 6.41316 190.649 7.09019C191.063 7.41118 191.337 7.88736 191.41 8.41466C191.483 8.94195 191.35 9.4775 191.039 9.90424C190.579 10.5449 190.053 11.135 189.551 11.7433C188.729 12.7415 187.906 13.7396 187.074 14.7291C186.93 14.9009 186.97 15.0064 187.09 15.1628C188.47 16.9692 189.842 18.7826 191.221 20.5902C191.739 21.2693 191.902 22.0018 191.504 22.7873C191.098 23.5893 190.444 24.0333 189.542 23.9894C188.909 23.9588 188.392 23.653 188.002 23.1419C186.456 21.1174 184.913 19.0905 183.374 17.0611C183.224 16.8637 183.066 16.7714 182.824 16.7867C182.534 16.8039 182.243 16.8039 181.953 16.7867C181.691 16.7705 181.614 16.8794 181.615 17.1389C181.624 18.6791 181.627 20.2203 181.615 21.7609C181.605 23.2673 180.319 24.2911 178.906 23.934C177.959 23.6944 177.309 22.8386 177.307 21.8032C177.302 19.6355 177.307 17.4679 177.307 15.3002" fill="white"/>
<path d="M65.254 12.9633C65.254 11.5927 65.2423 10.2217 65.2589 8.85104C65.2694 7.98654 65.638 7.30082 66.4063 6.91431C67.1746 6.52779 67.9631 6.57248 68.6785 7.07984C69.3075 7.52471 69.5634 8.18684 69.5667 8.95243C69.5707 11.62 69.5667 14.2871 69.5695 16.9543C69.5695 17.7931 69.7956 18.5409 70.402 19.1476C71.054 19.7986 71.8526 19.9753 72.719 19.9293C73.0619 19.9186 73.4001 19.8442 73.717 19.7096C74.8854 19.1865 75.3816 18.214 75.3909 16.9684C75.4111 14.2904 75.399 11.6125 75.3965 8.93463C75.3965 8.06559 75.7195 7.36828 76.4717 6.95445C77.2533 6.52489 78.0563 6.56048 78.8012 7.06949C79.4177 7.49036 79.6995 8.12849 79.7036 8.86759C79.7173 11.5347 79.7314 14.2023 79.6991 16.8694C79.683 18.2152 79.3479 19.4952 78.6559 20.6597C77.7378 22.2042 76.4111 23.1986 74.7255 23.6848C73.04 24.1711 71.356 24.143 69.7144 23.5127C67.2707 22.5745 65.8758 20.7197 65.382 18.1213C65.2927 17.6411 65.2499 17.153 65.2544 16.6642C65.2597 15.4314 65.2544 14.199 65.2544 12.9662" fill="white"/>
<path d="M34.2135 15.3582V9.42753C34.2135 9.06378 34.2471 8.70415 34.3827 8.36481C34.7634 7.413 35.5059 6.99048 36.4643 6.98303C38.911 6.96399 41.358 6.96399 43.8054 6.98303C44.7638 6.98882 45.4716 7.51066 45.7239 8.32426C45.9807 9.1544 45.7263 10.0359 45.0735 10.5639C44.6617 10.895 44.176 10.9893 43.6697 10.9906C42.0952 10.9939 40.5174 10.9906 38.9416 10.9906C38.5319 10.9906 38.531 10.9931 38.5302 11.4205C38.5302 11.8777 38.5302 12.3348 38.5302 12.792C38.5302 13.2058 38.5302 13.2058 38.9489 13.2058C39.8823 13.2058 40.8166 13.2373 41.7484 13.198C42.895 13.1495 43.717 13.9387 43.7319 15.0441C43.7464 16.1391 42.9358 16.9063 41.7585 16.9183C40.8154 16.9291 39.8714 16.9324 38.9279 16.9142C38.6114 16.908 38.5133 17.0122 38.5242 17.3334C38.5456 18.0025 38.5428 18.673 38.5242 19.3417C38.5165 19.6335 38.6069 19.7286 38.8944 19.7266C40.6466 19.7158 42.3988 19.7092 44.151 19.7266C44.9181 19.7348 45.5511 20.0576 45.9024 20.7893C46.2536 21.521 46.1947 22.2377 45.7409 22.9036C45.4001 23.4043 44.9072 23.6874 44.3149 23.6898C41.6099 23.7035 38.9025 23.7101 36.1963 23.6898C35.0525 23.6803 34.2204 22.6855 34.2152 21.3836C34.2071 19.3748 34.2131 17.3661 34.2127 15.3573" fill="white"/>
<path d="M103.816 6.67578C104.587 6.67578 105.258 7.14672 105.646 8.1093C106.598 10.477 107.548 12.8451 108.496 15.2135C109.245 17.0805 109.994 18.9473 110.744 20.8139C110.943 21.3105 111.014 21.8204 110.916 22.3451C110.754 23.2142 110.095 23.8175 109.172 23.9706C108.307 24.1138 107.508 23.7141 107.048 22.9079C106.858 22.5769 106.734 22.2135 106.604 21.856C106.528 21.6491 106.424 21.5555 106.196 21.5564C104.464 21.5646 102.733 21.5646 101.001 21.5564C100.773 21.5564 100.667 21.6495 100.593 21.856C100.458 22.2346 100.318 22.6133 100.113 22.9605C99.6599 23.7265 98.8673 24.1093 98.0235 23.9711C97.095 23.82 96.4623 23.2386 96.2746 22.3484C96.1636 21.822 96.2544 21.3105 96.451 20.8201C98.1451 16.5946 99.8407 12.3696 101.538 8.14488C101.919 7.19555 102.58 6.65964 103.817 6.67744L103.816 6.67578ZM103.623 13.3579C103.565 13.4382 103.539 13.4597 103.53 13.4875C103.046 14.9105 102.562 16.3339 102.08 17.7578C101.999 17.9924 102.144 17.9755 102.285 17.9755C103.155 17.9755 104.025 17.9693 104.895 17.9792C105.149 17.9821 105.169 17.8898 105.092 17.6746C104.9 17.1366 104.724 16.592 104.54 16.0507C104.241 15.1701 103.941 14.2899 103.623 13.3579" fill="white"/>
<path d="M89.3235 16.4443C89.5823 15.7863 89.8108 15.2073 90.0381 14.6276C90.8607 12.5275 91.6829 10.427 92.5049 8.32614C92.7625 7.66649 93.1024 7.06975 93.7969 6.8202C94.6487 6.5148 95.4606 6.63977 96.103 7.30108C96.7599 7.97769 96.8664 8.83226 96.5225 9.69882C94.8303 13.9489 93.1257 18.1937 91.4088 22.4333C90.8944 23.7083 89.9554 24.2243 88.7442 23.9334C87.9722 23.7484 87.533 23.2038 87.2447 22.49C86.803 21.3892 86.3611 20.2886 85.9189 19.1884C84.6633 16.064 83.4072 12.94 82.1508 9.81635C81.58 8.40022 82.2401 6.99153 83.6148 6.71261C84.6891 6.49576 85.6052 7.01429 86.046 8.11964C86.6387 9.60447 87.2128 11.0992 87.7958 12.5865C88.2593 13.7698 88.7236 14.9527 89.1887 16.1352C89.219 16.2121 89.2545 16.287 89.3235 16.4439" fill="white"/>
<path d="M117.124 6.81974C118.834 6.81974 120.545 6.81602 122.255 6.81974C122.887 6.82181 123.477 6.96872 123.906 7.48891C124.439 8.13407 124.534 8.8678 124.217 9.63587C123.873 10.4668 123.194 10.8074 122.354 10.8273C121.463 10.8484 120.571 10.8443 119.68 10.8273C119.367 10.8211 119.269 10.9225 119.27 11.2453C119.28 14.6883 119.281 18.1314 119.275 21.5745C119.275 22.905 118.359 23.8589 117.103 23.8576C115.89 23.8576 114.968 22.9099 114.966 21.6445C114.96 19.1685 114.966 16.6925 114.966 14.2162C114.966 13.2387 114.966 12.2611 114.966 11.2833C114.966 10.836 114.966 10.8343 114.54 10.8339C113.67 10.8339 112.799 10.8397 111.928 10.8314C110.938 10.8219 110.227 10.329 109.953 9.4811C109.505 8.0931 110.433 6.83257 111.931 6.82181C113.662 6.8094 115.394 6.81892 117.125 6.81892" fill="white"/>
<path d="M130.233 15.3595C130.233 17.4948 130.24 19.6302 130.23 21.7656C130.226 22.878 129.577 23.7189 128.581 23.9494C127.189 24.2705 125.956 23.2872 125.919 21.8227C125.91 21.4502 125.916 21.0778 125.916 20.7074C125.916 16.8086 125.916 12.9099 125.916 9.01129C125.916 7.9465 126.417 7.14573 127.27 6.8217C128.749 6.25972 130.214 7.26988 130.228 8.89086C130.245 11.0473 130.232 13.2038 130.232 15.3603" fill="white"/>
<path d="M1.29299 4.42406C1.29299 2.69176 2.6572 1.31577 4.3666 1.32032C6.01665 1.32363 7.38368 2.73563 7.3857 4.43814C7.38772 6.14064 6.00009 7.56464 4.34116 7.56546C3.93969 7.56492 3.54227 7.4832 3.17166 7.32498C2.80105 7.16676 2.46454 6.93516 2.18139 6.64342C1.89824 6.35169 1.67402 6.00557 1.52157 5.62487C1.36913 5.24418 1.29145 4.8364 1.29299 4.42489" fill="#81C251"/>
<path d="M169.023 21.8428C169.034 20.0807 170.436 18.6426 172.132 18.6534C173.849 18.6646 175.228 20.1171 175.214 21.9007C175.201 23.6446 173.788 25.0458 172.057 25.028C170.376 25.0123 169.014 23.5796 169.024 21.8415" fill="#81C251"/>
</svg>
