<svg width="40" height="40" viewBox="0 0 40 40" fill="none" xmlns="http://www.w3.org/2000/svg">
<path d="M27.7923 3.33301H12.2219C6.54782 3.33301 3.33301 6.54782 3.33301 12.2219V27.7775C3.33301 33.4515 6.54782 36.6663 12.2219 36.6663H27.7923C33.4663 36.6663 36.6663 33.4515 36.6663 27.7775V12.2219C36.6663 6.54782 33.4663 3.33301 27.7923 3.33301Z" fill="url(#paint0_linear)"/>
<path d="M12.2811 15.6143C11.5255 15.6143 10.9033 16.2365 10.9033 17.0069V28.4587C10.9033 29.2143 11.5255 29.8365 12.2811 29.8365C13.0515 29.8365 13.6737 29.2143 13.6737 28.4587V17.0069C13.6737 16.2365 13.0515 15.6143 12.2811 15.6143Z" fill="white" fill-opacity="0.9"/>
<path d="M20.0584 10.1475C19.3029 10.1475 18.6807 10.7697 18.6807 11.5401V28.4586C18.6807 29.2141 19.3029 29.8364 20.0584 29.8364C20.8288 29.8364 21.451 29.2141 21.451 28.4586V11.5401C21.451 10.7697 20.8288 10.1475 20.0584 10.1475Z" fill="white" fill-opacity="0.9"/>
<path d="M27.7334 21.6592C26.963 21.6592 26.3408 22.2814 26.3408 23.0518V28.4592C26.3408 29.2147 26.963 29.837 27.7186 29.837C28.489 29.837 29.1112 29.2147 29.1112 28.4592V23.0518C29.1112 22.2814 28.489 21.6592 27.7334 21.6592Z" fill="white" fill-opacity="0.9"/>
<defs>
<linearGradient id="paint0_linear" x1="3.99968" y1="3.333" x2="37.3819" y2="4.06574" gradientUnits="userSpaceOnUse">
<stop stop-color="#82C132"/>
<stop offset="1" stop-color="#42A132"/>
</linearGradient>
</defs>
</svg>
