<svg width="246" height="256" viewBox="0 0 246 256" fill="none" xmlns="http://www.w3.org/2000/svg">
<path d="M114.262 15.5548C115.057 18.7067 114.668 12.9036 116.229 5.79849C117.791 -1.30663 120.46 1.58019 120.46 1.58019" stroke="#263238" stroke-linecap="round" stroke-linejoin="round"/>
<path d="M113.771 8.29705L118.667 6.29395" stroke="#263238" stroke-linecap="round" stroke-linejoin="round"/>
<path d="M122.716 3.88867C122.716 3.88867 119.77 9.93333 124.194 12.5079" stroke="#263238" stroke-linecap="round" stroke-linejoin="round"/>
<path d="M126.862 2.16992C126.862 2.16992 131.687 4.85054 128.665 10.6595" stroke="#263238" stroke-linecap="round" stroke-linejoin="round"/>
<path d="M123.553 5.93457L127.011 8.46202" stroke="#263238" stroke-linecap="round" stroke-linejoin="round"/>
<path d="M126.268 4.82715L123.558 9.13382" stroke="#263238" stroke-linecap="round" stroke-linejoin="round"/>
<path d="M20.8926 157.952C20.8926 157.952 12.6858 157.834 12.6445 164.916" stroke="#263238" stroke-linecap="round" stroke-linejoin="round"/>
<path d="M20.2105 162.417C20.0396 161.374 16.4694 160.06 15.8508 162.782C15.2322 165.504 19.6685 163.872 21.0412 162.599C21.0412 162.599 18.4961 165.074 19.2737 165.769" stroke="#263238" stroke-linecap="round" stroke-linejoin="round"/>
<path d="M20.7105 166.542C20.7105 166.542 19.6323 167.891 18.4658 167.249" stroke="#263238" stroke-linecap="round" stroke-linejoin="round"/>
<path d="M27.892 161.829L21.7354 168.08C21.7354 168.08 24.8343 164.94 26.6312 165.953C28.8699 167.179 25.9654 170.537 23.5735 168.133" stroke="#263238" stroke-linecap="round" stroke-linejoin="round"/>
<path d="M31.0028 163.514C31.0028 163.514 32.6348 170.99 24.21 171.255" stroke="#263238" stroke-linecap="round" stroke-linejoin="round"/>
<path d="M140.914 36.4158L143.883 36.9048L143.925 43.6506L150.429 31.791L160.692 33.476" stroke="#263238" stroke-linecap="round" stroke-linejoin="round"/>
<path d="M151.554 36.9893L156.067 44.9545" stroke="#263238" stroke-linecap="round" stroke-linejoin="round"/>
<path d="M157.227 37.9189L149.149 43.8163" stroke="#263238" stroke-linecap="round" stroke-linejoin="round"/>
<path d="M100.34 48.4234C99.5801 47.4572 95.2027 48.1465 96.0923 51.2454C96.982 54.3444 100.599 50.2144 101.289 48.1465C101.289 48.1465 100.081 52.0997 101.289 52.3648" stroke="#263238" stroke-linecap="round" stroke-linejoin="round"/>
<path d="M103.692 45.2354L102.714 48.7113C102.714 48.7113 103.203 46.9439 104.063 46.9439C105.118 46.9439 104.735 48.7113 103.385 48.346" stroke="#263238" stroke-linecap="round" stroke-linejoin="round"/>
<path d="M186.22 88.0791L184.158 95.5318L188.665 100.469" stroke="#263238" stroke-linecap="round" stroke-linejoin="round"/>
<path d="M188.8 91.1064L193.961 95.4249" stroke="#263238" stroke-linecap="round" stroke-linejoin="round"/>
<path d="M192.352 90.0459L190.119 95.5309" stroke="#263238" stroke-linecap="round" stroke-linejoin="round"/>
<path d="M195.983 94.8252C195.983 94.8252 196.03 96.3805 195.358 96.5926" stroke="#263238" stroke-linecap="round" stroke-linejoin="round"/>
<path d="M196.637 89.3926L199.753 91.7079" stroke="#263238" stroke-linecap="round" stroke-linejoin="round"/>
<path d="M200.907 87.4893L197.832 98.5652" stroke="#263238" stroke-linecap="round" stroke-linejoin="round"/>
<path d="M201.06 83.6426L206.056 89.2984L203.929 95.4845" stroke="#263238" stroke-linecap="round" stroke-linejoin="round"/>
<path d="M63.4717 229.586L70.7005 208.07L79.467 217.856L63.4717 229.586Z" stroke="#263238" stroke-linecap="round" stroke-linejoin="round"/>
<path d="M77.3157 219.429L75.4658 217.314L77.4395 215.605" stroke="#263238" stroke-linecap="round" stroke-linejoin="round"/>
<path d="M20.7427 108.703C24.4974 107.147 26.2803 102.843 24.7251 99.0883C23.1699 95.3337 18.8654 93.5507 15.1108 95.1059C11.3562 96.6611 9.57325 100.966 11.1285 104.72C12.6837 108.475 16.9881 110.258 20.7427 108.703Z" stroke="#263238" stroke-linecap="round" stroke-linejoin="round"/>
<path d="M26.0894 103.627C30.5991 103.627 34.255 99.9712 34.255 95.4615C34.255 90.9518 30.5991 87.2959 26.0894 87.2959C21.5797 87.2959 17.9238 90.9518 17.9238 95.4615C17.9238 99.9712 21.5797 103.627 26.0894 103.627Z" stroke="#263238" stroke-linecap="round" stroke-linejoin="round"/>
<path d="M19.3726 94.6895L18.377 98.1478" stroke="#263238" stroke-linecap="round" stroke-linejoin="round"/>
<path d="M20.7811 95.1191L19.373 100.103" stroke="#263238" stroke-linecap="round" stroke-linejoin="round"/>
<path d="M22.26 95.9561L20.7812 101.594" stroke="#263238" stroke-linecap="round" stroke-linejoin="round"/>
<path d="M23.9032 97.6113L22.8486 102.961" stroke="#263238" stroke-linecap="round" stroke-linejoin="round"/>
<path d="M24.8283 99.3545L23.9033 103.331" stroke="#263238" stroke-linecap="round" stroke-linejoin="round"/>
<path d="M10.8892 92.4749C10.2471 92.2805 8.4855 93.9537 9.85233 95.079C11.2192 96.2042 11.5668 93.2055 11.2309 92.0566C11.2309 92.0566 11.9202 94.2188 12.5447 93.9596" stroke="#263238" stroke-linecap="round" stroke-linejoin="round"/>
<path d="M20.3877 83.0303L22.7443 87.3193C22.7443 87.3193 21.566 85.1748 22.3967 84.3735C23.41 83.3838 24.7533 85.4752 23.0565 86.3531" stroke="#263238" stroke-linecap="round" stroke-linejoin="round"/>
<path d="M63.4473 82.5176L66.776 85.6695" stroke="#263238" stroke-linecap="round" stroke-linejoin="round"/>
<path d="M66.775 81.6982L63.9883 85.8576" stroke="#263238" stroke-linecap="round" stroke-linejoin="round"/>
<path d="M70.0508 82.8935L73.3795 81.6504" stroke="#263238" stroke-linecap="round" stroke-linejoin="round"/>
<path d="M74.9766 78.1807L77.0032 79.9717" stroke="#263238" stroke-linecap="round" stroke-linejoin="round"/>
<path d="M78.554 76.0254L75.9912 84.8273" stroke="#263238" stroke-linecap="round" stroke-linejoin="round"/>
<path d="M224.05 74.2583L223.908 67.5303H228.993C228.993 67.5303 226.176 69.0856 227.473 72.703C228.769 76.3204 230.854 74.2583 230.854 74.2583" stroke="#263238" stroke-linecap="round" stroke-linejoin="round"/>
<path d="M215.437 189.03L221.222 185.047L228.881 185.583L229.358 195.292L223.738 199.316L216.797 198.809L215.437 189.03Z" stroke="#263238" stroke-linecap="round" stroke-linejoin="round"/>
<path d="M216.797 198.809L222.394 194.779L229.357 195.292" stroke="#263238" stroke-linecap="round" stroke-linejoin="round"/>
<path d="M222.4 194.78L221.222 185.047" stroke="#263238" stroke-linecap="round" stroke-linejoin="round"/>
<path d="M215.437 189.03L223.078 189.913L228.881 185.583" stroke="#263238" stroke-linecap="round" stroke-linejoin="round"/>
<path d="M223.077 189.914L223.737 199.317" stroke="#263238" stroke-linecap="round" stroke-linejoin="round"/>
<path d="M216.49 116.105L216.242 129.049L227.583 123.9L216.49 116.105Z" stroke="#263238" stroke-linecap="round" stroke-linejoin="round"/>
<path d="M216.491 116.105L221.894 126.41" stroke="#263238" stroke-linecap="round" stroke-linejoin="round"/>
<path d="M221.026 124.753L222.34 124.117L223.224 125.879" stroke="#263238" stroke-linecap="round" stroke-linejoin="round"/>
<path d="M117.607 114.88L122.297 119.905" stroke="#263238" stroke-linecap="round" stroke-linejoin="round"/>
<path d="M122.334 114.201L118.393 119.598" stroke="#263238" stroke-linecap="round" stroke-linejoin="round"/>
<path d="M124.253 111.568C124.478 111.464 124.735 111.453 124.968 111.538C125.201 111.623 125.391 111.797 125.496 112.022C125.533 112.103 125.559 112.188 125.572 112.275C125.802 113.407 123.946 114.879 123.946 114.879H126.592" stroke="#263238" stroke-linecap="round" stroke-linejoin="round"/>
<path d="M44.5938 39.5796C44.8183 36.7249 45.7586 33.9729 47.3279 31.5778C48.8972 29.1827 51.0448 27.2217 53.5724 25.876" stroke="#263238" stroke-linecap="round" stroke-linejoin="round"/>
<path d="M57.6211 57.5482C53.3243 56.5177 49.5959 53.8582 47.2227 50.1309" stroke="#263238" stroke-linecap="round" stroke-linejoin="round"/>
<path d="M78.6226 42.2969C78.2589 46.8088 76.1196 50.992 72.6744 53.928C69.2291 56.8641 64.7596 58.3129 60.2471 57.9564" stroke="#263238" stroke-linecap="round" stroke-linejoin="round"/>
<path d="M62.9639 23.9268C66.843 24.2377 70.4997 25.8637 73.3291 28.5355C76.1584 31.2074 77.9909 34.7651 78.5233 38.6201" stroke="#263238" stroke-linecap="round" stroke-linejoin="round"/>
<path d="M68.9737 54.0791C66.5922 55.4153 63.8924 56.079 61.1628 55.9992C58.4333 55.9195 55.7767 55.0994 53.4773 53.6265C51.1778 52.1537 49.322 50.0835 48.1082 47.6374C46.8944 45.1913 46.3682 42.4613 46.5861 39.7393" stroke="#263238" stroke-linecap="round" stroke-linejoin="round"/>
<path d="M47.5527 35.5204C48.3455 33.4595 49.5816 31.5981 51.1735 30.0679C52.7655 28.5378 54.6743 27.3763 56.765 26.6657C58.8556 25.9551 61.0769 25.7127 63.2716 25.9558C65.4662 26.199 67.5806 26.9216 69.4651 28.0725C71.3495 29.2234 72.9579 30.7746 74.1763 32.616C75.3948 34.4575 76.1935 36.5444 76.516 38.7288C76.8384 40.9132 76.6767 43.1418 76.0423 45.2568C75.4079 47.3718 74.3164 49.3215 72.8449 50.9679" stroke="#263238" stroke-linecap="round" stroke-linejoin="round"/>
<path d="M60.1299 30.1006L61.6086 40.9409L69.9392 38.3487" stroke="#263238" stroke-linecap="round" stroke-linejoin="round"/>
<path d="M191.504 62.0095C189.109 62.0326 186.764 61.3276 184.778 59.9879C182.793 58.6482 181.262 56.737 180.387 54.5075C179.513 52.278 179.336 49.8353 179.881 47.5032C180.426 45.1711 181.666 43.0595 183.438 41.4482" stroke="#263238" stroke-linecap="round" stroke-linejoin="round"/>
<path d="M202.574 54.0146C202 55.7078 201.048 57.2481 199.79 58.5189C198.533 59.7897 197.002 60.7577 195.315 61.3495" stroke="#263238" stroke-linecap="round" stroke-linejoin="round"/>
<path d="M187.469 39.0441C190.425 38.0038 193.673 38.1803 196.5 39.5349C199.326 40.8894 201.498 43.311 202.539 46.2671" stroke="#263238" stroke-linecap="round" stroke-linejoin="round"/>
<path d="M197.226 41.5488C198.447 42.3741 199.48 43.4489 200.255 44.7024C201.031 45.9558 201.532 47.3594 201.725 48.8205C201.918 50.2817 201.8 51.7673 201.377 53.1793C200.954 54.5912 200.237 55.8976 199.273 57.0122C198.308 58.1267 197.119 59.0242 195.782 59.6453C194.445 60.2665 192.992 60.5973 191.518 60.6158C190.045 60.6343 188.584 60.3402 187.232 59.7529C185.88 59.1656 184.668 58.2983 183.676 57.2084" stroke="#263238" stroke-linecap="round" stroke-linejoin="round"/>
<path d="M181.549 53.6482C180.922 51.8641 180.792 49.943 181.173 48.0906C181.553 46.2382 182.431 44.5242 183.711 43.1321C184.991 41.7401 186.626 40.7223 188.44 40.1878C190.254 39.6534 192.179 39.6222 194.009 40.0978" stroke="#263238" stroke-linecap="round" stroke-linejoin="round"/>
<path d="M187.41 43.751L191.393 50.1904L187.764 54.8976" stroke="#263238" stroke-linecap="round" stroke-linejoin="round"/>
<path d="M107.904 226.3C107.899 224.754 108.272 223.231 108.99 221.863C109.709 220.495 110.752 219.324 112.028 218.452" stroke="#263238" stroke-linecap="round" stroke-linejoin="round"/>
<path d="M124.23 232.826C123.106 234.007 121.696 234.879 120.137 235.357C118.578 235.834 116.922 235.902 115.329 235.552C113.736 235.203 112.261 234.448 111.045 233.362C109.829 232.275 108.914 230.893 108.388 229.35" stroke="#263238" stroke-linecap="round" stroke-linejoin="round"/>
<path d="M117.36 216.82C119.874 216.82 122.286 217.819 124.063 219.597C125.841 221.374 126.84 223.786 126.84 226.3" stroke="#263238" stroke-linecap="round" stroke-linejoin="round"/>
<path d="M117.36 234.659C115.143 234.659 113.016 233.778 111.449 232.21C109.881 230.642 109 228.516 109 226.299V226.299" stroke="#263238" stroke-linecap="round" stroke-linejoin="round"/>
<path d="M110.851 221.05C111.626 220.092 112.602 219.318 113.711 218.781C114.82 218.245 116.034 217.961 117.266 217.948C118.497 217.935 119.717 218.194 120.837 218.707C121.956 219.22 122.949 219.974 123.744 220.915C124.539 221.856 125.116 222.961 125.435 224.151C125.753 225.34 125.805 226.586 125.586 227.798C125.367 229.01 124.884 230.159 124.17 231.163C123.456 232.167 122.529 233 121.455 233.604" stroke="#263238" stroke-linecap="round" stroke-linejoin="round"/>
<path d="M116.063 231.979L117.359 226.3L115.551 221.657" stroke="#263238" stroke-linecap="round" stroke-linejoin="round"/>
<path d="M6.98926 254.885H245.347" stroke="#263238" stroke-linecap="round" stroke-linejoin="round"/>
<path d="M123.369 107.787L119.086 189.343L64.8174 186.496L65.2724 177.851L69.1009 104.934L103.271 106.728L123.369 107.787Z" fill="white"/>
<path opacity="0.2" d="M106.43 155.569L94.204 156.576L97.7725 171.975L65.2725 177.851L69.101 104.934L103.271 106.728L106.43 155.569Z" fill="black" fill-opacity="0.7"/>
<path d="M123.369 107.787L119.086 189.343L64.8174 186.496L65.2724 177.851L69.1009 104.934L103.271 106.728L123.369 107.787Z" stroke="#263238" stroke-linecap="round" stroke-linejoin="round"/>
<path d="M72.9297 110.511L87.0542 111.252" stroke="#263238" stroke-width="2" stroke-linecap="round" stroke-linejoin="round"/>
<path d="M72.7861 113.221L82.3931 113.728" stroke="#263238" stroke-width="2" stroke-linecap="round" stroke-linejoin="round"/>
<path d="M75.8936 119.806L116.519 121.938" stroke="#263238" stroke-width="2" stroke-linecap="round" stroke-linejoin="round"/>
<path d="M75.75 122.517L116.375 124.649" stroke="#263238" stroke-width="2" stroke-linecap="round" stroke-linejoin="round"/>
<path d="M75.5879 125.682L110.233 127.495" stroke="#263238" stroke-width="2" stroke-linecap="round" stroke-linejoin="round"/>
<path d="M75.6024 128.569L75.4287 131.873L78.7326 132.047L78.9064 128.743L75.6024 128.569Z" stroke="#263238" stroke-linecap="round" stroke-linejoin="round"/>
<path d="M81.5907 128.887L81.417 132.19L84.7209 132.364L84.8947 129.06L81.5907 128.887Z" stroke="#263238" stroke-linecap="round" stroke-linejoin="round"/>
<path d="M87.5722 129.204L87.3984 132.508L90.7024 132.682L90.8761 129.378L87.5722 129.204Z" stroke="#263238" stroke-linecap="round" stroke-linejoin="round"/>
<path d="M93.5614 129.521L93.3877 132.825L96.6916 132.999L96.8654 129.695L93.5614 129.521Z" stroke="#263238" stroke-linecap="round" stroke-linejoin="round"/>
<path d="M73.7286 119.689C73.7244 119.796 73.6991 119.902 73.654 120C73.6089 120.098 73.545 120.186 73.4659 120.259C73.3868 120.332 73.2941 120.388 73.1931 120.426C73.0921 120.463 72.9847 120.48 72.8771 120.475C72.6582 120.464 72.4527 120.366 72.3058 120.204C72.1589 120.041 72.0826 119.827 72.0939 119.608C72.1051 119.389 72.2028 119.183 72.3655 119.036C72.5282 118.889 72.7427 118.813 72.9616 118.824C73.0692 118.829 73.1747 118.855 73.2722 118.901C73.3697 118.947 73.4571 119.012 73.5296 119.092C73.602 119.171 73.6581 119.264 73.6944 119.366C73.7308 119.467 73.7469 119.575 73.7416 119.682L73.7286 119.689Z" fill="#263238"/>
<path d="M75.0615 135.62L115.687 137.752" stroke="#263238" stroke-width="2" stroke-linecap="round" stroke-linejoin="round"/>
<path d="M74.918 138.331L115.543 140.463" stroke="#263238" stroke-width="2" stroke-linecap="round" stroke-linejoin="round"/>
<path d="M74.7559 141.496L109.401 143.31" stroke="#263238" stroke-width="2" stroke-linecap="round" stroke-linejoin="round"/>
<path d="M74.7636 144.393L74.5898 147.697L77.8938 147.871L78.0675 144.567L74.7636 144.393Z" stroke="#263238" stroke-linecap="round" stroke-linejoin="round"/>
<path d="M80.7587 144.705L80.585 148.009L83.8889 148.183L84.0626 144.879L80.7587 144.705Z" stroke="#263238" stroke-linecap="round" stroke-linejoin="round"/>
<path d="M86.7401 145.015L86.5664 148.319L89.8703 148.493L90.0441 145.189L86.7401 145.015Z" stroke="#263238" stroke-linecap="round" stroke-linejoin="round"/>
<path d="M92.7216 145.333L92.5479 148.637L95.8518 148.81L96.0255 145.507L92.7216 145.333Z" stroke="#263238" stroke-linecap="round" stroke-linejoin="round"/>
<path d="M72.9037 135.503C72.8987 135.611 72.8724 135.717 72.8262 135.816C72.78 135.914 72.7149 136.002 72.6346 136.075C72.5543 136.148 72.4604 136.205 72.3582 136.241C72.256 136.278 72.1476 136.294 72.0392 136.289C71.8749 136.281 71.7167 136.225 71.5844 136.127C71.4522 136.029 71.3519 135.894 71.2962 135.74C71.2405 135.585 71.232 135.417 71.2716 135.257C71.3113 135.098 71.3973 134.953 71.519 134.843C71.6406 134.732 71.7923 134.66 71.9549 134.635C72.1176 134.611 72.2838 134.635 72.4327 134.705C72.5816 134.775 72.7064 134.887 72.7914 135.028C72.8764 135.169 72.9177 135.332 72.9102 135.496L72.9037 135.503Z" fill="#263238"/>
<path d="M74.2363 151.435L114.855 153.567" stroke="#263238" stroke-width="2" stroke-linecap="round" stroke-linejoin="round"/>
<path d="M74.0928 154.146L114.711 156.277" stroke="#263238" stroke-width="2" stroke-linecap="round" stroke-linejoin="round"/>
<path d="M73.9238 157.304L108.569 159.124" stroke="#263238" stroke-width="2" stroke-linecap="round" stroke-linejoin="round"/>
<path d="M73.9374 160.199L73.7637 163.503L77.0676 163.677L77.2413 160.373L73.9374 160.199Z" stroke="#263238" stroke-linecap="round" stroke-linejoin="round"/>
<path d="M80.6263 160.496L80.4609 163.807L83.7718 163.972L83.9372 160.661L80.6263 160.496Z" stroke="#263238" stroke-width="1.00125" stroke-linecap="round" stroke-linejoin="round"/>
<path d="M85.9071 160.834L85.7334 164.138L89.0373 164.311L89.2111 161.007L85.9071 160.834Z" stroke="#263238" stroke-linecap="round" stroke-linejoin="round"/>
<path d="M91.9032 161.144L91.7295 164.448L95.0334 164.622L95.2072 161.318L91.9032 161.144Z" stroke="#263238" stroke-linecap="round" stroke-linejoin="round"/>
<path d="M72.0715 151.318C72.0665 151.426 72.0401 151.533 71.994 151.631C71.9478 151.729 71.8827 151.817 71.8024 151.89C71.7221 151.964 71.6282 152.02 71.526 152.057C71.4238 152.093 71.3154 152.11 71.207 152.104V152.104C70.9863 152.104 70.7747 152.017 70.6187 151.861C70.4627 151.705 70.375 151.493 70.375 151.272C70.375 151.052 70.4627 150.84 70.6187 150.684C70.7747 150.528 70.9863 150.44 71.207 150.44H71.324C71.4324 150.445 71.5388 150.472 71.6371 150.518C71.7353 150.564 71.8235 150.629 71.8966 150.71C71.9696 150.79 72.0261 150.884 72.0628 150.986C72.0995 151.088 72.1157 151.196 72.1105 151.305L72.0715 151.318Z" fill="#263238"/>
<path d="M73.3779 167.698L113.996 169.837" stroke="#263238" stroke-width="2" stroke-linecap="round" stroke-linejoin="round"/>
<path d="M73.2354 170.408L113.86 172.547" stroke="#263238" stroke-width="2" stroke-linecap="round" stroke-linejoin="round"/>
<path d="M73.0732 173.573L107.718 175.393" stroke="#263238" stroke-width="2" stroke-linecap="round" stroke-linejoin="round"/>
<path d="M73.0761 176.469L72.9023 179.773L76.2063 179.947L76.38 176.643L73.0761 176.469Z" stroke="#263238" stroke-linecap="round" stroke-linejoin="round"/>
<path d="M79.0722 176.78L78.8984 180.084L82.2024 180.258L82.3761 176.954L79.0722 176.78Z" stroke="#263238" stroke-linecap="round" stroke-linejoin="round"/>
<path d="M85.0673 177.092L84.8936 180.396L88.1975 180.569L88.3712 177.265L85.0673 177.092Z" stroke="#263238" stroke-linecap="round" stroke-linejoin="round"/>
<path d="M91.0487 177.416L90.875 180.72L94.179 180.893L94.3527 177.59L91.0487 177.416Z" stroke="#263238" stroke-linecap="round" stroke-linejoin="round"/>
<path d="M71.2131 167.587C71.2039 167.75 71.1466 167.906 71.0485 168.037C70.9504 168.167 70.8158 168.265 70.6618 168.319C70.5078 168.373 70.3413 168.38 70.1833 168.34C70.0253 168.299 69.8829 168.213 69.774 168.091C69.6652 167.969 69.5948 167.818 69.5717 167.657C69.5487 167.495 69.574 167.331 69.6446 167.184C69.7151 167.036 69.8277 166.913 69.968 166.83C70.1084 166.747 70.2702 166.707 70.4332 166.716C70.5416 166.722 70.6479 166.749 70.7458 166.796C70.8437 166.843 70.9315 166.909 71.0039 166.99C71.0764 167.071 71.1322 167.165 71.1681 167.267C71.204 167.37 71.2193 167.479 71.2131 167.587V167.587Z" fill="#263238"/>
<path d="M76.7256 129.946L77.1546 130.687L78.9161 128.743" stroke="#263238" stroke-width="2" stroke-linecap="round" stroke-linejoin="round"/>
<path d="M87.8789 146.189L88.3079 146.93L90.0694 144.986" stroke="#263238" stroke-width="2" stroke-linecap="round" stroke-linejoin="round"/>
<path d="M93.4766 162.881L93.9056 163.622L95.6671 161.672" stroke="#263238" stroke-width="2" stroke-linecap="round" stroke-linejoin="round"/>
<path d="M80.2158 177.779L80.6448 178.514L82.4063 176.57" stroke="#263238" stroke-width="2" stroke-linecap="round" stroke-linejoin="round"/>
<path d="M87.3075 166.261L34.95 180.815L13.084 102.119L34.7615 96.0938L65.4415 87.5723L85.2795 158.968L87.3075 166.261Z" fill="white"/>
<path opacity="0.2" d="M85.2797 158.968L44.7977 161.588L34.7617 96.0938L65.4417 87.5723L85.2797 158.968Z" fill="black" fill-opacity="0.7"/>
<path d="M87.3075 166.261L34.95 180.815L13.084 102.119L34.7615 96.0938L65.4415 87.5723L85.2795 158.968L87.3075 166.261Z" stroke="#263238" stroke-linecap="round" stroke-linejoin="round"/>
<path d="M18.4922 106.188L32.1162 102.405" stroke="#263238" stroke-width="2" stroke-linecap="round" stroke-linejoin="round"/>
<path d="M19.2139 108.807L28.4829 106.233" stroke="#263238" stroke-width="2" stroke-linecap="round" stroke-linejoin="round"/>
<path d="M24.251 114.059L63.446 103.172" stroke="#263238" stroke-width="2" stroke-linecap="round" stroke-linejoin="round"/>
<path d="M24.9785 116.673L64.1735 105.785" stroke="#263238" stroke-width="2" stroke-linecap="round" stroke-linejoin="round"/>
<path d="M25.8242 119.728L59.2537 110.439" stroke="#263238" stroke-width="2" stroke-linecap="round" stroke-linejoin="round"/>
<path d="M29.9553 121.577L26.7676 122.463L27.6534 125.651L30.8411 124.765L29.9553 121.577Z" stroke="#263238" stroke-linecap="round" stroke-linejoin="round"/>
<path d="M35.7346 119.966L32.5469 120.852L33.4327 124.039L36.6204 123.153L35.7346 119.966Z" stroke="#263238" stroke-linecap="round" stroke-linejoin="round"/>
<path d="M41.5149 118.358L38.3271 119.244L39.213 122.432L42.4007 121.546L41.5149 118.358Z" stroke="#263238" stroke-linecap="round" stroke-linejoin="round"/>
<path d="M47.2854 116.756L44.0977 117.642L44.9835 120.829L48.1712 119.943L47.2854 116.756Z" stroke="#263238" stroke-linecap="round" stroke-linejoin="round"/>
<path d="M22.1646 114.639C22.2232 114.85 22.1955 115.076 22.0877 115.266C21.9798 115.457 21.8005 115.597 21.5893 115.656C21.3782 115.714 21.1524 115.687 20.9616 115.579C20.7708 115.471 20.6307 115.292 20.5721 115.081C20.5135 114.869 20.5412 114.644 20.649 114.453C20.7569 114.262 20.9362 114.122 21.1473 114.063C21.3585 114.005 21.5843 114.032 21.7751 114.14C21.9659 114.248 22.106 114.427 22.1646 114.639V114.639Z" fill="#263238"/>
<path d="M28.4893 129.315L67.6843 118.428" stroke="#263238" stroke-width="2" stroke-linecap="round" stroke-linejoin="round"/>
<path d="M29.2168 131.935L68.4118 121.041" stroke="#263238" stroke-width="2" stroke-linecap="round" stroke-linejoin="round"/>
<path d="M30.0684 134.983L63.4913 125.694" stroke="#263238" stroke-width="2" stroke-linecap="round" stroke-linejoin="round"/>
<path d="M34.1965 136.829L31.0088 137.715L31.8946 140.903L35.0823 140.017L34.1965 136.829Z" stroke="#263238" stroke-linecap="round" stroke-linejoin="round"/>
<path d="M39.9709 135.225L36.7832 136.11L37.669 139.298L40.8567 138.412L39.9709 135.225Z" stroke="#263238" stroke-linecap="round" stroke-linejoin="round"/>
<path d="M45.7522 133.62L42.5645 134.506L43.4503 137.694L46.638 136.808L45.7522 133.62Z" stroke="#263238" stroke-linecap="round" stroke-linejoin="round"/>
<path d="M51.5383 132.006L48.3506 132.892L49.2364 136.079L52.4241 135.193L51.5383 132.006Z" stroke="#263238" stroke-linecap="round" stroke-linejoin="round"/>
<path d="M26.4091 129.9C26.4531 130.058 26.4491 130.226 26.3977 130.382C26.3463 130.539 26.2497 130.676 26.1203 130.777C25.9908 130.879 25.8342 130.94 25.6702 130.952C25.5063 130.964 25.3423 130.928 25.1991 130.847C25.0558 130.767 24.9397 130.645 24.8653 130.499C24.791 130.352 24.7617 130.186 24.7813 130.023C24.8009 129.86 24.8684 129.706 24.9754 129.581C25.0823 129.456 25.2238 129.366 25.3821 129.321C25.4867 129.292 25.5961 129.283 25.704 129.296C25.812 129.308 25.9164 129.342 26.0112 129.395C26.106 129.449 26.1894 129.52 26.2566 129.605C26.3237 129.691 26.3734 129.789 26.4026 129.893L26.4091 129.9Z" fill="#263238"/>
<path d="M32.7334 144.578L71.9219 133.684" stroke="#263238" stroke-width="2" stroke-linecap="round" stroke-linejoin="round"/>
<path d="M33.4619 147.19L72.6504 136.303" stroke="#263238" stroke-width="2" stroke-linecap="round" stroke-linejoin="round"/>
<path d="M34.3066 150.245L67.7361 140.956" stroke="#263238" stroke-width="2" stroke-linecap="round" stroke-linejoin="round"/>
<path d="M38.4319 152.084L35.2441 152.97L36.13 156.157L39.3177 155.272L38.4319 152.084Z" stroke="#263238" stroke-linecap="round" stroke-linejoin="round"/>
<path d="M44.2199 150.476L41.0322 151.362L41.9181 154.55L45.1058 153.664L44.2199 150.476Z" stroke="#263238" stroke-linecap="round" stroke-linejoin="round"/>
<path d="M49.9875 148.874L46.7998 149.76L47.6856 152.947L50.8733 152.062L49.9875 148.874Z" stroke="#263238" stroke-linecap="round" stroke-linejoin="round"/>
<path d="M55.7688 147.268L52.5811 148.153L53.4669 151.341L56.6546 150.455L55.7688 147.268Z" stroke="#263238" stroke-linecap="round" stroke-linejoin="round"/>
<path d="M30.6474 145.156C30.6913 145.314 30.6874 145.482 30.636 145.638C30.5846 145.795 30.488 145.932 30.3586 146.033C30.2291 146.135 30.0725 146.195 29.9085 146.208C29.7446 146.22 29.5806 146.184 29.4373 146.103C29.2941 146.022 29.1779 145.901 29.1036 145.754C29.0292 145.608 29 145.442 29.0196 145.279C29.0392 145.116 29.1067 144.962 29.2136 144.837C29.3206 144.712 29.4621 144.622 29.6204 144.577V144.577C29.725 144.548 29.8344 144.539 29.9423 144.552C30.0503 144.564 30.1546 144.598 30.2495 144.651C30.3443 144.704 30.4277 144.776 30.4948 144.861C30.562 144.947 30.6116 145.045 30.6409 145.149L30.6474 145.156Z" fill="#263238"/>
<path d="M37.0947 160.268L76.2832 149.381" stroke="#263238" stroke-width="2" stroke-linecap="round" stroke-linejoin="round"/>
<path d="M37.8164 162.888L77.0114 151.994" stroke="#263238" stroke-width="2" stroke-linecap="round" stroke-linejoin="round"/>
<path d="M38.668 165.937L72.0975 156.648" stroke="#263238" stroke-width="2" stroke-linecap="round" stroke-linejoin="round"/>
<path d="M42.7942 167.783L39.6064 168.669L40.4923 171.857L43.68 170.971L42.7942 167.783Z" stroke="#263238" stroke-linecap="round" stroke-linejoin="round"/>
<path d="M48.5754 166.176L45.3877 167.062L46.2735 170.249L49.4612 169.363L48.5754 166.176Z" stroke="#263238" stroke-linecap="round" stroke-linejoin="round"/>
<path d="M54.3557 164.57L51.168 165.456L52.0538 168.644L55.2415 167.758L54.3557 164.57Z" stroke="#263238" stroke-linecap="round" stroke-linejoin="round"/>
<path d="M60.1311 162.967L56.9434 163.853L57.8292 167.04L61.0169 166.154L60.1311 162.967Z" stroke="#263238" stroke-linecap="round" stroke-linejoin="round"/>
<path d="M35.0087 160.847C35.0699 161.059 35.0443 161.286 34.9377 161.479C34.831 161.673 34.652 161.816 34.4399 161.877C34.2279 161.938 34.0002 161.912 33.807 161.806C33.6138 161.699 33.4709 161.52 33.4097 161.308C33.3494 161.095 33.3757 160.867 33.4828 160.673C33.5899 160.48 33.7693 160.336 33.9817 160.275V160.275C34.192 160.216 34.4168 160.243 34.6077 160.348C34.7985 160.454 34.9402 160.631 35.0022 160.84L35.0087 160.847Z" fill="#263238"/>
<path d="M33.7021 121.892L34.3456 122.458L35.3987 120.053" stroke="#263238" stroke-width="2" stroke-linecap="round" stroke-linejoin="round"/>
<path d="M32.1357 138.916L32.7792 139.481L33.8257 137.076" stroke="#263238" stroke-width="2" stroke-linecap="round" stroke-linejoin="round"/>
<path d="M36.373 154.015L37.0165 154.581L38.063 152.176" stroke="#263238" stroke-width="2" stroke-linecap="round" stroke-linejoin="round"/>
<path d="M52.2783 166.384L52.9218 166.95L53.9748 164.545" stroke="#263238" stroke-width="2" stroke-linecap="round" stroke-linejoin="round"/>
<path d="M92.4198 69.394L38.3291 74.5928L46.1429 155.891L100.234 150.692L92.4198 69.394Z" fill="white" stroke="#263238" stroke-linecap="round" stroke-linejoin="round"/>
<path d="M42.9385 79.5512L57.0175 78.1992" stroke="#263238" stroke-width="2" stroke-linecap="round" stroke-linejoin="round"/>
<path d="M43.1982 82.255L52.7728 81.332" stroke="#263238" stroke-width="2" stroke-linecap="round" stroke-linejoin="round"/>
<path d="M47.2412 88.3066L87.7297 84.4131" stroke="#263238" stroke-width="2" stroke-linecap="round" stroke-linejoin="round"/>
<path d="M47.502 91.0042L87.9904 87.1172" stroke="#263238" stroke-width="2" stroke-linecap="round" stroke-linejoin="round"/>
<path d="M47.8066 94.1568L82.3411 90.8418" stroke="#263238" stroke-width="2" stroke-linecap="round" stroke-linejoin="round"/>
<path d="M51.5551 96.6923L48.2617 97.0088L48.5783 100.302L51.8716 99.9856L51.5551 96.6923Z" stroke="#263238" stroke-linecap="round" stroke-linejoin="round"/>
<path d="M57.5248 96.1161L54.2314 96.4326L54.548 99.7259L57.8413 99.4094L57.5248 96.1161Z" stroke="#263238" stroke-linecap="round" stroke-linejoin="round"/>
<path d="M63.4945 95.5487L60.2012 95.8652L60.5177 99.1586L63.811 98.842L63.4945 95.5487Z" stroke="#263238" stroke-linecap="round" stroke-linejoin="round"/>
<path d="M69.4632 94.9676L66.1699 95.2842L66.4865 98.5775L69.7798 98.261L69.4632 94.9676Z" stroke="#263238" stroke-linecap="round" stroke-linejoin="round"/>
<path d="M45.0898 88.5143C45.1057 88.678 45.0727 88.8428 44.995 88.9877C44.9173 89.1327 44.7984 89.2514 44.6532 89.3288C44.5081 89.4063 44.3433 89.4389 44.1796 89.4227C44.0159 89.4064 43.8607 89.3421 43.7336 89.2376C43.6065 89.1332 43.5132 88.9935 43.4655 88.8361C43.4177 88.6786 43.4178 88.5106 43.4655 88.3532C43.5133 88.1958 43.6066 88.0561 43.7337 87.9517C43.8609 87.8473 44.0161 87.783 44.1798 87.7668C44.2878 87.756 44.3968 87.7666 44.5007 87.7981C44.6046 87.8295 44.7013 87.8811 44.7852 87.9499C44.8691 88.0187 44.9386 88.1034 44.9898 88.1992C45.0409 88.2949 45.0727 88.3998 45.0833 88.5078L45.0898 88.5143Z" fill="#263238"/>
<path d="M48.7559 104.07L89.2444 100.183" stroke="#263238" stroke-width="2" stroke-linecap="round" stroke-linejoin="round"/>
<path d="M49.0166 106.773L89.5051 102.88" stroke="#263238" stroke-width="2" stroke-linecap="round" stroke-linejoin="round"/>
<path d="M49.3213 109.925L83.8558 106.604" stroke="#263238" stroke-width="2" stroke-linecap="round" stroke-linejoin="round"/>
<path d="M53.0697 112.452L49.7764 112.769L50.0929 116.062L53.3862 115.745L53.0697 112.452Z" stroke="#263238" stroke-linecap="round" stroke-linejoin="round"/>
<path d="M59.0394 111.883L55.7461 112.199L56.0626 115.493L59.3559 115.176L59.0394 111.883Z" stroke="#263238" stroke-linecap="round" stroke-linejoin="round"/>
<path d="M65.0082 111.308L61.7148 111.625L62.0314 114.918L65.3247 114.602L65.0082 111.308Z" stroke="#263238" stroke-linecap="round" stroke-linejoin="round"/>
<path d="M70.9779 110.746L67.6846 111.062L68.0011 114.356L71.2944 114.039L70.9779 110.746Z" stroke="#263238" stroke-linecap="round" stroke-linejoin="round"/>
<path d="M46.6044 104.277C46.6203 104.441 46.5874 104.605 46.5097 104.75C46.432 104.895 46.313 105.014 46.1679 105.091C46.0227 105.169 45.8579 105.202 45.6942 105.185C45.5305 105.169 45.3753 105.105 45.2482 105C45.1211 104.896 45.0278 104.756 44.9801 104.599C44.9324 104.441 44.9324 104.273 44.9802 104.116C45.0279 103.958 45.1213 103.819 45.2484 103.714C45.3755 103.61 45.5307 103.546 45.6944 103.529C45.8033 103.519 45.9132 103.529 46.0179 103.561C46.1225 103.593 46.2199 103.645 46.3044 103.714C46.389 103.784 46.459 103.869 46.5104 103.966C46.5619 104.062 46.5939 104.168 46.6044 104.277Z" fill="#263238"/>
<path d="M50.2705 119.831L90.759 115.944" stroke="#263238" stroke-width="2" stroke-linecap="round" stroke-linejoin="round"/>
<path d="M50.5303 122.535L91.0188 118.642" stroke="#263238" stroke-width="2" stroke-linecap="round" stroke-linejoin="round"/>
<path d="M50.8359 125.688L85.3704 122.366" stroke="#263238" stroke-width="2" stroke-linecap="round" stroke-linejoin="round"/>
<path d="M54.5834 128.218L51.29 128.534L51.6066 131.828L54.8999 131.511L54.5834 128.218Z" stroke="#263238" stroke-linecap="round" stroke-linejoin="round"/>
<path d="M60.5531 127.643L57.2598 127.96L57.5763 131.253L60.8696 130.937L60.5531 127.643Z" stroke="#263238" stroke-linecap="round" stroke-linejoin="round"/>
<path d="M66.5228 127.074L63.2295 127.391L63.546 130.684L66.8394 130.367L66.5228 127.074Z" stroke="#263238" stroke-linecap="round" stroke-linejoin="round"/>
<path d="M72.4916 126.5L69.1982 126.816L69.5148 130.11L72.8081 129.793L72.4916 126.5Z" stroke="#263238" stroke-linecap="round" stroke-linejoin="round"/>
<path d="M48.1125 120.04C48.1272 120.203 48.0934 120.366 48.0154 120.509C47.9373 120.653 47.8185 120.77 47.6739 120.846C47.5294 120.921 47.3656 120.953 47.2032 120.935C47.0409 120.918 46.8873 120.853 46.7619 120.749C46.6365 120.644 46.5448 120.505 46.4986 120.348C46.4524 120.192 46.4536 120.025 46.5022 119.869C46.5507 119.713 46.6444 119.575 46.7714 119.473C46.8983 119.37 47.0529 119.307 47.2155 119.292C47.3234 119.283 47.4323 119.294 47.5358 119.326C47.6394 119.359 47.7355 119.411 47.8188 119.48C47.9021 119.55 47.9709 119.635 48.0213 119.731C48.0717 119.827 48.1027 119.932 48.1125 120.04V120.04Z" fill="#263238"/>
<path d="M51.8311 136.05L92.3196 132.156" stroke="#263238" stroke-width="2" stroke-linecap="round" stroke-linejoin="round"/>
<path d="M52.0908 138.746L92.5793 134.859" stroke="#263238" stroke-width="2" stroke-linecap="round" stroke-linejoin="round"/>
<path d="M52.3896 141.899L86.9241 138.584" stroke="#263238" stroke-width="2" stroke-linecap="round" stroke-linejoin="round"/>
<path d="M56.141 144.433L52.8477 144.75L53.1642 148.043L56.4575 147.727L56.141 144.433Z" stroke="#263238" stroke-linecap="round" stroke-linejoin="round"/>
<path d="M62.1166 143.864L58.8232 144.181L59.1398 147.474L62.4331 147.157L62.1166 143.864Z" stroke="#263238" stroke-linecap="round" stroke-linejoin="round"/>
<path d="M68.0795 143.283L64.7861 143.6L65.1027 146.893L68.396 146.576L68.0795 143.283Z" stroke="#263238" stroke-linecap="round" stroke-linejoin="round"/>
<path d="M74.0492 142.708L70.7559 143.024L71.0724 146.318L74.3657 146.001L74.0492 142.708Z" stroke="#263238" stroke-linecap="round" stroke-linejoin="round"/>
<path d="M49.673 136.251C49.6904 136.415 49.6586 136.581 49.5816 136.727C49.5046 136.873 49.3859 136.992 49.2406 137.071C49.0954 137.149 48.9301 137.182 48.7658 137.167C48.6015 137.151 48.4457 137.086 48.3181 136.982C48.1904 136.877 48.0968 136.737 48.0492 136.579C48.0015 136.421 48.0019 136.252 48.0503 136.094C48.0987 135.937 48.1929 135.797 48.321 135.693C48.4491 135.589 48.6052 135.525 48.7696 135.51C48.8776 135.499 48.9866 135.51 49.0905 135.541C49.1944 135.573 49.2911 135.624 49.375 135.693C49.4589 135.762 49.5284 135.847 49.5796 135.942C49.6307 136.038 49.6625 136.143 49.673 136.251V136.251Z" fill="#263238"/>
<path d="M49.5625 98.2127L50.0955 98.8822L51.5515 96.6982" stroke="#263238" stroke-width="2" stroke-linecap="round" stroke-linejoin="round"/>
<path d="M62.998 112.63L63.531 113.299L64.9806 111.115" stroke="#263238" stroke-width="2" stroke-linecap="round" stroke-linejoin="round"/>
<path d="M58.5713 129.296L59.1043 129.965L60.5603 127.781" stroke="#263238" stroke-width="2" stroke-linecap="round" stroke-linejoin="round"/>
<path d="M71.9805 144.239L72.5135 144.909L73.9695 142.725" stroke="#263238" stroke-width="2" stroke-linecap="round" stroke-linejoin="round"/>
<path d="M158.573 37.3467H124.988C123.802 37.3467 122.664 37.8178 121.825 38.6565C120.987 39.4952 120.516 40.6326 120.516 41.8187V41.8187V70.6852C120.516 71.8712 120.987 73.0087 121.825 73.8474C122.664 74.686 123.802 75.1572 124.988 75.1572H139.873L148.401 85.4337L146.262 75.1572H158.573C159.756 75.152 160.888 74.6786 161.723 73.8405C162.557 73.0024 163.026 71.8679 163.026 70.6852V41.8187C163.026 40.636 162.557 39.5015 161.723 38.6634C160.888 37.8253 159.756 37.3518 158.573 37.3467Z" fill="white" stroke="#263238" stroke-linecap="round" stroke-linejoin="round"/>
<path d="M144.469 53.1811V50.126L142.181 49.9311C142.044 49.4542 141.854 48.9941 141.615 48.5596L143.091 46.8045L140.926 44.6466L139.171 46.1221C138.738 45.879 138.278 45.6891 137.8 45.5565L137.605 43.2686H134.55L134.355 45.5565C133.876 45.6891 133.416 45.879 132.983 46.1221L131.228 44.6466L129.064 46.8045L130.526 48.5856C130.284 49.0193 130.092 49.4795 129.954 49.9571L127.666 50.1521V53.2071L129.954 53.4086C130.092 53.8861 130.284 54.3463 130.526 54.7801L129.044 56.5351L131.209 58.6931L132.964 57.2176C133.396 57.4606 133.857 57.6505 134.335 57.783L134.53 60.0711H137.585L137.78 57.783C138.258 57.6505 138.719 57.4606 139.152 57.2176L140.907 58.6931L143.071 56.5351L141.596 54.7801C141.835 54.3455 142.024 53.8854 142.161 53.4086L144.469 53.1811ZM136.077 55.2091C135.374 55.2103 134.686 55.0031 134.101 54.6135C133.515 54.2238 133.058 53.6694 132.788 53.0202C132.518 52.371 132.446 51.6562 132.582 50.9663C132.718 50.2763 133.055 49.6422 133.552 49.144C134.048 48.6459 134.681 48.3061 135.371 48.1676C136.06 48.0292 136.775 48.0983 137.425 48.3662C138.075 48.6341 138.631 49.0888 139.023 49.6728C139.415 50.2568 139.625 50.9438 139.626 51.6471V51.6471C139.628 52.1134 139.537 52.5754 139.36 53.0067C139.183 53.438 138.922 53.8301 138.593 54.1604C138.264 54.4907 137.873 54.7528 137.442 54.9317C137.012 55.1105 136.55 55.2026 136.084 55.2025L136.077 55.2091Z" fill="url(#paint0_linear)"/>
<path d="M154.576 59.9988V57.8278L152.945 57.6848C152.85 57.3448 152.715 57.0175 152.542 56.7098L153.595 55.4618L152.061 53.9278L150.806 54.9743C150.497 54.8041 150.17 54.6689 149.831 54.5713L149.695 52.9463H147.517L147.381 54.5713C147.04 54.6689 146.711 54.8041 146.399 54.9743L145.151 53.9278L143.617 55.4618L144.664 56.7098C144.493 57.0177 144.36 57.3451 144.267 57.6848L142.636 57.8278V59.9988L144.267 60.1418C144.36 60.4815 144.493 60.8089 144.664 61.1168L143.617 62.3648L145.151 63.9053L146.399 62.8523C146.708 63.028 147.038 63.1634 147.381 63.2553L147.517 64.8868H149.695L149.831 63.2553C150.172 63.1634 150.5 63.0279 150.806 62.8523L152.061 63.9053L153.595 62.3648L152.542 61.1168C152.717 60.8104 152.853 60.4827 152.945 60.1418L154.576 59.9988ZM148.603 61.4418C148.103 61.4418 147.614 61.2935 147.198 61.0157C146.782 60.7378 146.458 60.3429 146.267 59.8809C146.075 59.4189 146.025 58.9105 146.123 58.42C146.22 57.9295 146.461 57.479 146.815 57.1254C147.168 56.7718 147.619 56.5309 148.109 56.4334C148.6 56.3358 149.108 56.3859 149.57 56.5773C150.032 56.7686 150.427 57.0927 150.705 57.5085C150.983 57.9243 151.131 58.4132 151.131 58.9133C151.131 59.5839 150.865 60.227 150.391 60.7012C149.916 61.1754 149.273 61.4418 148.603 61.4418V61.4418Z" fill="url(#paint1_linear)"/>
<path d="M143.942 65.0626V63.5351L142.778 63.4311C142.712 63.1885 142.616 62.9549 142.492 62.7356L143.24 61.8516L142.148 60.7531L141.257 61.5006C141.038 61.3827 140.807 61.2869 140.568 61.2146L140.464 60.0576H138.917L138.82 61.2146C138.578 61.284 138.345 61.3799 138.124 61.5006L137.234 60.7531L136.142 61.8516L136.889 62.7356C136.769 62.9562 136.673 63.1894 136.603 63.4311L135.446 63.5351V65.0756L136.603 65.1796C136.673 65.4213 136.769 65.6546 136.889 65.8751L136.142 66.7851L137.234 67.8836L138.124 67.1361C138.346 67.2541 138.579 67.3499 138.82 67.4221L138.917 68.5791H140.464L140.568 67.4221C140.807 67.3499 141.038 67.2541 141.257 67.1361L142.148 67.8836L143.24 66.7851L142.492 65.9011C142.616 65.6819 142.712 65.4483 142.778 65.2056L143.942 65.0626ZM139.691 66.0896C139.335 66.0896 138.987 65.984 138.69 65.7862C138.394 65.5883 138.164 65.3071 138.027 64.9781C137.891 64.6491 137.855 64.2871 137.925 63.9379C137.994 63.5886 138.166 63.2678 138.418 63.016C138.669 62.7642 138.99 62.5927 139.34 62.5232C139.689 62.4537 140.051 62.4894 140.38 62.6257C140.709 62.762 140.99 62.9927 141.188 63.2888C141.386 63.5849 141.491 63.933 141.491 64.2891V64.2891C141.49 64.7655 141.299 65.2218 140.962 65.5581C140.624 65.8943 140.167 66.0831 139.691 66.0831V66.0896Z" fill="url(#paint2_linear)"/>
<path d="M140.881 148.276L167.063 244.853H170.976L144.8 148.276H140.881Z" fill="#757575" stroke="#263238" stroke-linecap="round" stroke-linejoin="round"/>
<path d="M199.848 217.476H150.221V221.519H199.848V217.476Z" fill="#999999" stroke="#263238" stroke-linecap="round" stroke-linejoin="round"/>
<path d="M226.323 126.586L194.258 244.886H190.358L222.416 126.586C223.599 122.224 220.889 118.675 216.371 118.675H188.746C184.235 118.675 179.594 122.224 178.411 126.586L146.34 244.886H142.44L174.505 126.586C176.253 120.131 183.091 114.886 189.773 114.886H217.405C224.067 114.886 228.071 120.125 226.323 126.586Z" fill="#757575" stroke="#263238" stroke-linecap="round" stroke-linejoin="round"/>
<path d="M226.83 126.618L218.874 155.985C218.49 157.221 217.733 158.308 216.706 159.096C215.68 159.885 214.434 160.335 213.141 160.386H167.745C167.197 160.429 166.648 160.334 166.146 160.11C165.645 159.886 165.208 159.541 164.874 159.104C164.541 158.668 164.322 158.155 164.237 157.613C164.153 157.07 164.206 156.515 164.391 155.998L172.353 126.631C172.74 125.398 173.498 124.314 174.524 123.529C175.551 122.743 176.795 122.295 178.086 122.244H223.476C223.909 122.213 224.343 122.267 224.755 122.405C225.167 122.542 225.547 122.759 225.875 123.043C226.203 123.327 226.471 123.673 226.665 124.062C226.859 124.45 226.975 124.872 227.005 125.305C227.035 125.75 226.975 126.197 226.83 126.618V126.618Z" fill="url(#paint3_linear)"/>
<path opacity="0.2" d="M226.83 126.619L218.874 155.986C218.49 157.222 217.733 158.309 216.706 159.097C215.68 159.885 214.434 160.336 213.141 160.386H167.745C167.197 160.429 166.648 160.335 166.146 160.111C165.645 159.887 165.208 159.541 164.874 159.105C164.541 158.669 164.322 158.156 164.237 157.613C164.153 157.071 164.206 156.516 164.391 155.999L172.353 126.632C172.74 125.399 173.498 124.315 174.524 123.53C175.551 122.744 176.795 122.295 178.086 122.244H201.558C211.704 132.644 210.411 151.813 209.748 157.598C210.807 157.343 211.782 156.818 212.579 156.076C213.376 155.334 213.968 154.398 214.298 153.36L222.241 123.986C222.403 123.418 222.436 122.821 222.338 122.238H223.476C224.021 122.199 224.568 122.296 225.067 122.52C225.566 122.745 226.001 123.09 226.334 123.524C226.666 123.959 226.886 124.469 226.972 125.009C227.059 125.549 227.01 126.102 226.83 126.619V126.619Z" fill="black" fill-opacity="0.7"/>
<path d="M226.83 126.618L218.874 155.985C218.49 157.221 217.733 158.308 216.706 159.096C215.68 159.885 214.434 160.335 213.141 160.386H167.745C167.197 160.429 166.648 160.334 166.146 160.11C165.645 159.886 165.208 159.541 164.874 159.104C164.541 158.668 164.322 158.155 164.237 157.613C164.153 157.07 164.206 156.515 164.391 155.998L172.353 126.631C172.74 125.398 173.498 124.314 174.524 123.529C175.551 122.743 176.795 122.295 178.086 122.244H223.476C223.909 122.213 224.343 122.267 224.755 122.405C225.167 122.542 225.547 122.759 225.875 123.043C226.203 123.327 226.471 123.673 226.665 124.062C226.859 124.45 226.975 124.872 227.005 125.305C227.035 125.75 226.975 126.197 226.83 126.618V126.618Z" stroke="#263238" stroke-linecap="round" stroke-linejoin="round"/>
<path d="M200.141 190.098L214.987 244.854H218.9L204.06 190.098H200.141Z" fill="#757575" stroke="#263238" stroke-linecap="round" stroke-linejoin="round"/>
<path d="M204.073 183.787V189.143H145.625V183.787C145.625 182.742 146.04 181.74 146.779 181.001C147.517 180.263 148.519 179.848 149.564 179.848H200.127C200.646 179.846 201.159 179.947 201.638 180.144C202.117 180.341 202.552 180.631 202.919 180.997C203.286 181.363 203.576 181.798 203.774 182.277C203.972 182.755 204.074 183.269 204.073 183.787V183.787Z" fill="url(#paint4_linear)"/>
<path opacity="0.2" d="M203.936 182.779C202.045 185.002 198.652 187.264 192.815 189.169H145.625V183.787C145.625 182.742 146.04 181.74 146.779 181.001C147.517 180.263 148.519 179.848 149.564 179.848H200.127C200.997 179.849 201.841 180.136 202.53 180.666C203.219 181.197 203.713 181.939 203.936 182.779V182.779Z" fill="black" fill-opacity="0.7"/>
<path d="M204.073 183.787V189.143H145.625V183.787C145.625 182.742 146.04 181.74 146.779 181.001C147.517 180.263 148.519 179.848 149.564 179.848H200.127C200.646 179.846 201.159 179.947 201.638 180.144C202.117 180.341 202.552 180.631 202.919 180.997C203.286 181.363 203.576 181.798 203.774 182.277C203.972 182.755 204.074 183.269 204.073 183.787V183.787Z" stroke="#263238" stroke-linecap="round" stroke-linejoin="round"/>
<path d="M206.056 187.523H144.15C143.536 187.523 143.038 188.021 143.038 188.635V191.436C143.038 192.05 143.536 192.548 144.15 192.548H206.056C206.669 192.548 207.167 192.05 207.167 191.436V188.635C207.167 188.021 206.669 187.523 206.056 187.523Z" fill="#999999" stroke="#263238" stroke-linecap="round" stroke-linejoin="round"/>
<path d="M143.728 187.687C140.926 190.54 154.505 235.377 154.505 235.377C153.023 236.677 150.839 237.275 148.772 237.548C146.872 237.784 144.952 237.813 143.045 237.633C143.045 237.633 123.584 190.43 128.94 178.717C134.296 167.004 167.531 161.687 167.531 161.687L168.948 158.177L186.14 155.759L188.981 176.812C188.981 176.812 186.16 177.085 181.915 177.631C170.534 179.074 148.876 182.487 143.728 187.687Z" fill="#263238"/>
<path opacity="0.3" d="M154.504 235.402C153.022 236.702 150.838 237.3 148.771 237.573C144.995 223.533 135.381 186.067 139.021 181.485C143.513 175.83 165.743 170.688 165.743 170.688C165.834 167.802 173.627 165.202 173.627 165.202L181.908 177.611C170.527 179.073 148.869 182.486 143.721 187.686C140.926 190.565 154.504 235.402 154.504 235.402Z" fill="black"/>
<path d="M143.728 187.687C140.926 190.54 154.505 235.377 154.505 235.377C153.023 236.677 150.839 237.275 148.772 237.548C146.872 237.784 144.952 237.813 143.045 237.633C143.045 237.633 123.584 190.43 128.94 178.717C134.296 167.004 167.531 161.687 167.531 161.687L168.948 158.177L186.14 155.759L188.981 176.812C188.981 176.812 186.16 177.085 181.915 177.631C170.534 179.074 148.876 182.487 143.728 187.687Z" stroke="#263238" stroke-linecap="round" stroke-linejoin="round"/>
<path d="M134.107 145.248C131.253 144.76 151.566 126.95 151.566 126.95L161.361 133.541C161.361 133.541 144.695 145.28 142.076 145.599C139.456 145.917 134.107 145.248 134.107 145.248Z" fill="white"/>
<path opacity="0.2" d="M134.107 145.248C131.253 144.76 151.566 126.95 151.566 126.95L161.361 133.541C161.361 133.541 144.695 145.28 142.076 145.599C139.456 145.917 134.107 145.248 134.107 145.248Z" fill="black" fill-opacity="0.7"/>
<path d="M134.107 145.248C131.253 144.76 151.566 126.95 151.566 126.95L161.361 133.541C161.361 133.541 144.695 145.28 142.076 145.599C139.456 145.917 134.107 145.248 134.107 145.248Z" stroke="#263238" stroke-linecap="round" stroke-linejoin="round"/>
<path d="M137.676 137.76C137.676 137.76 141.933 138.819 143.24 139.71C144.546 140.6 144.169 143.818 144.169 143.818C144.169 143.818 138.495 142.219 137.676 137.76Z" fill="white" stroke="#263238" stroke-linecap="round" stroke-linejoin="round"/>
<path d="M134.959 129.603L142.876 144.787H143.812L136.291 128.855L134.959 129.603Z" fill="#263238"/>
<path d="M142.095 140.581C142.095 140.581 137.103 137.032 135.881 137.032C134.659 137.032 131 141.355 131 143.532C131 145.71 138.982 146.899 140.542 145.06C141.322 144.143 139.775 141.933 139.775 141.933C140.704 142.922 141.701 143.845 142.758 144.696C143.408 145.06 144.65 144.585 144.65 144.585C144.65 144.585 142.986 141.92 142.095 140.581Z" fill="white" stroke="#263238" stroke-linecap="round" stroke-linejoin="round"/>
<path d="M139.775 145.56C138.624 144.099 137.211 142.864 135.608 141.92" stroke="#263238" stroke-linecap="round" stroke-linejoin="round"/>
<path d="M139.775 141.92C139.775 141.92 138.046 140.412 136.883 140.08" stroke="#263238" stroke-linecap="round" stroke-linejoin="round"/>
<path d="M134.335 143.837C135.544 144.456 136.71 145.156 137.825 145.93" stroke="#263238" stroke-linecap="round" stroke-linejoin="round"/>
<path d="M157.93 119.163C155.376 120.944 143.903 132.742 143.903 132.742C143.903 132.742 149.279 138.858 153.991 139.742L166.764 133.541L157.93 119.163Z" fill="url(#paint5_linear)" stroke="#263238" stroke-linecap="round" stroke-linejoin="round"/>
<path opacity="0.4" d="M157.93 119.163C155.376 120.944 143.903 132.742 143.903 132.742C143.903 132.742 149.279 138.858 153.991 139.742L166.764 133.541L157.93 119.163Z" fill="white" stroke="#263238" stroke-linecap="round" stroke-linejoin="round"/>
<path d="M151.762 230.645L157.176 244.886C157.176 244.886 158.073 248.546 141.745 247.389L132.749 246.622L151.762 230.645Z" fill="url(#paint6_linear)"/>
<path opacity="0.3" d="M151.762 230.645L157.176 244.886C157.176 244.886 158.073 248.546 141.745 247.389L132.749 246.622L151.762 230.645Z" fill="black"/>
<path d="M151.762 230.645L157.176 244.886C157.176 244.886 158.073 248.546 141.745 247.389L132.749 246.622L151.762 230.645Z" stroke="#263238" stroke-linecap="round" stroke-linejoin="round"/>
<path d="M149.708 237.457C149.708 237.457 150.865 242.988 149.708 247.103C149.708 247.103 132.477 249.8 128.622 248.773C124.768 247.746 122.428 245.822 122.311 244.873C122.311 244.873 122.447 242.234 126.308 241.461C130.169 240.687 137.846 240.161 140.881 235.806C143.917 231.451 149.708 237.457 149.708 237.457Z" fill="url(#paint7_linear)" stroke="#263238" stroke-linecap="round" stroke-linejoin="round"/>
<path d="M172.445 157.604C177.95 149.752 203.261 159.203 203.261 159.203C203.261 159.203 205.673 178.105 195.591 183.149C185.51 188.193 170.976 187.92 167.05 192.008L151.073 239.185C151.073 239.185 145.333 241.584 136.987 237.807C136.987 237.807 147.134 202.181 150.111 189.532C153.055 177.013 172.12 168.517 172.12 168.517C171.137 167.357 170.393 166.014 169.929 164.565" fill="#263238"/>
<path d="M172.445 157.604C177.95 149.752 203.261 159.203 203.261 159.203C203.261 159.203 205.673 178.105 195.591 183.149C185.51 188.193 170.976 187.92 167.05 192.008L151.073 239.185C151.073 239.185 145.333 241.584 136.987 237.807C136.987 237.807 147.134 202.181 150.111 189.532C153.055 177.013 172.12 168.517 172.12 168.517C171.137 167.357 170.393 166.014 169.929 164.565" stroke="#263238" stroke-linecap="round" stroke-linejoin="round"/>
<path d="M198.068 175.674C197.26 176.39 196.411 177.058 195.526 177.676" stroke="white" stroke-linecap="round" stroke-linejoin="round"/>
<path d="M200.141 159.665C202.208 164.15 202.371 169.844 199.491 173.998" stroke="white" stroke-linecap="round" stroke-linejoin="round"/>
<path d="M194.376 160.386C194.376 160.386 193.849 163.844 195.39 165.215C196.93 166.587 201.656 167.282 201.656 167.282" stroke="white" stroke-linecap="round" stroke-linejoin="round"/>
<path d="M173.628 160.543C173.628 160.543 173.842 163.988 172.445 163.825C171.047 163.663 170.976 165.203 170.976 165.203" stroke="white" stroke-linecap="round" stroke-linejoin="round"/>
<path d="M158.268 121.815C158.055 120.947 157.941 120.057 157.93 119.163C157.93 119.163 165.73 112.585 175.772 112.624C187.732 112.663 195.045 116.427 197.97 121.653C202.611 129.921 203.261 159.203 203.261 159.203C203.261 159.203 173.25 163.831 168.947 158.157C168.2 157.169 168.772 150.194 168.772 150.194C168.772 150.194 165.411 141.38 164.703 134.542C163.715 133.181 162.798 131.771 161.953 130.317C160.885 128.527 159.959 126.656 159.184 124.721" fill="url(#paint8_linear)"/>
<path d="M158.268 121.815C158.055 120.947 157.941 120.057 157.93 119.163C157.93 119.163 165.73 112.585 175.772 112.624C187.732 112.663 195.045 116.427 197.97 121.653C202.611 129.921 203.261 159.203 203.261 159.203C203.261 159.203 173.25 163.831 168.947 158.157C168.2 157.169 168.772 150.194 168.772 150.194C168.772 150.194 165.411 141.38 164.703 134.542C163.715 133.181 162.798 131.771 161.953 130.317C160.885 128.527 159.959 126.656 159.184 124.721" stroke="#263238" stroke-linecap="round" stroke-linejoin="round"/>
<g opacity="0.6">
<path d="M158.268 121.815C158.055 120.947 157.941 120.057 157.93 119.163C157.93 119.163 165.73 112.585 175.772 112.624C187.732 112.663 195.045 116.427 197.97 121.653C202.611 129.921 203.261 159.203 203.261 159.203C203.261 159.203 173.25 163.831 168.947 158.157C168.2 157.169 168.772 150.194 168.772 150.194C168.772 150.194 165.411 141.38 164.703 134.542C163.715 133.181 162.798 131.771 161.953 130.317C160.885 128.527 159.959 126.656 159.184 124.721" fill="white"/>
<path d="M158.268 121.815C158.055 120.947 157.941 120.057 157.93 119.163C157.93 119.163 165.73 112.585 175.772 112.624C187.732 112.663 195.045 116.427 197.97 121.653C202.611 129.921 203.261 159.203 203.261 159.203C203.261 159.203 173.25 163.831 168.947 158.157C168.2 157.169 168.772 150.194 168.772 150.194C168.772 150.194 165.411 141.38 164.703 134.542C163.715 133.181 162.798 131.771 161.953 130.317C160.885 128.527 159.959 126.656 159.184 124.721" stroke="#263238" stroke-linecap="round" stroke-linejoin="round"/>
</g>
<path d="M169.76 128.855C169.76 128.855 174.342 146.633 173.66 150.546C173.497 151.896 173.722 153.265 174.31 154.491C173.711 155.121 173.326 155.924 173.209 156.785C173.093 157.646 173.25 158.522 173.66 159.288" stroke="#263238" stroke-linecap="round" stroke-linejoin="round"/>
<path d="M181.915 143.565C181.097 143.534 180.302 143.282 179.614 142.837L178.256 136.883C180.951 137.128 183.668 136.937 186.303 136.317L187.759 142.817C186.94 143.046 186.109 143.226 185.269 143.357" stroke="#263238" stroke-linecap="round" stroke-linejoin="round"/>
<path d="M166.503 131.168C166.503 131.168 162.603 114.554 172.444 112.624C182.285 110.693 184.306 115.289 183.728 118.402C182.954 122.556 174.797 132.741 174.797 132.741L169.759 128.841L166.503 131.168Z" fill="url(#paint9_linear)" stroke="#263238" stroke-linecap="round" stroke-linejoin="round"/>
<path opacity="0.4" d="M166.503 131.168C166.503 131.168 162.603 114.554 172.444 112.624C182.285 110.693 184.306 115.289 183.728 118.402C182.954 122.556 174.797 132.741 174.797 132.741L169.759 128.841L166.503 131.168Z" fill="white" stroke="#263238" stroke-linecap="round" stroke-linejoin="round"/>
<path d="M153.595 182.486C153.595 182.486 159.952 175.148 174.304 169.603C174.304 169.603 170.586 168.466 169.754 166.919" stroke="white" stroke-linecap="round" stroke-linejoin="round"/>
<path d="M146.12 204.944L140.309 226.043" stroke="white" stroke-linecap="round" stroke-linejoin="round"/>
<path d="M191.021 144.136C191.021 144.136 193.621 148.523 204.327 148.12C202.335 145.987 199.814 144.417 197.021 143.57C192.646 142.4 191.021 144.136 191.021 144.136Z" fill="url(#paint10_linear)" stroke="#263238" stroke-linecap="round" stroke-linejoin="round"/>
<path d="M149.486 145.898C149.486 145.898 151.969 142.05 154.244 141.276C156.519 140.503 163.201 140.438 164.235 140.412C165.268 140.386 183.631 145.053 192.25 147.926L191.496 133.541L203.079 134.457C203.079 134.457 202.611 152.008 200.81 156.655C199.01 161.303 196.429 160.172 192.029 158.274C174.719 150.818 164.579 145.625 163.637 145.924C162.694 146.223 149.486 145.898 149.486 145.898Z" fill="white" stroke="#263238" stroke-linecap="round" stroke-linejoin="round"/>
<path d="M188.603 125.182C188.301 126.374 188.204 127.61 188.317 128.835C188.831 133.333 191.021 144.136 191.021 144.136C191.021 144.136 201.818 145.676 204.327 148.12C204.327 148.12 206.108 133.82 202.481 126.56C198.854 119.299 195.103 118.5 195.103 118.5C192.731 117.915 190.553 120.125 189.351 122.965" fill="url(#paint11_linear)"/>
<path d="M188.603 125.182C188.301 126.374 188.204 127.61 188.317 128.835C188.831 133.333 191.021 144.136 191.021 144.136C191.021 144.136 201.818 145.676 204.327 148.12C204.327 148.12 206.108 133.82 202.481 126.56C198.854 119.299 195.103 118.5 195.103 118.5C192.731 117.915 190.553 120.125 189.351 122.965" stroke="#263238" stroke-linecap="round" stroke-linejoin="round"/>
<g opacity="0.4">
<g opacity="0.4">
<path d="M188.603 125.182C188.301 126.374 188.204 127.61 188.317 128.835C188.831 133.333 191.021 144.136 191.021 144.136C191.021 144.136 201.818 145.676 204.327 148.12C204.327 148.12 206.108 133.82 202.481 126.56C198.854 119.299 195.103 118.5 195.103 118.5C192.731 117.915 190.553 120.125 189.351 122.965" fill="white"/>
<path d="M188.603 125.182C188.301 126.374 188.204 127.61 188.317 128.835C188.831 133.333 191.021 144.136 191.021 144.136C191.021 144.136 201.818 145.676 204.327 148.12C204.327 148.12 206.108 133.82 202.481 126.56C198.854 119.299 195.103 118.5 195.103 118.5C192.731 117.915 190.553 120.125 189.351 122.965" stroke="#263238" stroke-linecap="round" stroke-linejoin="round"/>
</g>
</g>
<path d="M156.883 130.746C158.499 132.069 160.385 133.023 162.408 133.541" stroke="#263238" stroke-linecap="round" stroke-linejoin="round"/>
<path d="M191.021 130.746C191.021 130.746 194.921 138.117 199.848 139.742" stroke="#263238" stroke-linecap="round" stroke-linejoin="round"/>
<path d="M165.75 187.523C165.75 187.523 166.472 188.069 166.764 190.039" stroke="white" stroke-linecap="round" stroke-linejoin="round"/>
<path d="M163.078 190.039C163.706 190.107 164.313 190.305 164.86 190.621C165.408 190.937 165.883 191.363 166.257 191.872" stroke="white" stroke-linecap="round" stroke-linejoin="round"/>
<path d="M141.576 182.486C141.576 182.486 143.656 183.539 143.208 186.523" stroke="white" stroke-linecap="round" stroke-linejoin="round"/>
<path d="M139.385 185.021C139.385 185.021 142.225 186.705 142.427 188.213" stroke="white" stroke-linecap="round" stroke-linejoin="round"/>
<path d="M172.309 166.834C172.309 166.834 178.633 167.718 180.05 166.834" stroke="white" stroke-linecap="round" stroke-linejoin="round"/>
<path d="M169.76 128.139C169.214 126.591 168.993 124.947 169.11 123.31C169.136 122.755 169.194 122.201 169.285 121.652L168.187 119.91L166.776 117.668L168.408 111.168C168.408 111.168 178.808 113.17 179.588 116.069C180.368 118.968 169.76 128.139 169.76 128.139Z" fill="white"/>
<path opacity="0.2" d="M169.097 123.336C169.123 122.781 169.181 122.227 169.272 121.679L168.174 119.937C170.154 119.631 171.956 118.62 173.25 117.09C173.305 118.436 172.933 119.765 172.187 120.887C171.441 122.009 170.359 122.866 169.097 123.336V123.336Z" fill="black" fill-opacity="0.7"/>
<path d="M169.76 128.139C169.214 126.591 168.993 124.947 169.11 123.31C169.136 122.755 169.194 122.201 169.285 121.652L168.187 119.91L166.776 117.668L168.408 111.168C168.408 111.168 178.808 113.17 179.588 116.069C180.368 118.968 169.76 128.139 169.76 128.139Z" stroke="#263238" stroke-linecap="round" stroke-linejoin="round"/>
<path d="M176.285 111.715C179.535 103.265 177.377 88.8805 161.777 91.6365C152.625 93.2615 151.52 104.324 154.575 109.238C157.63 114.152 154.387 114.308 158.982 117.948C160.848 119.424 162.349 121.926 164.572 122.089C167.218 122.271 170.604 119.768 173.133 117.064" fill="white"/>
<path d="M176.285 111.715C179.535 103.265 177.377 88.8805 161.777 91.6365C152.625 93.2615 151.52 104.324 154.575 109.238C157.63 114.152 154.387 114.308 158.982 117.948C160.848 119.424 162.349 121.926 164.572 122.089C167.218 122.271 170.604 119.768 173.133 117.064" stroke="#263238" stroke-linecap="round" stroke-linejoin="round"/>
<path d="M160.913 109.238C160.913 109.238 163.214 107.145 165.951 108.009" stroke="#263238" stroke-linecap="round" stroke-linejoin="round"/>
<path d="M156.605 109.238C156.296 108.695 155.866 108.23 155.349 107.881C154.831 107.531 154.24 107.306 153.621 107.223" stroke="#263238" stroke-linecap="round" stroke-linejoin="round"/>
<path d="M158.125 112.286C158.125 112.286 157.793 113.97 157.358 115.673C156.922 117.376 160.088 116.446 159.958 116.186" fill="white"/>
<path d="M158.125 112.286C158.125 112.286 157.793 113.97 157.358 115.673C156.922 117.376 160.088 116.446 159.958 116.186" stroke="#263238" stroke-linecap="round" stroke-linejoin="round"/>
<path d="M161.589 118.312C162.931 117.928 164.125 117.146 165.014 116.069" stroke="#263238" stroke-linecap="round" stroke-linejoin="round"/>
<path d="M164.118 111.376C164.164 111.458 164.194 111.548 164.205 111.642C164.216 111.735 164.209 111.83 164.184 111.92C164.158 112.011 164.115 112.096 164.057 112.17C163.999 112.243 163.927 112.305 163.845 112.351C163.678 112.442 163.482 112.464 163.3 112.412C163.117 112.359 162.963 112.237 162.87 112.072C162.81 111.971 162.779 111.857 162.779 111.74C162.733 111.658 162.703 111.568 162.692 111.475C162.68 111.381 162.688 111.287 162.713 111.196C162.738 111.105 162.781 111.021 162.839 110.947C162.898 110.873 162.97 110.811 163.052 110.765C163.218 110.674 163.414 110.652 163.597 110.705C163.779 110.757 163.934 110.879 164.027 111.045C164.086 111.145 164.118 111.26 164.118 111.376Z" fill="#263238"/>
<path d="M157.176 111.233C157.306 111.701 157.215 112.143 156.968 112.208C156.721 112.273 156.415 111.948 156.318 111.473C156.22 110.999 156.285 110.564 156.532 110.499C156.779 110.434 157.033 110.759 157.176 111.233Z" fill="#263238"/>
<path d="M166.666 100.534C166.666 100.534 164.248 106.859 158.268 106.716C158.268 106.716 160.342 105.136 160.914 103.628C160.914 103.628 156.312 108.178 151.716 105.864C147.121 103.55 149.376 92.7863 156.429 88.5353C163.481 84.2843 170.696 85.4218 173.14 89.4843C173.14 89.4843 178.08 89.0293 180.258 96.2898C182.208 102.79 179.088 112.644 176.039 112.754C171.314 112.93 170.365 107.801 170.365 107.801C168.414 105.817 167.122 103.279 166.666 100.534Z" fill="#263238" stroke="#263238" stroke-linecap="round" stroke-linejoin="round"/>
<path d="M171.847 111.746C171.847 111.746 171.697 105.779 175.097 106.501C178.496 107.222 176.033 114.119 173.478 114.047" fill="white"/>
<path d="M171.847 111.746C171.847 111.746 171.697 105.779 175.097 106.501C178.496 107.222 176.033 114.119 173.478 114.047" stroke="#263238" stroke-linecap="round" stroke-linejoin="round"/>
<path d="M161.349 145.248H108.939C108.354 145.248 107.88 145.722 107.88 146.308V148.134C107.88 148.719 108.354 149.194 108.939 149.194H161.349C161.934 149.194 162.408 148.719 162.408 148.134V146.308C162.408 145.722 161.934 145.248 161.349 145.248Z" fill="url(#paint12_linear)" stroke="#263238" stroke-linecap="round" stroke-linejoin="round"/>
<path d="M31.5889 224.645H9.48242L11.7964 244.853H29.2749L31.5889 224.645Z" fill="#263238" stroke="#263238" stroke-linecap="round" stroke-linejoin="round"/>
<path d="M34.2088 210.578C34.2088 210.578 24.5563 211.339 24.1533 218.463C24.1533 218.463 33.9293 222.961 34.2088 210.578Z" fill="url(#paint13_linear)" stroke="#263238" stroke-linecap="round" stroke-linejoin="round"/>
<path d="M15.1115 212.347C15.1115 212.347 9.7165 205.054 1 208.791C1 208.791 6.3235 217.586 15.1115 212.347Z" fill="url(#paint14_linear)" stroke="#263238" stroke-linecap="round" stroke-linejoin="round"/>
<path d="M1.74111 189.324C1.74111 189.324 0.18761 203.351 12.9601 199.49C12.9601 199.49 8.90412 189.174 1.74111 189.324Z" fill="url(#paint15_linear)" stroke="#263238" stroke-linecap="round" stroke-linejoin="round"/>
<path d="M17.4258 181.511C17.4258 181.511 7.32475 186.958 14.7543 195.226C14.7478 195.226 21.8263 189.317 17.4258 181.511Z" fill="url(#paint16_linear)" stroke="#263238" stroke-linecap="round" stroke-linejoin="round"/>
<path d="M29.8473 194.049C29.8473 194.049 18.8623 192.938 18.8623 203.104C18.8623 203.104 29.8473 203.539 29.8473 194.049Z" fill="url(#paint17_linear)" stroke="#263238" stroke-linecap="round" stroke-linejoin="round"/>
<path d="M19.4923 232.971C19.4923 232.971 24.4973 222.467 19.6938 211.768C14.8903 201.069 13.2588 192.054 15.7938 185.703" stroke="#263238" stroke-linecap="round" stroke-linejoin="round"/>
<path d="M26.2398 196.786C26.2398 196.786 19.6553 199.386 17.4258 206.179" stroke="#263238" stroke-linecap="round" stroke-linejoin="round"/>
<path d="M5.21191 194.934C5.21191 194.934 9.01442 200.134 15.4559 199.555" stroke="#263238" stroke-linecap="round" stroke-linejoin="round"/>
<path d="M5.21191 210.286C5.21191 210.286 15.7419 213.315 19.9279 212.327" stroke="#263238" stroke-linecap="round" stroke-linejoin="round"/>
<path d="M31.0754 213.783C31.0754 213.783 26.3629 218.983 21.6309 218.873" stroke="#263238" stroke-linecap="round" stroke-linejoin="round"/>
<path d="M32.5377 224.196H8.5332V227.05H32.5377V224.196Z" fill="#263238" stroke="#263238" stroke-linecap="round" stroke-linejoin="round"/>
<path d="M206.732 205.886C201.12 209.552 196.411 214.441 192.958 220.186C187.232 229.741 182.695 243.183 189.741 244.886L196.442 244.632L209.338 240.206L207.986 237.606C207.986 237.606 196.696 243.586 194.765 243.586C192.835 243.586 190.319 244.067 189.26 243.293C188.2 242.52 192.971 225.145 203.183 219.354C213.394 213.562 206.732 205.886 206.732 205.886Z" fill="url(#paint18_linear)"/>
<path opacity="0.5" d="M206.732 205.886C201.12 209.552 196.411 214.441 192.958 220.186C187.232 229.741 182.695 243.183 189.741 244.886L196.442 244.632L209.338 240.206L207.986 237.606C207.986 237.606 196.696 243.586 194.765 243.586C192.835 243.586 190.319 244.067 189.26 243.293C188.2 242.52 192.971 225.145 203.183 219.354C213.394 213.562 206.732 205.886 206.732 205.886Z" fill="black" fill-opacity="0.7"/>
<path d="M206.732 205.886C201.12 209.552 196.411 214.441 192.958 220.186C187.232 229.741 182.695 243.183 189.741 244.886L196.442 244.632L209.338 240.206L207.986 237.606C207.986 237.606 196.696 243.586 194.765 243.586C192.835 243.586 190.319 244.067 189.26 243.293C188.2 242.52 192.971 225.145 203.183 219.354C213.394 213.562 206.732 205.886 206.732 205.886Z" stroke="#263238" stroke-linecap="round" stroke-linejoin="round"/>
<path d="M214.07 199.62C214.07 199.62 214.07 196.818 218.315 196.435C222.559 196.051 223.164 200.14 223.164 200.14H221.701C221.701 200.14 221.734 197.689 218.614 197.501C215.494 197.312 215.611 200.14 215.611 200.14L214.07 199.62Z" fill="url(#paint19_linear)" stroke="#263238" stroke-linecap="round" stroke-linejoin="round"/>
<path d="M207.792 244.886C198.815 244.886 200.518 204.631 201.552 202.636C202.585 200.64 228.631 199.646 231.198 200.491C233.766 201.336 244.062 241.441 238.381 244.645L207.792 244.886Z" fill="url(#paint20_linear)"/>
<path opacity="0.2" d="M207.792 244.886C198.815 244.886 200.518 204.631 201.552 202.636C202.585 200.64 228.631 199.646 231.198 200.491C233.766 201.336 244.062 241.441 238.381 244.645L207.792 244.886Z" fill="black" fill-opacity="0.7"/>
<path d="M207.792 244.886C198.815 244.886 200.518 204.631 201.552 202.636C202.585 200.64 228.631 199.646 231.198 200.491C233.766 201.336 244.062 241.441 238.381 244.645L207.792 244.886Z" stroke="#263238" stroke-linecap="round" stroke-linejoin="round"/>
<path d="M201.551 202.59C204.801 203.286 206.673 216.461 211.047 219.815C215.422 223.169 236.046 222.448 238.38 219.815C240.713 217.183 236.15 202.402 232.835 200.14C229.52 197.878 227.161 200.075 217.833 199.041C204.008 197.501 201.551 202.59 201.551 202.59Z" fill="url(#paint21_linear)" stroke="#263238" stroke-linecap="round" stroke-linejoin="round"/>
<path d="M225.225 210.163L229.047 213.283C229.099 213.327 229.142 213.381 229.173 213.442C229.204 213.503 229.223 213.57 229.228 213.638C229.234 213.706 229.226 213.775 229.205 213.84C229.184 213.905 229.15 213.965 229.105 214.017V214.017L226.128 217.228C226.033 217.323 225.905 217.376 225.771 217.376C225.637 217.376 225.508 217.323 225.413 217.228V217.228L221.611 213.686C221.518 213.59 221.466 213.462 221.466 213.328C221.466 213.195 221.518 213.066 221.611 212.971V212.971L224.555 210.234C224.639 210.142 224.753 210.084 224.876 210.071C225 210.058 225.124 210.091 225.225 210.163V210.163Z" fill="url(#paint22_linear)"/>
<path opacity="0.2" d="M225.225 210.163L229.047 213.283C229.099 213.327 229.142 213.381 229.173 213.442C229.204 213.503 229.223 213.57 229.228 213.638C229.234 213.706 229.226 213.775 229.205 213.84C229.184 213.905 229.15 213.965 229.105 214.017V214.017L226.128 217.228C226.033 217.323 225.905 217.376 225.771 217.376C225.637 217.376 225.508 217.323 225.413 217.228V217.228L221.611 213.686C221.518 213.59 221.466 213.462 221.466 213.328C221.466 213.195 221.518 213.066 221.611 212.971V212.971L224.555 210.234C224.639 210.142 224.753 210.084 224.876 210.071C225 210.058 225.124 210.091 225.225 210.163V210.163Z" fill="black" fill-opacity="0.7"/>
<path d="M225.225 210.163L229.047 213.283C229.099 213.327 229.142 213.381 229.173 213.442C229.204 213.503 229.223 213.57 229.228 213.638C229.234 213.706 229.226 213.775 229.205 213.84C229.184 213.905 229.15 213.965 229.105 214.017V214.017L226.128 217.228C226.033 217.323 225.905 217.376 225.771 217.376C225.637 217.376 225.508 217.323 225.413 217.228V217.228L221.611 213.686C221.518 213.59 221.466 213.462 221.466 213.328C221.466 213.195 221.518 213.066 221.611 212.971V212.971L224.555 210.234C224.639 210.142 224.753 210.084 224.876 210.071C225 210.058 225.124 210.091 225.225 210.163V210.163Z" stroke="#263238" stroke-linecap="round" stroke-linejoin="round"/>
<path d="M212.621 226.549C212.621 226.549 229.898 227.972 238.38 225.775C239.515 226.669 240.359 227.879 240.805 229.253C241.578 231.567 243.19 239.484 238.38 241.512C233.57 243.54 216.28 243.15 213.973 240.862C211.665 238.574 212.621 226.549 212.621 226.549Z" fill="url(#paint23_linear)"/>
<path opacity="0.4" d="M212.621 226.549C212.621 226.549 229.898 227.972 238.38 225.775C239.515 226.669 240.359 227.879 240.805 229.253C241.578 231.567 243.19 239.484 238.38 241.512C233.57 243.54 216.28 243.15 213.973 240.862C211.665 238.574 212.621 226.549 212.621 226.549Z" fill="black" fill-opacity="0.7"/>
<path d="M212.621 226.549C212.621 226.549 229.898 227.972 238.38 225.775C239.515 226.669 240.359 227.879 240.805 229.253C241.578 231.567 243.19 239.484 238.38 241.512C233.57 243.54 216.28 243.15 213.973 240.862C211.665 238.574 212.621 226.549 212.621 226.549Z" stroke="#263238" stroke-linecap="round" stroke-linejoin="round"/>
<path d="M212.621 226.549C212.621 226.549 214.649 232.015 215.709 232.854C216.768 233.692 239.213 233.692 241.709 231.664C244.205 229.636 240.786 225.97 238.387 225.775C238.381 225.775 222.657 227.608 212.621 226.549Z" fill="url(#paint24_linear)" stroke="#263238" stroke-linecap="round" stroke-linejoin="round"/>
<path d="M205.38 225.386C205.38 225.386 205.959 236.871 207.116 239.478C206.257 239.926 205.302 240.16 204.334 240.16C203.365 240.16 202.41 239.926 201.552 239.478C198.627 237.931 199.108 228.038 199.686 228.064C200.265 228.09 205.38 225.386 205.38 225.386Z" fill="url(#paint25_linear)"/>
<path opacity="0.4" d="M205.38 225.386C205.38 225.386 205.959 236.871 207.116 239.478C206.257 239.926 205.302 240.16 204.334 240.16C203.365 240.16 202.41 239.926 201.552 239.478C198.627 237.931 199.108 228.038 199.686 228.064C200.265 228.09 205.38 225.386 205.38 225.386Z" fill="black" fill-opacity="0.7"/>
<path d="M205.38 225.386C205.38 225.386 205.959 236.871 207.116 239.478C206.257 239.926 205.302 240.16 204.334 240.16C203.365 240.16 202.41 239.926 201.552 239.478C198.627 237.931 199.108 228.038 199.686 228.064C200.265 228.09 205.38 225.386 205.38 225.386Z" stroke="#263238" stroke-linecap="round" stroke-linejoin="round"/>
<path d="M205.38 225.386L201.032 226.257C201.032 226.257 196.885 229.442 198.718 230.501C200.551 231.561 205.276 228.961 205.38 225.386Z" fill="url(#paint26_linear)" stroke="#263238" stroke-linecap="round" stroke-linejoin="round"/>
<defs>
<linearGradient id="paint0_linear" x1="128.002" y1="43.2686" x2="144.829" y2="43.6379" gradientUnits="userSpaceOnUse">
<stop stop-color="#82C132"/>
<stop offset="1" stop-color="#42A132"/>
</linearGradient>
<linearGradient id="paint1_linear" x1="142.875" y1="52.9463" x2="154.833" y2="53.2088" gradientUnits="userSpaceOnUse">
<stop stop-color="#82C132"/>
<stop offset="1" stop-color="#42A132"/>
</linearGradient>
<linearGradient id="paint2_linear" x1="135.616" y1="60.0576" x2="144.124" y2="60.2438" gradientUnits="userSpaceOnUse">
<stop stop-color="#82C132"/>
<stop offset="1" stop-color="#42A132"/>
</linearGradient>
<linearGradient id="paint3_linear" x1="165.455" y1="122.235" x2="228.309" y2="124.506" gradientUnits="userSpaceOnUse">
<stop stop-color="#82C132"/>
<stop offset="1" stop-color="#42A132"/>
</linearGradient>
<linearGradient id="paint4_linear" x1="146.794" y1="179.848" x2="204.261" y2="187.78" gradientUnits="userSpaceOnUse">
<stop stop-color="#82C132"/>
<stop offset="1" stop-color="#42A132"/>
</linearGradient>
<linearGradient id="paint5_linear" x1="144.361" y1="119.163" x2="167.252" y2="119.721" gradientUnits="userSpaceOnUse">
<stop stop-color="#82C132"/>
<stop offset="1" stop-color="#42A132"/>
</linearGradient>
<linearGradient id="paint6_linear" x1="133.238" y1="230.645" x2="157.697" y2="231.418" gradientUnits="userSpaceOnUse">
<stop stop-color="#82C132"/>
<stop offset="1" stop-color="#42A132"/>
</linearGradient>
<linearGradient id="paint7_linear" x1="122.869" y1="234.222" x2="150.787" y2="235.379" gradientUnits="userSpaceOnUse">
<stop stop-color="#82C132"/>
<stop offset="1" stop-color="#42A132"/>
</linearGradient>
<linearGradient id="paint8_linear" x1="158.836" y1="112.624" x2="204.236" y2="113.558" gradientUnits="userSpaceOnUse">
<stop stop-color="#82C132"/>
<stop offset="1" stop-color="#42A132"/>
</linearGradient>
<linearGradient id="paint9_linear" x1="166.102" y1="112.165" x2="184.208" y2="112.514" gradientUnits="userSpaceOnUse">
<stop stop-color="#82C132"/>
<stop offset="1" stop-color="#42A132"/>
</linearGradient>
<linearGradient id="paint10_linear" x1="191.288" y1="143.165" x2="204.573" y2="143.944" gradientUnits="userSpaceOnUse">
<stop stop-color="#82C132"/>
<stop offset="1" stop-color="#42A132"/>
</linearGradient>
<linearGradient id="paint11_linear" x1="188.601" y1="118.405" x2="205.124" y2="118.607" gradientUnits="userSpaceOnUse">
<stop stop-color="#82C132"/>
<stop offset="1" stop-color="#42A132"/>
</linearGradient>
<linearGradient id="paint12_linear" x1="108.97" y1="145.248" x2="159.001" y2="160.425" gradientUnits="userSpaceOnUse">
<stop stop-color="#82C132"/>
<stop offset="1" stop-color="#42A132"/>
</linearGradient>
<linearGradient id="paint13_linear" x1="24.3544" y1="210.578" x2="34.423" y2="210.834" gradientUnits="userSpaceOnUse">
<stop stop-color="#82C132"/>
<stop offset="1" stop-color="#42A132"/>
</linearGradient>
<linearGradient id="paint14_linear" x1="1.28223" y1="207.726" x2="15.387" y2="208.421" gradientUnits="userSpaceOnUse">
<stop stop-color="#82C132"/>
<stop offset="1" stop-color="#42A132"/>
</linearGradient>
<linearGradient id="paint15_linear" x1="1.90721" y1="189.322" x2="13.2018" y2="189.58" gradientUnits="userSpaceOnUse">
<stop stop-color="#82C132"/>
<stop offset="1" stop-color="#42A132"/>
</linearGradient>
<linearGradient id="paint16_linear" x1="12.1632" y1="181.511" x2="19.0167" y2="181.586" gradientUnits="userSpaceOnUse">
<stop stop-color="#82C132"/>
<stop offset="1" stop-color="#42A132"/>
</linearGradient>
<linearGradient id="paint17_linear" x1="19.082" y1="194.014" x2="30.0807" y2="194.305" gradientUnits="userSpaceOnUse">
<stop stop-color="#82C132"/>
<stop offset="1" stop-color="#42A132"/>
</linearGradient>
<linearGradient id="paint18_linear" x1="186.613" y1="205.886" x2="209.843" y2="206.189" gradientUnits="userSpaceOnUse">
<stop stop-color="#82C132"/>
<stop offset="1" stop-color="#42A132"/>
</linearGradient>
<linearGradient id="paint19_linear" x1="214.252" y1="196.409" x2="223.337" y2="196.895" gradientUnits="userSpaceOnUse">
<stop stop-color="#82C132"/>
<stop offset="1" stop-color="#42A132"/>
</linearGradient>
<linearGradient id="paint20_linear" x1="201.491" y1="200.188" x2="240.915" y2="200.951" gradientUnits="userSpaceOnUse">
<stop stop-color="#82C132"/>
<stop offset="1" stop-color="#42A132"/>
</linearGradient>
<linearGradient id="paint21_linear" x1="202.3" y1="198.751" x2="239.795" y2="200.073" gradientUnits="userSpaceOnUse">
<stop stop-color="#82C132"/>
<stop offset="1" stop-color="#42A132"/>
</linearGradient>
<linearGradient id="paint22_linear" x1="221.621" y1="210.068" x2="229.396" y2="210.25" gradientUnits="userSpaceOnUse">
<stop stop-color="#82C132"/>
<stop offset="1" stop-color="#42A132"/>
</linearGradient>
<linearGradient id="paint23_linear" x1="213.01" y1="225.775" x2="242.299" y2="226.879" gradientUnits="userSpaceOnUse">
<stop stop-color="#82C132"/>
<stop offset="1" stop-color="#42A132"/>
</linearGradient>
<linearGradient id="paint24_linear" x1="213.22" y1="225.775" x2="243.015" y2="228.351" gradientUnits="userSpaceOnUse">
<stop stop-color="#82C132"/>
<stop offset="1" stop-color="#42A132"/>
</linearGradient>
<linearGradient id="paint25_linear" x1="199.407" y1="225.386" x2="207.287" y2="225.478" gradientUnits="userSpaceOnUse">
<stop stop-color="#82C132"/>
<stop offset="1" stop-color="#42A132"/>
</linearGradient>
<linearGradient id="paint26_linear" x1="198.393" y1="225.386" x2="205.531" y2="225.594" gradientUnits="userSpaceOnUse">
<stop stop-color="#82C132"/>
<stop offset="1" stop-color="#42A132"/>
</linearGradient>
</defs>
</svg>
