<svg width="40" height="40" viewBox="0 0 40 40" fill="none" xmlns="http://www.w3.org/2000/svg">
<path d="M26.985 3.33301H13.0167C7.95 3.33301 5 6.29967 5 11.383V28.5997C5 33.7663 7.95 36.6663 13.0167 36.6663H26.985C32.1333 36.6663 35 33.7663 35 28.5997V11.383C35 6.29967 32.1333 3.33301 26.985 3.33301Z" fill="url(#paint0_linear)"/>
<path fill-rule="evenodd" clip-rule="evenodd" d="M13.4665 11.083V11.0997C12.7482 11.0997 12.1665 11.683 12.1665 12.3997C12.1665 13.1163 12.7482 13.6997 13.4665 13.6997H18.4482C19.1665 13.6997 19.7498 13.1163 19.7498 12.3813C19.7498 11.6663 19.1665 11.083 18.4482 11.083H13.4665ZM26.5332 21.2332H13.4665C12.7482 21.2332 12.1665 20.6499 12.1665 19.9332C12.1665 19.2165 12.7482 18.6315 13.4665 18.6315H26.5332C27.2498 18.6315 27.8332 19.2165 27.8332 19.9332C27.8332 20.6499 27.2498 21.2332 26.5332 21.2332ZM26.5333 28.8496H13.4666C12.9666 28.9163 12.4833 28.6663 12.2166 28.2496C11.9499 27.8163 11.9499 27.2663 12.2166 26.8496C12.4833 26.4163 12.9666 26.183 13.4666 26.233H26.5333C27.1983 26.2996 27.6999 26.8663 27.6999 27.5496C27.6999 28.2146 27.1983 28.783 26.5333 28.8496Z" fill="white" fill-opacity="0.9"/>
<defs>
<linearGradient id="paint0_linear" x1="5.6" y1="3.333" x2="35.6468" y2="3.92658" gradientUnits="userSpaceOnUse">
<stop stop-color="#82C132"/>
<stop offset="1" stop-color="#42A132"/>
</linearGradient>
</defs>
</svg>
