<svg width="257" height="200" viewBox="0 0 257 200" fill="none" xmlns="http://www.w3.org/2000/svg">
<path d="M252.368 185.888C249.807 185.888 249.807 188.735 247.239 188.735C244.672 188.735 244.678 185.888 242.117 185.888C239.556 185.888 239.517 188.735 236.989 188.735C234.46 188.735 234.421 185.888 231.86 185.888C229.299 185.888 229.299 188.735 226.732 188.735C224.164 188.735 224.171 185.888 221.603 185.888C219.036 185.888 219.042 188.735 216.481 188.735C213.92 188.735 213.914 185.888 211.353 185.888C208.792 185.888 208.792 188.735 206.224 188.735C203.657 188.735 203.663 185.888 201.102 185.888C198.541 185.888 198.535 188.735 195.974 188.735C193.413 188.735 193.413 185.888 190.852 185.888C188.291 185.888 188.252 188.735 185.723 188.735C183.195 188.735 183.162 185.888 180.601 185.888C178.04 185.888 178.04 188.735 175.473 188.735C172.905 188.735 172.912 185.888 170.351 185.888C167.79 185.888 167.79 188.735 165.229 188.735C162.668 188.735 162.661 185.888 160.1 185.888C157.539 185.888 157.539 188.735 154.978 188.735C152.417 188.735 152.417 185.888 149.856 185.888C147.295 185.888 147.295 188.735 144.728 188.735C142.16 188.735 142.167 185.888 139.606 185.888C137.045 185.888 137.045 188.735 134.477 188.735C131.91 188.735 131.916 185.888 129.355 185.888C126.794 185.888 126.755 188.735 124.227 188.735C121.698 188.735 121.666 185.888 119.105 185.888C116.544 185.888 116.537 188.735 113.976 188.735C111.415 188.735 111.415 185.888 108.854 185.888C106.293 185.888 106.287 188.735 103.726 188.735C101.165 188.735 101.165 185.888 98.604 185.888C96.043 185.888 96.0495 188.735 93.4495 188.735C90.8495 188.735 90.8885 185.888 88.3275 185.888C85.7665 185.888 85.7665 188.735 83.2055 188.735C80.6445 188.735 80.638 185.888 78.077 185.888C75.516 185.888 75.516 188.735 72.955 188.735C70.394 188.735 70.3875 185.888 67.8265 185.888C65.2655 185.888 65.2655 188.735 62.7045 188.735C60.1435 188.735 60.1435 185.888 57.576 185.888C55.0085 185.888 55.015 188.735 52.454 188.735C49.893 188.735 49.893 185.888 47.332 185.888C44.771 185.888 44.771 188.735 42.2035 188.735C39.636 188.735 39.6425 185.888 37.0815 185.888C34.5205 185.888 34.5205 188.735 31.9595 188.735C29.3985 188.735 29.3985 185.888 26.831 185.888C24.2635 185.888 24.27 188.735 21.709 188.735C19.148 188.735 19.148 185.888 16.587 185.888C14.026 185.888 14.026 188.735 11.4585 188.735C8.89097 188.735 8.94947 185.888 6.34947 185.888C3.74947 185.888 3.78847 188.735 1.22747 188.735H0.980469V198.225H256.781V188.637C254.916 188.15 254.649 185.888 252.368 185.888Z" fill="url(#paint0_linear)"/>
<path d="M57.3096 196.411V170.145" stroke="#263238" stroke-width="1.65533" stroke-miterlimit="10"/>
<path d="M45.1875 171.36L57.31 180.252" stroke="#263238" stroke-width="1.65533" stroke-miterlimit="10"/>
<path d="M57.3096 189.139L71.0506 170.958" stroke="#263238" stroke-width="1.65533" stroke-miterlimit="10"/>
<path d="M94.3005 172.14V163.768C94.3013 159.139 93.3904 154.556 91.6196 150.279C89.8489 146.003 87.253 142.117 83.9803 138.843C80.7076 135.57 76.8222 132.973 72.5459 131.202C68.2696 129.43 63.6862 128.519 59.0575 128.519V128.519C54.4287 128.519 49.8453 129.43 45.569 131.202C41.2927 132.973 37.4073 135.57 34.1346 138.843C30.8619 142.117 28.266 146.003 26.4953 150.279C24.7246 154.556 23.8136 159.139 23.8145 163.768V172.14H94.3005Z" fill="url(#paint1_linear)"/>
<path opacity="0.5" d="M94.3005 172.14V163.768C94.3013 159.139 93.3904 154.556 91.6196 150.279C89.8489 146.003 87.253 142.117 83.9803 138.843C80.7076 135.57 76.8222 132.973 72.5459 131.202C68.2696 129.43 63.6862 128.519 59.0575 128.519V128.519C54.4287 128.519 49.8453 129.43 45.569 131.202C41.2927 132.973 37.4073 135.57 34.1346 138.843C30.8619 142.117 28.266 146.003 26.4953 150.279C24.7246 154.556 23.8136 159.139 23.8145 163.768V172.14H94.3005Z" fill="white"/>
<path opacity="0.1" d="M23.8151 172.141H94.3011V163.769C94.3017 158.673 93.1927 153.638 91.0511 149.014L90.8561 149.196C90.482 148.385 89.8849 147.698 89.1347 147.214C88.3845 146.73 87.5121 146.469 86.6193 146.462C85.7265 146.455 84.8501 146.703 84.0926 147.175C83.3351 147.648 82.7276 148.326 82.3411 149.131C81.8921 148.797 81.3472 148.617 80.7876 148.617C80.2392 148.607 79.7027 148.777 79.2601 149.101C78.8176 149.425 78.4934 149.885 78.3371 150.411C78.0962 150.066 77.7752 149.785 77.4016 149.591C77.028 149.398 76.6129 149.298 76.1921 149.3C75.605 149.298 75.0345 149.495 74.5736 149.859C74.4242 149.348 74.1218 148.896 73.7071 148.563C73.2925 148.229 72.7857 148.031 72.255 147.995C71.7243 147.959 71.1953 148.087 70.7393 148.361C70.2834 148.634 69.9224 149.042 69.7051 149.527C69.2662 149.229 68.7473 149.07 68.2166 149.072C67.5757 149.067 66.9553 149.298 66.4746 149.722C66.1164 148.916 65.5386 148.227 64.8073 147.734C64.076 147.241 63.2207 146.964 62.3392 146.934C61.4577 146.904 60.5856 147.123 59.8226 147.566C59.0596 148.008 58.4365 148.656 58.0246 149.436C57.7812 149.107 57.4636 148.841 57.0977 148.658C56.7317 148.475 56.3278 148.381 55.9186 148.383C55.3675 148.373 54.8281 148.544 54.384 148.871C53.9399 149.197 53.6158 149.661 53.4616 150.19C53.2719 149.717 52.9429 149.312 52.518 149.03C52.0931 148.748 51.5925 148.602 51.0826 148.611C50.7125 148.613 50.347 148.694 50.0108 148.849C49.6745 149.003 49.3751 149.228 49.1326 149.508C48.9224 149.036 48.5766 148.638 48.1394 148.364C47.7022 148.09 47.1933 147.952 46.6775 147.968C46.1617 147.984 45.6623 148.154 45.2429 148.454C44.8236 148.755 44.5032 149.174 44.3226 149.657C43.8418 149.179 43.2642 148.808 42.6286 148.571C41.993 148.333 41.3141 148.234 40.6371 148.28C39.9602 148.327 39.3009 148.517 38.7035 148.838C38.106 149.16 37.5841 149.605 37.1726 150.145C37.0555 149.573 36.7415 149.061 36.2853 148.698C35.8291 148.334 35.2598 148.142 34.6766 148.156C34.1705 148.148 33.6737 148.293 33.2507 148.571C32.8277 148.849 32.498 149.248 32.3041 149.716C32.0548 149.466 31.7574 149.27 31.43 149.14C31.1026 149.009 30.7521 148.946 30.3996 148.955C30.1504 148.958 29.9028 148.997 29.6651 149.072C29.2977 148.282 28.7054 147.617 27.9621 147.161C25.2267 152.269 23.7996 157.975 23.8086 163.769L23.8151 172.141Z" fill="#263238"/>
<path opacity="0.1" d="M94.3006 163.769C94.3024 161.44 94.0738 159.117 93.6181 156.833C93.293 156.786 92.965 156.762 92.6366 156.762C90.2966 156.762 88.3011 157.867 87.4366 159.433C86.8623 159.093 86.2061 158.915 85.5386 158.92C84.9167 158.878 84.2969 159.028 83.7625 159.348C83.228 159.669 82.8044 160.145 82.5486 160.714C82.222 160.351 81.8202 160.063 81.3712 159.871C80.9221 159.679 80.4367 159.587 79.9486 159.602C79.2587 159.6 78.5825 159.794 77.9986 160.161C77.7191 159.069 76.4646 158.211 74.9631 158.211C74.3784 158.179 73.7965 158.312 73.2831 158.593C72.7697 158.874 72.3452 159.294 72.0576 159.804C71.5038 159.501 70.8818 159.344 70.2506 159.349C69.4914 159.337 68.7479 159.565 68.1251 159.999C67.3321 158.354 65.2911 157.184 62.8796 157.184C60.6176 157.184 58.6676 158.224 57.7901 159.713C57.4595 159.367 57.0602 159.095 56.6179 158.914C56.1757 158.733 55.7003 158.646 55.2226 158.66C54.5981 158.618 53.9759 158.769 53.44 159.092C52.904 159.415 52.4803 159.895 52.2261 160.467C51.9366 159.961 51.5123 159.545 51.0004 159.266C50.4885 158.987 49.9092 158.856 49.3271 158.887C48.4409 158.872 47.5817 159.192 46.9221 159.784C46.6287 159.291 46.2059 158.887 45.6995 158.617C45.1931 158.346 44.6223 158.219 44.0491 158.25C43.4384 158.212 42.8301 158.356 42.3021 158.665C41.7741 158.975 41.3503 159.434 41.0851 159.986C39.9193 159.058 38.4665 158.566 36.9771 158.595C36.1201 158.57 35.2674 158.724 34.4729 159.046C33.6785 159.368 32.9597 159.852 32.362 160.467C32.115 159.342 30.854 158.478 29.32 158.478C28.7396 158.448 28.162 158.578 27.6506 158.854C27.1393 159.13 26.7139 159.542 26.421 160.044C25.7802 159.531 24.9802 159.257 24.159 159.271V159.271C23.9683 160.765 23.8728 162.269 23.873 163.775V172.147H94.3006V163.769Z" fill="#263238"/>
<path d="M200.075 196.411V170.145" stroke="#263238" stroke-width="1.65533" stroke-miterlimit="10"/>
<path d="M187.953 171.36L200.076 180.252" stroke="#263238" stroke-width="1.65533" stroke-miterlimit="10"/>
<path d="M200.075 189.139L213.816 170.958" stroke="#263238" stroke-width="1.65533" stroke-miterlimit="10"/>
<path d="M237.099 172.14V163.768C237.1 159.139 236.189 154.556 234.418 150.279C232.648 146.003 230.052 142.117 226.779 138.843C223.506 135.57 219.621 132.973 215.345 131.202C211.068 129.43 206.485 128.519 201.856 128.519V128.519C197.228 128.519 192.644 129.43 188.368 131.202C184.092 132.973 180.206 135.57 176.933 138.843C173.661 142.117 171.065 146.003 169.294 150.279C167.523 154.556 166.612 159.139 166.613 163.768V172.14H237.099Z" fill="url(#paint2_linear)"/>
<path opacity="0.5" d="M237.099 172.14V163.768C237.1 159.139 236.189 154.556 234.418 150.279C232.648 146.003 230.052 142.117 226.779 138.843C223.506 135.57 219.621 132.973 215.345 131.202C211.068 129.43 206.485 128.519 201.856 128.519V128.519C197.228 128.519 192.644 129.43 188.368 131.202C184.092 132.973 180.206 135.57 176.933 138.843C173.661 142.117 171.065 146.003 169.294 150.279C167.523 154.556 166.612 159.139 166.613 163.768V172.14H237.099Z" fill="white"/>
<path opacity="0.1" d="M166.581 172.141H237.1V163.769C237.1 158.673 235.991 153.638 233.85 149.014L233.655 149.196C233.28 148.385 232.683 147.698 231.933 147.214C231.183 146.73 230.31 146.469 229.418 146.462C228.525 146.455 227.649 146.703 226.891 147.175C226.134 147.648 225.526 148.326 225.14 149.131C224.69 148.797 224.146 148.617 223.586 148.617C223.038 148.607 222.501 148.777 222.059 149.101C221.616 149.425 221.292 149.885 221.136 150.411C220.895 150.066 220.574 149.785 220.2 149.591C219.826 149.398 219.411 149.298 218.991 149.3C218.403 149.298 217.833 149.495 217.372 149.859C217.223 149.348 216.92 148.896 216.506 148.563C216.091 148.229 215.584 148.031 215.053 147.995C214.523 147.959 213.994 148.087 213.538 148.361C213.082 148.634 212.721 149.042 212.504 149.527C212.065 149.229 211.546 149.07 211.015 149.072C210.374 149.067 209.754 149.298 209.273 149.722C208.915 148.916 208.337 148.227 207.606 147.734C206.874 147.241 206.019 146.964 205.138 146.934C204.256 146.904 203.384 147.123 202.621 147.566C201.858 148.008 201.235 148.656 200.823 149.436C200.58 149.107 200.262 148.841 199.896 148.658C199.53 148.475 199.126 148.381 198.717 148.383C198.166 148.373 197.627 148.544 197.182 148.871C196.738 149.197 196.414 149.661 196.26 150.19C196.07 149.717 195.741 149.312 195.316 149.03C194.892 148.748 194.391 148.602 193.881 148.611C193.511 148.613 193.145 148.694 192.809 148.849C192.473 149.003 192.174 149.228 191.931 149.508C191.721 149.036 191.375 148.638 190.938 148.364C190.501 148.09 189.992 147.952 189.476 147.968C188.96 147.984 188.461 148.154 188.041 148.454C187.622 148.755 187.302 149.174 187.121 149.657C186.64 149.179 186.063 148.808 185.427 148.571C184.791 148.333 184.112 148.234 183.436 148.28C182.759 148.327 182.099 148.517 181.502 148.838C180.904 149.16 180.382 149.605 179.971 150.145C179.854 149.573 179.54 149.061 179.084 148.698C178.628 148.334 178.058 148.142 177.475 148.156C176.969 148.148 176.472 148.293 176.049 148.571C175.626 148.849 175.296 149.248 175.103 149.716C174.859 149.471 174.569 149.277 174.25 149.145C173.931 149.013 173.589 148.947 173.244 148.949C172.994 148.951 172.747 148.991 172.509 149.066C172.141 148.273 171.546 147.608 170.8 147.155C168.068 152.263 166.643 157.969 166.653 163.762L166.581 172.141Z" fill="#263238"/>
<path opacity="0.1" d="M237.1 163.769C237.102 161.44 236.873 159.117 236.417 156.833C236.092 156.786 235.764 156.762 235.436 156.762C233.096 156.762 231.1 157.867 230.236 159.433C229.662 159.093 229.006 158.915 228.338 158.92C227.716 158.878 227.096 159.028 226.562 159.348C226.027 159.669 225.604 160.145 225.348 160.714C225.021 160.351 224.62 160.063 224.171 159.871C223.722 159.679 223.236 159.587 222.748 159.602C222.058 159.6 221.382 159.794 220.798 160.161C220.518 159.069 219.264 158.211 217.762 158.211C217.178 158.179 216.596 158.312 216.083 158.593C215.569 158.874 215.145 159.294 214.857 159.804C214.303 159.501 213.681 159.344 213.05 159.349C212.291 159.337 211.547 159.565 210.924 159.999C210.131 158.354 208.09 157.184 205.679 157.184C203.417 157.184 201.467 158.224 200.589 159.713C200.259 159.367 199.86 159.095 199.417 158.914C198.975 158.733 198.5 158.646 198.022 158.66C197.398 158.618 196.775 158.769 196.239 159.092C195.703 159.415 195.28 159.895 195.025 160.467C194.736 159.961 194.312 159.545 193.8 159.266C193.288 158.987 192.709 158.856 192.126 158.887C191.24 158.872 190.381 159.192 189.721 159.784C189.432 159.278 189.008 158.863 188.496 158.584C187.984 158.305 187.405 158.174 186.822 158.205C186.212 158.166 185.604 158.311 185.076 158.62C184.548 158.929 184.124 159.389 183.858 159.94C182.693 159.013 181.24 158.521 179.75 158.549C178.894 158.525 178.041 158.678 177.246 159C176.452 159.323 175.733 159.807 175.135 160.421C174.888 159.297 173.627 158.432 172.093 158.432C171.513 158.402 170.935 158.532 170.424 158.809C169.913 159.085 169.487 159.497 169.194 159.999C168.554 159.485 167.754 159.212 166.932 159.225V159.225C166.742 160.719 166.646 162.224 166.646 163.73V172.102H237.1V163.769Z" fill="#263238"/>
<path d="M182.702 16.2972C180.102 14.8932 178.958 16.0632 178.022 14.8932C177.086 13.7232 180.622 10.6747 173.576 7.63272C173.576 7.63272 173.108 1.08073 163.514 0.846728C153.92 0.612728 156.5 7.39872 153.9 9.03672C151.3 10.6747 150.65 8.10072 148.05 9.73872C145.45 11.3767 146.646 14.6592 144.54 15.1272C142.434 15.5952 139.626 13.0212 137.052 14.6592C134.478 16.2972 134.452 17.7012 133.302 17.7012C132.151 17.7012 129.792 16.7652 128.388 17.7012C126.984 18.6372 125.346 19.8072 125.346 19.8072H184.561C184.561 19.8072 185.276 17.7012 182.702 16.2972Z" fill="white"/>
<path d="M220.2 75.8638C218.419 74.8953 217.6 75.7078 216.95 74.8953C216.3 74.0828 218.724 71.9833 213.875 69.8838C213.875 69.8838 213.55 65.3338 206.92 65.1973C200.29 65.0608 202.071 69.7473 200.297 70.8523C198.522 71.9573 198.028 70.2023 196.254 71.3398C194.479 72.4773 195.285 74.7328 193.829 75.0578C192.373 75.3828 190.43 73.6018 188.629 74.7328C186.829 75.8638 186.848 76.8388 186.029 76.8388C185.21 76.8388 183.605 76.1888 182.63 76.8388C181.655 77.4888 180.53 78.2948 180.53 78.2948H221.5C221.5 78.2948 222 76.8388 220.2 75.8638Z" fill="white"/>
<path d="M195.753 66.698C194.635 66.0935 194.128 66.6005 193.725 66.0935C193.322 65.5865 194.843 64.2605 191.775 62.941C191.775 62.941 191.567 60.094 187.401 59.9965C183.234 59.899 184.352 62.837 183.234 63.552C182.116 64.267 181.817 63.1425 180.699 63.8575C179.581 64.5725 180.088 65.9895 179.172 66.191C178.255 66.3925 177.04 65.281 175.922 65.9895C174.804 66.698 174.804 67.2895 174.297 67.2895C173.79 67.2895 172.769 66.8865 172.158 67.2895C171.547 67.6925 170.858 68.206 170.858 68.206H196.566C196.636 67.8989 196.593 67.5767 196.443 67.2993C196.294 67.0219 196.049 66.8082 195.753 66.698Z" fill="white"/>
<path d="M104.422 89.3507C100.425 87.1732 98.6111 88.9867 97.1551 87.1732C95.6991 85.3597 101.153 80.6342 90.2521 75.9087C90.2521 75.9087 89.5241 65.7297 74.6521 65.3722C59.7801 65.0147 63.7516 75.5447 59.7541 78.0862C55.7566 80.6277 54.6646 76.6367 50.6541 79.1782C46.6436 81.7197 48.4766 86.8092 45.2071 87.5372C41.9376 88.2652 37.5761 84.2872 33.5786 86.8092C29.5811 89.3312 29.5811 91.5347 27.7286 91.5347C25.8761 91.5347 22.2816 90.0787 20.0976 91.5347C17.9136 92.9907 15.3721 94.7847 15.3721 94.7847H107.334C107.334 94.7847 108.4 91.5347 104.422 89.3507Z" fill="white"/>
<path d="M111.001 143.736C111.001 143.736 111.28 151.816 113.23 156.925C115.18 162.034 123.539 176.522 125.58 180.143C127.621 183.763 128.18 184.784 128.18 184.784C126.559 186.781 125.04 188.859 123.63 191.011C122.239 193.331 119.73 194.54 120.289 195.47C120.848 196.399 121.498 196.302 124.469 195.561C127.439 194.82 128.369 193.143 130.787 191.193C133.205 189.243 135.148 189.152 135.239 187.663C135.33 186.175 132.269 183.393 131.619 181.625C130.969 179.857 127.257 172.063 125.119 163.607C122.98 155.15 120.939 152.466 120.848 151.445C120.757 150.425 121.68 144.009 121.68 144.009L111.001 143.736Z" fill="white"/>
<path d="M135.201 187.416C134.993 185.889 132.21 183.302 131.593 181.625C130.975 179.948 127.231 172.063 125.093 163.607C122.954 155.15 120.913 152.466 120.822 151.445C120.731 150.425 121.654 144.009 121.654 144.009L111.001 143.736C111.001 143.736 111.098 146.635 111.599 150.061C112.197 150.152 112.899 150.23 113.737 150.282C115.551 150.423 117.374 150.222 119.113 149.69C119.113 149.69 118.515 152.076 120.504 158.244C122.493 164.413 128.863 179.343 130.254 181.93C130.988 183.341 133.27 185.622 135.201 187.416Z" fill="url(#paint3_linear)"/>
<path opacity="0.5" d="M135.201 187.416C134.993 185.889 132.21 183.302 131.593 181.625C130.975 179.948 127.231 172.063 125.093 163.607C122.954 155.15 120.913 152.466 120.822 151.445C120.731 150.425 121.654 144.009 121.654 144.009L111.001 143.736C111.001 143.736 111.098 146.635 111.599 150.061C112.197 150.152 112.899 150.23 113.737 150.282C115.551 150.423 117.374 150.222 119.113 149.69C119.113 149.69 118.515 152.076 120.504 158.244C122.493 164.413 128.863 179.343 130.254 181.93C130.988 183.341 133.27 185.622 135.201 187.416Z" fill="white"/>
<path d="M111.001 143.736C111.001 143.736 111.28 151.816 113.23 156.925C115.18 162.034 123.539 176.522 125.58 180.143C127.621 183.763 128.18 184.784 128.18 184.784C126.559 186.781 125.04 188.859 123.63 191.011C122.239 193.331 119.73 194.54 120.289 195.47C120.848 196.399 121.498 196.302 124.469 195.561C127.439 194.82 128.369 193.143 130.787 191.193C133.205 189.243 135.148 189.152 135.239 187.663C135.33 186.175 132.269 183.393 131.619 181.625C130.969 179.857 127.257 172.063 125.119 163.607C122.98 155.15 120.939 152.466 120.848 151.445C120.757 150.425 121.68 144.009 121.68 144.009L111.001 143.736Z" stroke="#263238" stroke-width="0.75" stroke-linecap="round" stroke-linejoin="round"/>
<path d="M135.212 187.663C135.264 186.896 134.464 185.778 133.593 184.634L129.271 188.41C129.271 188.41 128.803 187.11 128.25 185.901C128.156 185.639 127.983 185.412 127.756 185.251C126.273 187.086 124.886 188.998 123.603 190.978C122.212 193.298 119.703 194.507 120.262 195.437C120.821 196.366 121.471 196.269 124.441 195.528C127.412 194.787 128.341 193.11 130.759 191.16C133.177 189.21 135.121 189.151 135.212 187.663Z" fill="#263238" stroke="#263238" stroke-width="0.75" stroke-linecap="round" stroke-linejoin="round"/>
<path d="M132.242 142.898C133.238 145.941 134.677 148.821 136.513 151.446C139.763 156.275 152.581 169.834 153.79 171.596C154.999 173.357 157.137 180.793 157.969 183.393C158.801 185.993 161.408 184.973 162.337 181.625C163.267 178.278 158.067 170.855 157.04 169.366C156.013 167.878 150.54 161.196 147.199 153.019C143.858 144.842 141.901 140.207 141.901 140.207C141.901 140.207 133.542 141.878 132.242 142.898Z" fill="white"/>
<path d="M157.04 169.366C156.019 167.884 150.54 161.196 147.199 153.019C143.858 144.842 141.901 140.207 141.901 140.207C141.901 140.207 133.542 141.878 132.242 142.898C132.836 144.763 133.62 146.562 134.582 148.267C136.783 148.084 138.942 147.555 140.978 146.701C140.978 146.701 145.756 157.452 149.142 162.229C150.936 164.764 154.817 168.203 158.06 170.868C157.612 170.192 157.241 169.659 157.04 169.366Z" fill="url(#paint4_linear)"/>
<path opacity="0.5" d="M157.04 169.366C156.019 167.884 150.54 161.196 147.199 153.019C143.858 144.842 141.901 140.207 141.901 140.207C141.901 140.207 133.542 141.878 132.242 142.898C132.836 144.763 133.62 146.562 134.582 148.267C136.783 148.084 138.942 147.555 140.978 146.701C140.978 146.701 145.756 157.452 149.142 162.229C150.936 164.764 154.817 168.203 158.06 170.868C157.612 170.192 157.241 169.659 157.04 169.366Z" fill="white"/>
<path d="M132.242 142.898C133.238 145.941 134.677 148.821 136.513 151.446C139.763 156.275 152.581 169.834 153.79 171.596C154.999 173.357 157.137 180.793 157.969 183.393C158.801 185.993 161.408 184.973 162.337 181.625C163.267 178.278 158.067 170.855 157.04 169.366C156.013 167.878 150.54 161.196 147.199 153.019C143.858 144.842 141.901 140.207 141.901 140.207C141.901 140.207 133.542 141.878 132.242 142.898Z" stroke="#263238" stroke-width="0.75" stroke-linecap="round" stroke-linejoin="round"/>
<path d="M157.969 183.392C158.808 185.992 161.408 184.971 162.337 181.624C163.267 178.276 158.067 170.853 157.04 169.365L156.767 168.981C157.222 170.197 157.69 171.412 157.69 171.412C157.409 171.119 157.05 170.91 156.656 170.811C156.261 170.713 155.847 170.727 155.46 170.853C153.978 171.224 154.719 173.453 154.719 173.453V173.512C155.889 176.45 157.319 181.37 157.969 183.392Z" fill="#263238" stroke="#263238" stroke-width="0.75" stroke-linecap="round" stroke-linejoin="round"/>
<path d="M95.4004 123.988C95.4004 123.988 96.8434 120.699 102.212 119.737C107.581 118.775 114.354 124.287 117.11 125.269C119.866 126.25 121.4 108.505 118.651 91.8391C115.901 75.1732 112.04 73.9447 106.255 81.6536C100.47 89.3626 95.9594 119.308 95.4004 123.988Z" fill="#263238" stroke="#263238" stroke-width="0.75" stroke-linecap="round" stroke-linejoin="round"/>
<path d="M170.151 76.0248C162.26 60.7888 156.403 58.7478 151.671 55.2248C146.939 51.7018 146.653 51.6043 142.662 48.7248C138.671 45.8453 130.761 42.4913 127.901 41.7503C127.1 41.5212 126.255 41.497 125.443 41.6799C124.631 41.8628 123.878 42.2468 123.253 42.7968C123.253 42.7968 119.165 44.0968 114.153 49.1798C109.142 54.2628 113.405 58.5593 113.405 58.5593C113.405 58.5593 112.106 64.2273 118.703 70.7273C125.301 77.2273 129.103 96.1813 151.203 97.2928C173.303 98.4043 178.035 91.2543 170.151 76.0248ZM115.355 54.1978C113.795 56.3753 113.782 57.3828 113.945 57.8118C114.005 57.9118 114.073 58.0074 114.146 58.0978C114.05 58.0272 113.979 57.9267 113.945 57.8118C113.614 57.2246 113.403 56.577 113.326 55.9072C113.249 55.2374 113.307 54.5589 113.496 53.9118C114.146 51.2208 119.255 48.6208 119.255 48.6208C119.255 48.6208 117.663 50.9478 115.342 54.1978H115.355Z" fill="#263238" stroke="#263238" stroke-width="0.75" stroke-linecap="round" stroke-linejoin="round"/>
<path d="M125.355 64.8635C124.195 64.8786 123.038 64.7231 121.923 64.402C119.785 63.843 118.023 64.402 115.696 67.093C113.369 69.784 110.587 77.0315 110.587 82.42C110.587 87.8085 113.935 94.12 113.935 94.12C113.935 94.12 110.217 99.4175 108.735 109.447C105.421 139.543 116.958 176.658 116.958 176.658C116.958 176.658 127.396 173.319 137.517 171.642C143.786 170.574 149.258 161.173 155.075 158.602C155.075 158.602 148.014 128.024 143.367 113.718C140.964 106.088 138.174 98.5861 135.008 91.2405C135.008 91.2405 137.426 81.6725 137.517 75.1725C137.608 68.6725 135.287 66.534 133.526 65.702C131.764 64.87 125.355 64.8635 125.355 64.8635Z" fill="#263238"/>
<path opacity="0.3" d="M123.35 66.4573C122.19 66.4723 121.033 66.3169 119.918 65.9958C117.78 65.4368 116.018 65.9958 113.691 68.6868C111.364 71.3778 108.582 78.6253 108.582 84.0138C108.582 89.4023 111.93 95.7138 111.93 95.7138C111.93 95.7138 109.434 107.534 108.582 117.565C108.581 150.165 116.957 176.747 116.957 176.747C116.957 176.747 126.397 172.907 136.518 171.23C142.787 170.162 146.249 162.767 152.066 160.196C152.066 160.196 146.009 129.618 141.362 115.311C138.959 107.682 136.169 100.18 133.003 92.8343C133.003 92.8343 135.421 83.2663 135.512 76.7663C135.603 70.2663 133.282 68.1278 131.521 67.2958C129.759 66.4638 123.35 66.4573 123.35 66.4573Z" fill="white" stroke="#263238" stroke-width="0.75" stroke-linecap="round" stroke-linejoin="round"/>
<path d="M120.821 86.7969C120.821 86.7969 122.303 91.3469 126.301 93.3944" stroke="#263238" stroke-width="0.75" stroke-linecap="round" stroke-linejoin="round"/>
<path d="M122.448 60.3896C122.241 61.6076 121.648 64.7598 120.97 65.9066C119.991 67.3192 120.358 65.3685 119.467 67.9128C118.575 70.4571 120.594 73.3378 123.979 71.9251C128.493 70.4205 129.667 67.7971 129.486 66.7208C129.306 65.6445 128.508 65.4229 128.508 63.9509C128.534 62.977 128.743 62.0086 129.131 61.0663C129.131 61.0663 124.499 61.2918 122.448 60.3896Z" fill="white"/>
<path d="M122.583 59.957C122.367 61.9222 121.913 63.8538 121.231 65.7095C122.388 66.9705 124.748 68.381 128.953 66.756C128.918 66.441 128.9 66.1241 128.901 65.807C128.928 64.2072 129.146 62.6164 129.551 61.0685C129.551 61.0685 124.722 61.439 122.583 59.957Z" fill="url(#paint5_linear)"/>
<path opacity="0.5" d="M122.583 59.957C122.367 61.9222 121.913 63.8538 121.231 65.7095C122.388 66.9705 124.748 68.381 128.953 66.756C128.918 66.441 128.9 66.1241 128.901 65.807C128.928 64.2072 129.146 62.6164 129.551 61.0685C129.551 61.0685 124.722 61.439 122.583 59.957Z" fill="white"/>
<path d="M122.583 59.957C122.367 61.9577 121.9 63.9231 121.192 65.807C120.172 68.1275 120.395 64.7348 119.466 68.9143C118.536 73.0938 124.982 72.3355 127.993 70.357C131.522 68.0365 130.11 72.125 129.922 70.357C129.733 68.589 128.901 68.225 128.901 65.807C128.928 64.2073 129.147 62.6165 129.551 61.0685C129.551 61.0685 124.722 61.439 122.583 59.957Z" stroke="#263238" stroke-width="0.75" stroke-linecap="round" stroke-linejoin="round"/>
<path d="M125.372 36.3625C125.372 36.3625 120.075 51.6895 119.704 55.687C119.617 56.7004 119.738 57.7209 120.061 58.6855C120.383 59.6501 120.9 60.5384 121.579 61.2956C122.258 62.0527 123.085 62.6626 124.009 63.0876C124.934 63.5125 125.935 63.7436 126.952 63.7665C131.502 63.8575 135.122 58.5665 135.122 58.5665C135.122 58.5665 136.981 60.055 139.393 58.3845C141.804 56.714 147.401 41.9395 147.401 41.9395C147.401 41.9395 144.521 37.0125 137.183 35.6215C129.844 34.2305 125.372 36.3625 125.372 36.3625Z" fill="white"/>
<path d="M137.163 35.6223C135.876 35.3775 134.573 35.2276 133.263 35.1738L131.06 42.9738C131.06 42.9738 134.238 52.1713 134.043 54.7583C133.848 57.3453 131.651 62.3178 125.879 62.3178C124.513 62.3287 123.158 62.084 121.882 61.5963C123.227 62.9668 125.058 63.7516 126.978 63.7803C131.528 63.8713 135.148 58.5803 135.148 58.5803C135.148 58.5803 137.007 60.0688 139.419 58.3983C141.83 56.7278 147.401 41.9403 147.401 41.9403C147.401 41.9403 144.502 37.0133 137.163 35.6223Z" fill="url(#paint6_linear)"/>
<path opacity="0.5" d="M137.163 35.6223C135.876 35.3775 134.573 35.2276 133.263 35.1738L131.06 42.9738C131.06 42.9738 134.238 52.1713 134.043 54.7583C133.848 57.3453 131.651 62.3178 125.879 62.3178C124.513 62.3287 123.158 62.084 121.882 61.5963C123.227 62.9668 125.058 63.7516 126.978 63.7803C131.528 63.8713 135.148 58.5803 135.148 58.5803C135.148 58.5803 137.007 60.0688 139.419 58.3983C141.83 56.7278 147.401 41.9403 147.401 41.9403C147.401 41.9403 144.502 37.0133 137.163 35.6223Z" fill="white"/>
<path d="M125.372 36.3625C125.372 36.3625 120.075 51.6895 119.704 55.687C119.617 56.7004 119.738 57.7209 120.061 58.6855C120.383 59.6501 120.9 60.5384 121.579 61.2956C122.258 62.0527 123.085 62.6626 124.009 63.0876C124.934 63.5125 125.935 63.7436 126.952 63.7665C131.502 63.8575 135.122 58.5665 135.122 58.5665C135.122 58.5665 136.981 60.055 139.393 58.3845C141.804 56.714 147.401 41.9395 147.401 41.9395C147.401 41.9395 144.521 37.0125 137.183 35.6215C129.844 34.2305 125.372 36.3625 125.372 36.3625Z" stroke="#263238" stroke-width="0.75" stroke-linecap="round" stroke-linejoin="round"/>
<path d="M127.971 47.79C127.694 48.7347 127.06 49.5343 126.203 50.0196C124.812 50.7606 123.603 50.6696 124.071 51.4106C124.499 51.927 125.087 52.2861 125.742 52.4311" stroke="#263238" stroke-width="0.75" stroke-linecap="round" stroke-linejoin="round"/>
<path d="M124.813 54.0107C125.571 54.5667 126.474 54.8897 127.413 54.9402C128.53 55.0271 129.643 54.7339 130.572 54.1082C130.572 54.1082 127.692 57.4492 126.204 57.4492C124.715 57.4492 124.813 54.0107 124.813 54.0107Z" fill="#263238"/>
<path d="M129.642 48.6289C129.642 48.6289 131.312 46.8609 132.612 48.9994" stroke="#263238" stroke-width="0.75" stroke-linecap="round" stroke-linejoin="round"/>
<path d="M124.351 47.7892C124.512 47.6159 124.715 47.4867 124.941 47.4139C125.167 47.3411 125.407 47.3272 125.639 47.3734C125.872 47.4196 126.089 47.5245 126.269 47.678C126.45 47.8316 126.588 48.0287 126.671 48.2507" stroke="#263238" stroke-width="0.75" stroke-linecap="round" stroke-linejoin="round"/>
<path d="M124.001 45.8399C124.222 45.3693 124.58 44.9759 125.027 44.7106C125.474 44.4452 125.991 44.3201 126.51 44.3514" stroke="#263238" stroke-width="0.75" stroke-linecap="round" stroke-linejoin="round"/>
<path d="M130.292 44.4484C130.292 44.4484 131.312 44.0714 132.242 45.9304" stroke="#263238" stroke-width="0.75" stroke-linecap="round" stroke-linejoin="round"/>
<path d="M131.033 42.9609C131.033 42.9609 133.633 48.5314 136.051 54.3814C138.469 60.2314 148.31 67.4789 150 67.9469C151.69 68.4149 157.059 59.3994 157.059 59.3994C157.059 59.3994 147.634 52.7434 144.176 49.8509C140.718 46.9584 136.89 43.8904 131.033 42.9609Z" fill="#263238" stroke="#263238" stroke-width="0.75" stroke-linecap="round" stroke-linejoin="round"/>
<path d="M125.3 41.2899L114.718 34.5104C114.718 34.5104 127.718 29.1219 130.968 26.1514C130.968 26.1514 151.956 39.8014 159.665 40.7309C159.665 40.7309 147.874 45.2809 142.486 46.5809L125.3 41.2899Z" fill="url(#paint7_linear)" stroke="#263238" stroke-width="0.75" stroke-linecap="round" stroke-linejoin="round"/>
<path d="M147.399 41.9395C147.399 41.9395 144.52 37.0125 137.181 35.6215C129.843 34.2305 125.39 36.3625 125.39 36.3625C125.39 36.3625 124.402 39.2225 123.252 42.7976C126.496 42.0564 129.885 42.2824 133.002 43.4476C137.552 44.9946 141.666 47.8871 144.175 49.8761C145.911 45.8331 147.399 41.9395 147.399 41.9395Z" fill="url(#paint8_linear)" stroke="#263238" stroke-width="0.75" stroke-linecap="round" stroke-linejoin="round"/>
<path d="M114.693 34.5104C114.693 34.5104 113.945 39.8924 110.045 39.3399C106.145 38.7874 107.536 33.5809 111.995 29.4014C116.454 25.2219 114.413 20.3014 111.436 19.4629" stroke="#263238" stroke-width="0.75" stroke-linecap="round" stroke-linejoin="round"/>
<path d="M112.183 19.6436C112.183 19.6436 110.974 18.5321 108.095 18.1616C105.215 17.7911 100.574 16.8616 100.756 17.2321C100.938 17.6026 100.847 18.5321 101.036 19.1821C101.224 19.8321 101.595 20.6706 102.615 20.6706C103.636 20.6706 110.695 20.4821 111.533 20.4821C112.372 20.4821 112.183 19.6436 112.183 19.6436Z" fill="#263238" stroke="#263238" stroke-width="0.75" stroke-linecap="round" stroke-linejoin="round"/>
<path d="M171.45 43.4209C171.45 43.4209 172.38 52.3389 174.239 56.5184C176.098 60.6979 178.658 69.6419 178.229 74.7184C177.924 78.4039 176.65 78.8979 175.629 78.8979C174.609 78.8979 171.333 76.6554 169.221 72.5799C165.275 64.9814 166.439 59.3914 167.641 54.9324C168.844 50.4734 171.45 43.4209 171.45 43.4209Z" fill="#263238"/>
<path opacity="0.3" d="M171.45 43.4209C171.45 43.4209 172.38 52.3389 174.239 56.5184C176.098 60.6979 178.555 69.3364 178.23 74.7184C178.009 78.4104 176.65 78.8979 175.63 78.8979C174.609 78.8979 172.75 80.3799 169.221 72.5799C165.691 64.7799 166.439 59.3914 167.641 54.9324C168.844 50.4734 171.45 43.4209 171.45 43.4209Z" fill="white" stroke="#263238" stroke-width="0.75" stroke-linecap="round" stroke-linejoin="round"/>
<path d="M171.45 43.4209C171.45 43.4209 172.38 52.3389 174.239 56.5184C176.098 60.6979 178.658 69.6419 178.229 74.7184C177.924 78.4039 176.65 78.8979 175.629 78.8979C174.609 78.8979 171.333 76.6554 169.221 72.5799C165.275 64.9814 166.439 59.3914 167.641 54.9324C168.844 50.4734 171.45 43.4209 171.45 43.4209Z" stroke="#263238" stroke-width="0.75" stroke-linecap="round" stroke-linejoin="round"/>
<path d="M171.528 44.5398C171.528 44.5398 177.476 36.5513 178.587 34.3218C179.699 32.0923 181.467 29.7718 182.767 29.5833C184.067 29.3948 187.414 32.1833 187.596 33.9513C187.778 35.7193 185.744 37.8513 184.067 38.5923C182.978 39.0358 181.78 39.1334 180.635 38.8718C180.635 38.8718 175.805 47.6013 173.108 51.6898C170.41 55.7783 168.837 57.6373 168.278 58.0988C167.719 58.5603 166.328 56.3373 167.167 53.2693C168.005 50.2013 171.528 44.5398 171.528 44.5398Z" fill="white" stroke="#263238" stroke-width="0.75" stroke-linecap="round" stroke-linejoin="round"/>
<path d="M185.899 30.5452C185.899 30.5452 183.949 33.4702 184.157 34.0227C184.365 34.5752 185.028 35.3227 185.425 34.8157C185.821 34.3087 187.375 32.1247 187.323 31.2537C187.271 30.3827 186.608 30.1487 185.899 30.5452Z" fill="white" stroke="#263238" stroke-width="0.75" stroke-linecap="round" stroke-linejoin="round"/>
<path d="M187.271 32.0071C187.271 32.0071 185.536 34.6071 185.744 35.0686C185.952 35.5301 186.504 36.1801 186.855 35.7641C187.206 35.3481 188.591 33.3981 188.519 32.6311C188.448 31.8641 187.895 31.6626 187.271 32.0071Z" fill="white" stroke="#263238" stroke-width="0.75" stroke-linecap="round" stroke-linejoin="round"/>
<path d="M184.45 28.654C184.45 28.654 182.123 32.0926 182.402 32.7426C182.682 33.3926 183.423 34.231 183.891 33.672C184.359 33.113 186.211 30.5131 186.12 29.4926C186.029 28.472 185.275 28.1925 184.45 28.654Z" fill="white" stroke="#263238" stroke-width="0.75" stroke-linecap="round" stroke-linejoin="round"/>
<path d="M182.675 27.1715C182.675 27.1715 180.354 30.6035 180.634 31.26C180.913 31.9165 181.654 32.742 182.116 32.183C182.577 31.624 184.443 29.0305 184.345 28.0035C184.248 26.9765 183.513 26.7035 182.675 27.1715Z" fill="white" stroke="#263238" stroke-width="0.75" stroke-linecap="round" stroke-linejoin="round"/>
<path d="M178.496 35.4403C178.496 35.4403 181.005 29.0312 181.564 29.0312C182.123 29.0312 185.185 30.7928 185.367 31.6313C185.549 32.4698 185.367 32.5608 184.814 32.6518C184.262 32.7428 182.494 31.7223 182.494 31.7223C182.494 31.7223 183.326 33.6723 182.117 35.0633C180.908 36.4543 179.887 36.5518 179.887 36.5518" fill="white"/>
<path d="M178.496 35.4403C178.496 35.4403 181.005 29.0312 181.564 29.0312C182.123 29.0312 185.185 30.7928 185.367 31.6313C185.549 32.4698 185.367 32.5608 184.814 32.6518C184.262 32.7428 182.494 31.7223 182.494 31.7223C182.494 31.7223 183.326 33.6723 182.117 35.0633C180.908 36.4543 179.887 36.5518 179.887 36.5518" stroke="#263238" stroke-width="0.75" stroke-linecap="round" stroke-linejoin="round"/>
<path d="M95.2701 35.6411C95.2701 35.6411 90.3821 26.9701 89.5566 24.5911C88.7311 22.2121 87.2751 19.7161 86.0076 19.3911C84.7401 19.0661 81.0741 21.3866 80.6646 23.1156C80.2551 24.8446 82.0166 27.2171 83.5831 28.1661C84.604 28.7493 85.779 29.0056 86.9501 28.9006C86.9501 28.9006 90.6421 38.1696 92.8001 42.5506C94.9581 46.9316 96.284 48.9856 96.778 49.5186C97.272 50.0516 98.936 48.0106 98.494 44.8646C98.052 41.7186 95.2701 35.6411 95.2701 35.6411Z" fill="white" stroke="#263238" stroke-width="0.75" stroke-linecap="round" stroke-linejoin="round"/>
<path d="M82.7836 19.9499C82.7836 19.9499 84.3761 23.1024 84.0836 23.6224C83.7911 24.1424 83.0566 24.7664 82.7251 24.2724C82.3936 23.7784 81.1066 21.3539 81.2951 20.5024C81.4836 19.6509 82.1271 19.4689 82.7836 19.9499Z" fill="white" stroke="#263238" stroke-width="0.75" stroke-linecap="round" stroke-linejoin="round"/>
<path d="M81.2369 21.2308C81.2369 21.2308 82.6344 23.9998 82.3679 24.4808C82.1014 24.9618 81.4709 25.4883 81.1784 25.0333C80.8859 24.5783 79.7484 22.4658 79.9174 21.7183C80.0864 20.9708 80.6584 20.8083 81.2369 21.2308Z" fill="white" stroke="#263238" stroke-width="0.75" stroke-linecap="round" stroke-linejoin="round"/>
<path d="M84.4667 18.2605C84.4667 18.2605 86.3322 21.9589 85.9747 22.5699C85.6172 23.1809 84.7787 23.9154 84.3822 23.3044C83.9857 22.6934 82.4778 19.8789 82.6988 18.8779C82.9198 17.8769 83.6997 17.695 84.4667 18.2605Z" fill="white" stroke="#263238" stroke-width="0.75" stroke-linecap="round" stroke-linejoin="round"/>
<path d="M86.4041 17.0055C86.4041 17.0055 88.2761 20.7105 87.9121 21.3215C87.5481 21.9325 86.7161 22.667 86.3261 22.056C85.9361 21.445 84.4151 18.6305 84.6361 17.6295C84.8571 16.6285 85.6501 16.44 86.4041 17.0055Z" fill="white" stroke="#263238" stroke-width="0.75" stroke-linecap="round" stroke-linejoin="round"/>
<path d="M89.5041 25.7349C89.5041 25.7349 87.8271 19.0594 87.2746 18.9944C86.7221 18.9294 83.4591 20.2944 83.1666 21.0939C82.8741 21.8934 83.0496 22.0104 83.5956 22.1729C84.1416 22.3354 86.0136 21.5229 86.0136 21.5229C86.0136 21.5229 84.9411 23.3494 85.9616 24.8834C86.9821 26.4174 87.9831 26.6384 87.9831 26.6384" fill="white"/>
<path d="M89.5041 25.7349C89.5041 25.7349 87.8271 19.0594 87.2746 18.9944C86.7221 18.9294 83.4591 20.2944 83.1666 21.0939C82.8741 21.8934 83.0496 22.0104 83.5956 22.1729C84.1416 22.3354 86.0136 21.5229 86.0136 21.5229C86.0136 21.5229 84.9411 23.3494 85.9616 24.8834C86.9821 26.4174 87.9831 26.6384 87.9831 26.6384" stroke="#263238" stroke-width="0.75" stroke-linecap="round" stroke-linejoin="round"/>
<path d="M135.05 66.4575C135.05 66.4575 133.47 63.487 131.52 63.9485C129.57 64.41 127.432 70.9165 127.432 79.5485C127.432 88.1805 132.45 105.276 136.532 115.949C140.614 126.622 141.641 142.144 141.27 151.803C140.9 161.462 139.229 162.762 139.691 163.223C140.152 163.685 141.92 163.782 151.677 159.512C161.433 155.241 161.238 150.685 161.238 150.685L159.568 144.185C159.568 144.185 163.006 142.976 169.045 143.073C175.083 143.171 180.836 139.544 181.024 134.526C181.213 129.508 174.524 123.476 171.736 121.149C168.947 118.822 175.87 113.765 161.518 104.71C153.848 99.874 149.818 91.6125 148.05 88.083C146.282 84.5535 146.568 82.5125 148.42 80.933C150.273 79.3535 158.086 76.474 163.188 76.7535C168.291 77.033 175.636 78.892 175.636 78.892C175.636 78.892 169.597 75.9215 169.318 64.215C169.146 57.2191 169.865 50.2297 171.456 43.415C171.456 43.415 169.045 45.6445 164.586 49.733C160.127 53.8215 160.406 54.842 156.877 54.842C153.347 54.842 150.188 55.583 149.077 58.4625C147.965 61.342 146.665 63.0125 143.974 62.9215C141.283 62.8305 140.445 61.0625 137.838 63.0125C135.232 64.9625 135.05 66.4575 135.05 66.4575Z" fill="url(#paint9_linear)" stroke="#263238" stroke-width="0.75" stroke-linecap="round" stroke-linejoin="round"/>
<path d="M135.05 66.457C135.05 66.457 131.52 74.166 132.45 85.957C133.379 97.748 138.95 111.496 146.568 120.323C154.186 129.15 159.009 143.17 159.009 143.17" stroke="#263238" stroke-width="0.75" stroke-linecap="round" stroke-linejoin="round"/>
<path d="M142.271 90.6973C142.271 90.6973 144.78 101.195 151.839 109.924C158.898 118.654 170.228 120.883 170.228 120.883" stroke="#263238" stroke-width="0.75" stroke-linecap="round" stroke-linejoin="round"/>
<path d="M140.321 78.625C140.321 78.625 139.21 82.0635 141.81 87.634C144.41 93.2045 145.06 93.952 145.06 93.952" stroke="#263238" stroke-width="0.75" stroke-linecap="round" stroke-linejoin="round"/>
<path d="M148.05 81.0371C146.406 82.5057 145.052 84.2695 144.059 86.2371" stroke="#263238" stroke-width="0.75" stroke-linecap="round" stroke-linejoin="round"/>
<path d="M163.169 76.7665C164.124 76.8185 165.158 76.929 166.204 77.0655C165.359 76.717 164.614 76.1648 164.035 75.4582C163.455 74.7516 163.059 73.9126 162.883 73.016C161.934 69.3955 164.872 59.366 166.133 55.102C166.901 52.4774 167.364 49.7728 167.511 47.042L164.781 49.551C164.56 51.1929 164.217 52.816 163.754 54.4065C161.472 62.174 159.503 69.883 160.504 73.6465C160.783 74.765 161.265 75.8226 161.927 76.7665C162.35 76.747 162.766 76.747 163.169 76.7665Z" fill="#263238"/>
<path d="M118.8 66.647C118.8 66.647 119.729 63.67 117.87 62.188C116.011 60.706 114.068 62.929 114.068 62.929C112.398 61.9204 111.071 60.4323 110.259 58.6585C108.679 55.4995 110.538 53.4585 106.911 48.9085C103.284 44.3585 100.97 42.9675 101.9 38.697C102.829 34.4265 106.729 31.2675 103.941 29.4085C101.152 27.5495 94.3728 27.6405 89.3613 33.3085C84.3498 38.9765 84.9023 42.129 82.9523 44.2675C81.0023 46.406 76.7253 49.097 79.3253 53.2765C81.9253 57.456 86.2933 59.0355 90.3753 59.6855C94.4573 60.3355 100.314 65.256 101.614 70.7355C102.914 76.215 101.243 82.624 98.7343 87.8305C96.2253 93.037 89.1663 99.901 87.0343 110.49C84.9023 121.078 91.5843 126.558 92.7933 130.737C94.0023 134.917 95.6728 145.596 93.7228 151.635C92.5182 155.277 89.9896 158.335 86.6378 160.202C86.6378 160.202 89.3353 164.193 96.0173 164.934C102.699 165.675 104.006 164.934 104.565 162.054C105.124 159.175 105.774 149.516 103.544 139.207C101.315 128.898 96.4853 124.257 99.6443 115.157C102.803 106.057 105.774 95.091 109.206 87.1025C112.638 79.114 118.8 66.647 118.8 66.647Z" fill="url(#paint10_linear)" stroke="#263238" stroke-width="0.75" stroke-linecap="round" stroke-linejoin="round"/>
<path d="M105.306 62.0889C105.306 62.0889 107.165 62.2774 106.145 67.0159C105.124 71.7544 101.595 80.2954 101.595 80.2954" stroke="#263238" stroke-width="0.75" stroke-linecap="round" stroke-linejoin="round"/>
<path d="M92.5844 129.89C92.5844 129.89 90.6344 126.64 91.6549 118.47C92.6754 110.299 96.6989 99.711 99.9489 90.325C103.199 80.939 104.681 77.416 104.681 77.416" stroke="#263238" stroke-width="0.75" stroke-linecap="round" stroke-linejoin="round"/>
<path d="M114.504 63.7666C114.504 63.7666 114.504 65.5281 110.136 74.5371C105.768 83.5461 103.545 90.9756 103.454 96.2731" stroke="#263238" stroke-width="0.75" stroke-linecap="round" stroke-linejoin="round"/>
<path d="M87.5023 48.2579C88.2823 47.6079 89.0883 46.9579 89.8163 46.2754C91.9028 44.3254 92.7348 42.0569 93.4693 40.0874C94.1193 38.3779 94.6523 36.8959 95.9198 35.9729C97.4408 34.8484 100.424 36.0379 102.361 37.0909C102.667 36.3185 103.018 35.5653 103.414 34.8354C101.113 33.5874 97.1483 31.9884 94.4508 33.9774C92.5918 35.3424 91.8508 37.3119 91.1423 39.2229C90.4923 41.0234 89.7773 42.8889 88.1068 44.4749C87.4568 45.1249 86.7093 45.7034 85.9358 46.3404C83.6413 48.2189 80.9698 50.4159 79.7803 53.9779C80.3571 54.7782 81.0318 55.5032 81.7888 56.1359C82.3998 52.4504 84.8958 50.3964 87.5023 48.2579Z" fill="#263238"/>
<path d="M256.782 195.501H0.994141V199.655H256.782V195.501Z" fill="#263238"/>
<defs>
<linearGradient id="paint0_linear" x1="6.09649" y1="185.888" x2="218.416" y2="282.52" gradientUnits="userSpaceOnUse">
<stop stop-color="#82C132"/>
<stop offset="1" stop-color="#42A132"/>
</linearGradient>
<linearGradient id="paint1_linear" x1="25.2242" y1="128.519" x2="95.7589" y2="131.02" gradientUnits="userSpaceOnUse">
<stop stop-color="#82C132"/>
<stop offset="1" stop-color="#42A132"/>
</linearGradient>
<linearGradient id="paint2_linear" x1="168.023" y1="128.519" x2="238.558" y2="131.02" gradientUnits="userSpaceOnUse">
<stop stop-color="#82C132"/>
<stop offset="1" stop-color="#42A132"/>
</linearGradient>
<linearGradient id="paint3_linear" x1="111.485" y1="143.736" x2="135.728" y2="144.031" gradientUnits="userSpaceOnUse">
<stop stop-color="#82C132"/>
<stop offset="1" stop-color="#42A132"/>
</linearGradient>
<linearGradient id="paint4_linear" x1="132.759" y1="140.207" x2="158.618" y2="140.685" gradientUnits="userSpaceOnUse">
<stop stop-color="#82C132"/>
<stop offset="1" stop-color="#42A132"/>
</linearGradient>
<linearGradient id="paint5_linear" x1="121.398" y1="59.957" x2="129.729" y2="60.1591" gradientUnits="userSpaceOnUse">
<stop stop-color="#82C132"/>
<stop offset="1" stop-color="#42A132"/>
</linearGradient>
<linearGradient id="paint6_linear" x1="122.392" y1="35.1738" x2="147.951" y2="35.6743" gradientUnits="userSpaceOnUse">
<stop stop-color="#82C132"/>
<stop offset="1" stop-color="#42A132"/>
</linearGradient>
<linearGradient id="paint7_linear" x1="115.617" y1="26.1514" x2="160.547" y2="28.3212" gradientUnits="userSpaceOnUse">
<stop stop-color="#82C132"/>
<stop offset="1" stop-color="#42A132"/>
</linearGradient>
<linearGradient id="paint8_linear" x1="123.735" y1="35.1504" x2="147.898" y2="36.0201" gradientUnits="userSpaceOnUse">
<stop stop-color="#82C132"/>
<stop offset="1" stop-color="#42A132"/>
</linearGradient>
<linearGradient id="paint9_linear" x1="128.504" y1="43.415" x2="182.199" y2="43.9413" gradientUnits="userSpaceOnUse">
<stop stop-color="#82C132"/>
<stop offset="1" stop-color="#42A132"/>
</linearGradient>
<linearGradient id="paint10_linear" x1="79.3202" y1="28.3281" x2="119.92" y2="28.5919" gradientUnits="userSpaceOnUse">
<stop stop-color="#82C132"/>
<stop offset="1" stop-color="#42A132"/>
</linearGradient>
</defs>
</svg>
