<svg width="18" height="18" viewBox="0 0 18 18" fill="none" xmlns="http://www.w3.org/2000/svg">
<path fill-rule="evenodd" clip-rule="evenodd" d="M6.39872 2.20258C8.03736 1.25046 10.0515 1.2671 11.6748 2.24617C13.2821 3.24519 14.259 5.02813 14.2499 6.94608C14.2125 8.85145 13.165 10.6425 11.8556 12.0271C11.0999 12.8298 10.2545 13.5396 9.33663 14.142C9.24211 14.1967 9.13856 14.2333 9.03111 14.25C8.9277 14.2456 8.82699 14.215 8.73806 14.1611C7.33682 13.2559 6.1075 12.1005 5.10925 10.7505C4.27394 9.62352 3.79938 8.26201 3.75 6.85081C3.74892 4.92918 4.76007 3.1547 6.39872 2.20258ZM7.34553 7.64615C7.62118 8.32569 8.2718 8.76894 8.99361 8.76895C9.46649 8.77234 9.92105 8.58293 10.256 8.24292C10.591 7.90291 10.7785 7.44054 10.7768 6.95885C10.7794 6.22359 10.3465 5.5593 9.68036 5.27614C9.01421 4.99299 8.24619 5.14682 7.7349 5.66582C7.2236 6.18482 7.06989 6.96661 7.34553 7.64615Z" fill="url(#paint0_linear)"/>
<ellipse opacity="0.4" cx="9" cy="15.75" rx="3.75" ry="0.75" fill="#6F798C"/>
<defs>
<linearGradient id="paint0_linear" x1="3.71367" y1="7.875" x2="28.3235" y2="7.875" gradientUnits="userSpaceOnUse">
<stop stop-color="#7CCB2B"/>
<stop offset="0.172727" stop-color="#7CCB2B"/>
<stop offset="0.672727" stop-color="#65C432"/>
<stop offset="1" stop-color="#31AE42"/>
</linearGradient>
</defs>
</svg>
