<svg width="18" height="18" viewBox="0 0 18 18" fill="none" xmlns="http://www.w3.org/2000/svg">
<path opacity="0.8" d="M10.8137 4.11683C10.4567 4.05088 10.1288 4.27872 10.0608 4.62723C9.99283 4.97574 10.2214 5.31601 10.5687 5.38421C11.6144 5.58807 12.4218 6.39751 12.6265 7.44679V7.44754C12.6847 7.74959 12.9507 7.96918 13.2569 7.96918C13.298 7.96918 13.3391 7.96544 13.3809 7.95794C13.7282 7.88824 13.9568 7.54872 13.8888 7.19946C13.5833 5.63229 12.377 4.42187 10.8137 4.11683" fill="#6F798C"/>
<path opacity="0.8" d="M10.7669 1.50595C10.5996 1.48196 10.4315 1.53143 10.2978 1.63786C10.1604 1.74578 10.0745 1.90168 10.0558 2.07631C10.0162 2.42931 10.2709 2.74859 10.6235 2.78832C13.0547 3.05963 14.9444 4.95358 15.2178 7.3924C15.2544 7.71918 15.5285 7.96576 15.8557 7.96576C15.8803 7.96576 15.9042 7.96426 15.9289 7.96126C16.0999 7.94253 16.2523 7.85784 16.3599 7.72293C16.4667 7.58802 16.5152 7.42014 16.4958 7.2485C16.1552 4.20559 13.8002 1.84397 10.7669 1.50595" fill="#6F798C"/>
<path d="M13.2035 11.0053C12.7173 10.9018 12.3326 11.1267 11.992 11.323C11.6432 11.5254 10.9792 12.0613 10.5997 11.9234C8.65323 11.1259 6.82252 9.42834 6.03003 7.48268C5.89035 7.0952 6.4259 6.4304 6.62682 6.07964C6.82326 5.73938 7.04435 5.35189 6.94352 4.86473C6.85239 4.42628 5.67374 2.93256 5.25696 2.52409C4.98134 2.25427 4.7005 2.10587 4.41144 2.08114C3.32466 2.03542 2.11091 3.47968 1.89803 3.82519C1.36398 4.56194 1.36771 5.54226 1.907 6.73095C3.20665 9.92375 8.12217 14.7422 11.3399 16.0853C11.933 16.3618 12.4767 16.5005 12.9645 16.5005C13.4418 16.5005 13.8668 16.3678 14.232 16.1048C14.5069 15.9466 16.0172 14.6777 15.9768 13.5663C15.9537 13.2829 15.8051 12.9996 15.5377 12.7253C15.1298 12.3064 13.6405 11.0974 13.2035 11.0053" fill="url(#paint0_linear)"/>
<defs>
<linearGradient id="paint0_linear" x1="1.4499" y1="9.29028" x2="35.3825" y2="9.29028" gradientUnits="userSpaceOnUse">
<stop stop-color="#7CCB2B"/>
<stop offset="0.172727" stop-color="#7CCB2B"/>
<stop offset="0.672727" stop-color="#65C432"/>
<stop offset="1" stop-color="#31AE42"/>
</linearGradient>
</defs>
</svg>
