<svg width="40" height="40" viewBox="0 0 40 40" fill="none" xmlns="http://www.w3.org/2000/svg">
<path d="M27.234 3.33301H12.784C7.13398 3.33301 3.33398 7.29967 3.33398 13.1997V26.8163C3.33398 32.6997 7.13398 36.6663 12.784 36.6663H27.234C32.884 36.6663 36.6673 32.6997 36.6673 26.8163V13.1997C36.6673 7.29967 32.884 3.33301 27.234 3.33301Z" fill="url(#paint0_linear)"/>
<path d="M18.0226 25.4134C17.6492 25.4134 17.2759 25.2718 16.9909 24.9868L13.0359 21.0318C12.4659 20.4618 12.4659 19.5384 13.0359 18.9701C13.6059 18.4001 14.5276 18.3984 15.0976 18.9684L18.0226 21.8934L24.9026 15.0134C25.4726 14.4434 26.3942 14.4434 26.9642 15.0134C27.5342 15.5834 27.5342 16.5068 26.9642 17.0768L19.0542 24.9868C18.7692 25.2718 18.3959 25.4134 18.0226 25.4134Z" fill="white" fill-opacity="0.9"/>
<defs>
<linearGradient id="paint0_linear" x1="4.00065" y1="3.333" x2="37.3829" y2="4.06574" gradientUnits="userSpaceOnUse">
<stop stop-color="#82C132"/>
<stop offset="1" stop-color="#42A132"/>
</linearGradient>
</defs>
</svg>
