<svg width="40" height="40" viewBox="0 0 40 40" fill="none" xmlns="http://www.w3.org/2000/svg">
<path d="M19.915 24.2324C14.1651 24.2324 9.31348 25.172 9.31348 28.7982C9.31348 32.426 14.1964 33.3325 19.915 33.3325C25.665 33.3325 30.5166 32.393 30.5166 28.7667C30.5166 25.139 25.6337 24.2324 19.915 24.2324Z" fill="url(#paint0_linear)"/>
<path d="M19.9149 20.7777C23.8084 20.7777 26.9304 17.6378 26.9304 13.7219C26.9304 9.80445 23.8084 6.66602 19.9149 6.66602C16.0214 6.66602 12.8994 9.80445 12.8994 13.7219C12.8994 17.6378 16.0214 20.7777 19.9149 20.7777Z" fill="#CFDFFB"/>
<path d="M35.1466 15.3649C36.1539 11.4024 33.2006 7.84375 29.4399 7.84375C29.031 7.84375 28.64 7.88878 28.258 7.96533C28.2072 7.97733 28.1505 8.00285 28.1207 8.04788C28.0864 8.10491 28.1117 8.18146 28.149 8.23099C29.2787 9.82497 29.9279 11.7657 29.9279 13.849C29.9279 15.8452 29.3325 17.7063 28.2878 19.2508C28.1804 19.4099 28.2759 19.6245 28.4654 19.6575C28.7281 19.7041 28.9967 19.7281 29.2713 19.7356C32.0097 19.8076 34.4676 18.035 35.1466 15.3649Z" fill="#CFDFFB"/>
<path d="M38.0157 24.6948C37.5143 23.6201 36.304 22.8831 34.4639 22.5214C33.5954 22.3083 31.2449 22.0081 29.0587 22.0486C29.0258 22.0531 29.0079 22.0756 29.0049 22.0907C29.0005 22.1117 29.0094 22.1477 29.0527 22.1702C30.063 22.673 33.9685 24.8599 33.4775 29.4722C33.4566 29.6718 33.6163 29.8444 33.8148 29.8144C34.7758 29.6763 37.2486 29.142 38.0157 27.4775C38.4395 26.5979 38.4395 25.5758 38.0157 24.6948Z" fill="url(#paint1_linear)"/>
<path d="M11.7421 7.96533C11.3616 7.88728 10.9691 7.84375 10.5602 7.84375C6.7995 7.84375 3.84616 11.4024 4.85498 15.3649C5.5325 18.035 7.99038 19.8076 10.7288 19.7356C11.0034 19.7281 11.2735 19.7026 11.5347 19.6575C11.7242 19.6245 11.8197 19.4099 11.7123 19.2508C10.6676 17.7048 10.0722 15.8452 10.0722 13.849C10.0722 11.7642 10.7229 9.82347 11.8526 8.23099C11.8884 8.18146 11.9152 8.10491 11.8794 8.04788C11.8496 8.00135 11.7944 7.97733 11.7421 7.96533Z" fill="#CFDFFB"/>
<path d="M5.53625 22.5202C3.6962 22.8819 2.4874 23.6189 1.98598 24.6935C1.56066 25.5746 1.56066 26.5967 1.98598 27.4778C2.75304 29.1408 5.22585 29.6766 6.18691 29.8132C6.38539 29.8432 6.54358 29.6721 6.52269 29.471C6.03171 24.8601 9.93716 22.6733 10.949 22.1705C10.9907 22.1465 10.9997 22.1119 10.9952 22.0894C10.9922 22.0744 10.9758 22.0519 10.943 22.0489C8.75522 22.0069 6.40628 22.3071 5.53625 22.5202Z" fill="url(#paint2_linear)"/>
<defs>
<linearGradient id="paint0_linear" x1="9.73754" y1="24.2324" x2="30.9266" y2="25.3161" gradientUnits="userSpaceOnUse">
<stop stop-color="#82C132"/>
<stop offset="1" stop-color="#42A132"/>
</linearGradient>
<linearGradient id="paint1_linear" x1="29.1905" y1="22.0449" x2="38.5319" y2="22.291" gradientUnits="userSpaceOnUse">
<stop stop-color="#82C132"/>
<stop offset="1" stop-color="#42A132"/>
</linearGradient>
<linearGradient id="paint2_linear" x1="1.85358" y1="22.0449" x2="11.1946" y2="22.291" gradientUnits="userSpaceOnUse">
<stop stop-color="#82C132"/>
<stop offset="1" stop-color="#42A132"/>
</linearGradient>
</defs>
</svg>
